<?xml version="1.0" encoding="utf-8"?>
<!-- Generator: Adobe Illustrator 19.0.1, SVG Export Plug-In . SVG Version: 6.00 Build 0)  -->
<svg version="1.1" id="Layer_1" xmlns="http://www.w3.org/2000/svg" xmlns:xlink="http://www.w3.org/1999/xlink" x="0px" y="0px"
	 viewBox="0 0 1280 800" style="enable-background:new 0 0 1280 800;" xml:space="preserve">
<style type="text/css">
	.st0{fill:none;}
	.st1{fill:#D8DD27;}
	.st2{fill:#D8DD29;}
	.st3{fill:#F9B719;}
	.st4{fill:#FFC812;}
	.st5{fill:#038DBB;}
	.st6{fill:#97C93E;}
	.st7{fill:#E82629;}
	.st8{fill:#EA2427;}
	.st9{fill:#2BA6DE;}
	.st10{fill:#EC207A;}
	.st11{fill:#F05E24;}
	.st12{fill:#E9292B;}
	.st13{fill:#F05C28;}
	.st14{fill:#EC237A;}
	.st15{fill:#58595B;}
	.st16{fill:#808080;}
	.st17{fill-rule:evenodd;clip-rule:evenodd;fill:#EC207A;}
</style>
<g>
	<g>
		<path class="st0" d="M695.1,260.2c0.2,0,0.4,0.1,0.6,0.3c0.2,0.1,0.3,0.3,0.4,0.5c0.1,0.1,0.1,0.2,0.2,0.3c0,0.1,0.1,0.2,0.1,0.3
			c0.1,0.2,0.1,0.4,0,0.6c0,0.2-0.1,0.4-0.2,0.6c-0.1,0.2-0.2,0.4-0.3,0.5c-0.1,0.1-0.3,0.3-0.5,0.4c-0.2,0.1-0.4,0.1-0.6,0.2
			c-0.2,0-0.4,0-0.6-0.1c-0.3-0.1-0.5-0.2-0.7-0.4c-0.2-0.2-0.3-0.4-0.4-0.7c0,0,0,0,0-0.1c0,0,0-0.1,0-0.1c0,0,0,0,0,0c0,0,0,0,0,0
			c0,0,0,0,0.1,0c0,0,0,0,0.1,0c0,0.1,0.1,0.3,0.1,0.4c0.1,0.1,0.1,0.2,0.2,0.3c0.2,0.2,0.4,0.3,0.6,0.4c0.2,0.1,0.5,0.1,0.8,0.1
			c0.2,0,0.4-0.1,0.6-0.2c0.2-0.1,0.3-0.3,0.5-0.4c0.1-0.2,0.2-0.4,0.3-0.6c0.1-0.2,0.1-0.4,0.1-0.6c0-0.2-0.1-0.4-0.1-0.6
			c-0.1-0.2-0.2-0.4-0.3-0.5c-0.1-0.1-0.3-0.3-0.5-0.4c-0.2-0.1-0.4-0.1-0.6-0.2c-0.2,0-0.3,0-0.5,0c-0.2,0-0.3,0.1-0.4,0.2
			c-0.1,0.1-0.3,0.2-0.4,0.3c-0.1,0.1-0.2,0.2-0.3,0.4l-0.1-0.1v0c0-0.1,0.1-0.2,0.1-0.2c0.1-0.1,0.1-0.1,0.2-0.2
			c0.1-0.1,0.2-0.2,0.4-0.3c0.1-0.1,0.3-0.1,0.4-0.2c0.1-0.1,0.3-0.1,0.4-0.1C694.8,260.2,695,260.2,695.1,260.2z"/>
	</g>
	<g>
		<path class="st1" d="M510.6,299.8l-2.5-5.1c6.1-4.1,14.3-4.3,20.8,0c8.6,5.8,10.9,17.4,5.2,26c-5.8,8.6-17.4,10.9-26,5.2
			c-6.5-4.3-9.4-12-8-19.2l5.7,0.4c-1.4,5.3,0.7,11.1,5.4,14.2c6,4,14.2,2.4,18.3-3.6c4-6,2.4-14.2-3.6-18.3
			C521,296.3,515,296.6,510.6,299.8z"/>
		<path class="st2" d="M518.5,329.7c-3.8,0-7.5-1.1-10.7-3.3c-6.5-4.3-9.7-12.1-8.2-19.8l0.1-0.5l6.8,0.4l-0.2,0.6
			c-1.3,5.2,0.8,10.7,5.2,13.6c2.1,1.4,4.5,2.1,7,2.1c4.2,0,8.2-2.1,10.5-5.6c1.9-2.8,2.5-6.2,1.9-9.5c-0.7-3.3-2.6-6.2-5.4-8
			c-2.1-1.4-4.5-2.1-7-2.1c-2.7,0-5.4,0.9-7.5,2.5l-0.5,0.4l-3-6.1l0.4-0.3c3.2-2.1,6.9-3.2,10.7-3.2c3.8,0,7.5,1.1,10.7,3.3
			c8.9,5.9,11.2,17.9,5.3,26.8C530.9,326.5,524.9,329.7,518.5,329.7z M500.5,307.3c-1.2,7.1,1.8,14.2,7.8,18.2c3,2,6.5,3.1,10.1,3.1
			c6.1,0,11.8-3,15.1-8.1c5.6-8.3,3.3-19.7-5-25.2c-3-2-6.5-3.1-10.1-3.1c-3.4,0-6.8,1-9.7,2.8l2,4c2.2-1.5,4.9-2.3,7.7-2.3
			c2.7,0,5.3,0.8,7.6,2.3c3.1,2,5.1,5.1,5.8,8.7c0.7,3.6,0,7.3-2,10.3c-2.5,3.8-6.8,6.1-11.4,6.1l0,0c-2.7,0-5.3-0.8-7.6-2.3
			c-4.7-3.1-6.9-8.8-5.8-14.2L500.5,307.3z"/>
	</g>
	<g>
		<path class="st3" d="M521.7,286.8l0.1,1.2c-2.4,0.4-5-0.6-6.4-2.8c-1.9-2.9-1-6.8,1.9-8.7c2.9-1.9,6.8-1,8.7,1.9
			c1.4,2.2,1.3,5-0.1,7l-1-0.5c1.2-1.7,1.4-4,0.2-5.8c-1.5-2.4-4.7-3.1-7.1-1.6c-2.4,1.5-3.1,4.7-1.6,7.1
			C517.5,286.4,519.7,287.2,521.7,286.8z"/>
	</g>
	<g>
		<path class="st4" d="M509.2,286.5l-0.3-0.3c0.7-0.6,1.7-0.9,2.6-0.5c1.2,0.5,1.8,1.9,1.3,3.1c-0.5,1.2-1.9,1.8-3.1,1.3
			c-0.9-0.4-1.5-1.3-1.5-2.2l0.4-0.1c0,0.8,0.4,1.5,1.2,1.8c1,0.4,2.1-0.1,2.5-1c0.4-1-0.1-2.1-1-2.5
			C510.6,285.7,509.7,285.9,509.2,286.5z"/>
	</g>
	<g>
		<path class="st1" d="M529.2,286.5l-0.3-0.3c0.7-0.6,1.7-0.9,2.6-0.5c1.2,0.5,1.8,1.9,1.3,3.1c-0.5,1.2-1.9,1.8-3.1,1.3
			c-0.9-0.4-1.5-1.3-1.5-2.2l0.4-0.1c0,0.8,0.4,1.5,1.2,1.8c1,0.4,2.1-0.1,2.5-1c0.4-1-0.1-2.1-1-2.5
			C530.6,285.7,529.8,285.9,529.2,286.5z"/>
	</g>
	<g>
		<path class="st5" d="M534.8,257.5l-1-2.3c4.6-2.6,10.5-2.4,14.9,1.1c5.9,4.6,7,13,2.4,18.9c-4.6,5.9-13,7-18.9,2.4
			c-4.4-3.4-6.2-9.1-4.8-14.2l2.5,0.3c-1.3,4.3,0.1,9,3.8,11.9c4.8,3.7,11.7,2.8,15.5-2c3.7-4.8,2.8-11.7-2-15.5
			C543.5,255.3,538.6,255.2,534.8,257.5z"/>
	</g>
	<g>
		<path class="st6" d="M545.1,296.7l0.1,1.2c-2.4,0.4-5-0.6-6.4-2.8c-1.9-2.9-1-6.8,1.9-8.7c2.9-1.9,6.8-1,8.7,1.9
			c1.4,2.2,1.3,5-0.1,7l-1-0.5c1.2-1.7,1.4-4,0.2-5.8c-1.5-2.4-4.7-3.1-7.1-1.6c-2.4,1.5-3.1,4.7-1.6,7.1
			C540.9,296.3,543.1,297.1,545.1,296.7z"/>
	</g>
	<g>
		<path class="st7" d="M541.2,302.5l-0.3-0.3c0.7-0.6,1.7-0.9,2.6-0.5c1.2,0.5,1.8,1.9,1.3,3.1c-0.5,1.2-1.9,1.8-3.1,1.3
			c-0.9-0.4-1.5-1.3-1.4-2.2l0.4-0.1c0,0.8,0.4,1.5,1.2,1.8c1,0.4,2.1,0,2.5-1c0.4-1-0.1-2.1-1-2.5
			C542.6,301.7,541.7,301.9,541.2,302.5z"/>
		<path class="st8" d="M542.6,306.5c-0.3,0-0.7-0.1-1-0.2c-1-0.4-1.6-1.4-1.6-2.4v-0.2l1-0.1l0,0.3c0,0.7,0.4,1.3,1,1.6
			c0.8,0.3,1.8-0.1,2.2-0.9c0.2-0.4,0.2-0.9,0-1.3c-0.2-0.4-0.5-0.7-0.9-0.9c-0.6-0.3-1.4-0.1-1.8,0.4l-0.2,0.2l-0.6-0.8l0.2-0.2
			c0.7-0.7,1.9-1,2.9-0.6c1.3,0.6,2,2.1,1.4,3.5C544.6,305.8,543.7,306.5,542.6,306.5z"/>
	</g>
	<g>
		<path class="st3" d="M558.1,294.2l-2.7,1.2c-1.9-3.3-1.8-7.6,0.6-10.8c3.2-4.3,9.4-5.2,13.7-1.9c4.3,3.2,5.2,9.4,1.9,13.7
			c-2.4,3.3-6.5,4.5-10.2,3.6l0.3-2.9c2.7,0.9,5.8,0,7.6-2.4c2.3-3,1.7-7.3-1.4-9.6c-3-2.3-7.3-1.7-9.6,1.4
			C556.6,288.7,556.6,291.8,558.1,294.2z"/>
	</g>
	<g>
		<path class="st3" d="M556,274.5l-0.7-0.6c0.7-1,1.9-1.5,3.2-1.3c1.7,0.4,2.8,2,2.4,3.7c-0.4,1.7-2,2.8-3.7,2.4
			c-1.3-0.3-2.2-1.3-2.4-2.5l0.9-0.3c0.1,0.9,0.8,1.7,1.7,1.9c1.2,0.2,2.3-0.5,2.6-1.7c0.3-1.2-0.5-2.3-1.7-2.6
			C557.4,273.3,556.5,273.8,556,274.5z"/>
	</g>
	<g>
		<path class="st8" d="M538.8,243.3l-0.5-0.3c0.3-0.7,0.9-1.3,1.8-1.4c1.1-0.1,2.1,0.8,2.2,1.9c0.1,1.1-0.8,2.1-1.9,2.2
			c-0.8,0.1-1.6-0.4-2-1.1l0.5-0.3c0.2,0.5,0.8,0.9,1.4,0.9c0.8-0.1,1.4-0.7,1.3-1.5c-0.1-0.8-0.7-1.4-1.5-1.3
			C539.5,242.3,539,242.8,538.8,243.3z"/>
	</g>
	<g>
		<path class="st9" d="M550.8,239l-0.9-0.7c1.2-2.1,3.7-3.4,6.2-3c3.4,0.5,5.8,3.6,5.3,7.1c-0.5,3.4-3.6,5.8-7,5.3
			c-2.6-0.4-4.6-2.2-5.2-4.6l1.1-0.4c0.5,2,2.1,3.6,4.3,3.9c2.8,0.4,5.4-1.6,5.8-4.3c0.4-2.8-1.5-5.4-4.3-5.8
			C553.8,236.2,551.8,237.2,550.8,239z"/>
	</g>
	<g>
		<path class="st10" d="M556.4,254.2l-0.6-0.5c0.8-1.4,2.4-2.2,4.1-1.9c2.2,0.3,3.8,2.4,3.5,4.6c-0.3,2.2-2.4,3.8-4.6,3.5
			c-1.7-0.2-3-1.5-3.4-3l0.7-0.3c0.3,1.3,1.4,2.3,2.8,2.5c1.8,0.3,3.5-1,3.7-2.8c0.2-1.8-1-3.5-2.8-3.8
			C558.4,252.3,557.1,253,556.4,254.2z"/>
	</g>
	<g>
		<path class="st10" d="M561.5,265.1l-0.9-0.5c0.4-1.2,1.6-2.1,3-2.2c1.9-0.1,3.4,1.3,3.5,3.2c0.1,1.8-1.3,3.4-3.2,3.5
			c-1.4,0.1-2.6-0.7-3.2-1.9l0.9-0.6c0.4,0.9,1.3,1.5,2.3,1.5c1.3-0.1,2.3-1.2,2.2-2.5c-0.1-1.3-1.2-2.3-2.5-2.2
			C562.6,263.5,561.8,264.2,561.5,265.1z"/>
	</g>
	<g>
		<path class="st9" d="M569.6,272.6l-1.3-0.7c0.6-1.8,2.3-3.1,4.3-3.2c2.7-0.1,4.9,1.9,5,4.6c0.1,2.7-1.9,4.9-4.6,5
			c-2,0.1-3.8-1-4.6-2.8l1.2-0.8c0.5,1.3,1.8,2.2,3.3,2.1c1.9-0.1,3.3-1.7,3.2-3.5c-0.1-1.9-1.7-3.3-3.5-3.2
			C571.2,270.3,570,271.3,569.6,272.6z"/>
	</g>
	<g>
		<path class="st5" d="M575,281.9l-0.6-0.3c0.3-0.8,1.1-1.5,2.1-1.5c1.3-0.1,2.3,0.9,2.4,2.2c0.1,1.3-0.9,2.3-2.2,2.4
			c-1,0-1.8-0.5-2.2-1.3l0.6-0.4c0.2,0.6,0.9,1,1.6,1c0.9,0,1.6-0.8,1.5-1.7c0-0.9-0.8-1.6-1.7-1.5
			C575.7,280.8,575.2,281.3,575,281.9z"/>
	</g>
	<g>
		<path class="st8" d="M559.6,306l-0.6-1.4c1.7-1,3.8-1,5.5,0.2c2.2,1.6,2.7,4.7,1.2,6.9c-1.6,2.2-4.7,2.7-6.9,1.2
			c-1.7-1.2-2.4-3.3-2-5.2l1.5,0.1c-0.4,1.4,0.1,2.9,1.3,3.8c1.6,1.1,3.7,0.8,4.9-0.8c1.1-1.6,0.8-3.7-0.8-4.9
			C562.4,305.2,560.8,305.2,559.6,306z"/>
	</g>
	<g>
		<path class="st9" d="M551.1,301.9l-0.2-0.9c1.1-0.4,2.4-0.2,3.3,0.7c1.2,1.2,1.1,3.2-0.1,4.3c-1.2,1.2-3.2,1.1-4.3-0.1
			c-0.9-0.9-1.1-2.2-0.6-3.3l0.9,0.3c-0.4,0.8-0.3,1.8,0.4,2.5c0.8,0.9,2.2,0.9,3,0.1c0.9-0.8,0.9-2.2,0.1-3
			C552.8,301.7,551.9,301.6,551.1,301.9z"/>
	</g>
	<g>
		<path class="st10" d="M548,321.8l-0.1,2.2c-2.8,0.2-5.6-1.2-7-3.8c-1.8-3.5-0.5-7.9,3-9.7c3.5-1.9,7.9-0.5,9.7,3
			c1.4,2.7,1,5.8-0.8,8l-1.8-1.2c1.4-1.5,1.8-3.9,0.8-5.8c-1.3-2.5-4.4-3.4-6.8-2.1c-2.5,1.3-3.4,4.4-2.1,6.8
			C543.8,321.1,546,322.1,548,321.8z"/>
	</g>
	<g>
		<path class="st4" d="M558.2,326l-0.5-0.5c0.6-0.7,1.6-1,2.5-0.7c1.2,0.4,1.9,1.7,1.5,2.9c-0.4,1.2-1.7,1.9-3,1.5
			c-0.9-0.3-1.6-1.1-1.6-2l0.7-0.2c0,0.7,0.5,1.3,1.2,1.5c0.9,0.3,1.8-0.2,2.1-1.1c0.3-0.9-0.2-1.8-1.1-2.1
			C559.4,325.2,558.6,325.5,558.2,326z"/>
	</g>
	<g>
		<path class="st8" d="M500.6,329l-0.5-1c1.2-0.8,2.9-0.8,4.2,0.1c1.7,1.2,2.1,3.5,0.9,5.2c-1.2,1.7-3.5,2.1-5.2,0.9
			c-1.3-0.9-1.8-2.5-1.5-3.9l1.1,0.1c-0.3,1,0.1,2.2,1,2.9c1.2,0.8,2.8,0.6,3.7-0.6c0.8-1.2,0.6-2.8-0.6-3.7
			C502.7,328.3,501.5,328.4,500.6,329z"/>
	</g>
	<g>
		<path class="st6" d="M500.2,339.6l-0.7-0.5c0.5-0.9,1.5-1.5,2.7-1.4c1.5,0.2,2.6,1.5,2.4,3c-0.2,1.5-1.5,2.6-3,2.4
			c-1.1-0.1-2-0.9-2.3-1.9l0.7-0.3c0.2,0.8,0.8,1.4,1.6,1.5c1,0.1,2-0.6,2.1-1.7c0.1-1-0.6-2-1.7-2.1
			C501.3,338.4,500.6,338.8,500.2,339.6z"/>
	</g>
	<g>
		<path class="st11" d="M511.7,336.8l-1.5-0.9c0.9-2.1,2.9-3.5,5.3-3.5c3.2,0,5.7,2.6,5.7,5.8c0,3.2-2.6,5.7-5.8,5.7
			c-2.4,0-4.4-1.5-5.2-3.6l1.5-0.8c0.5,1.6,2,2.7,3.8,2.7c2.2,0,4-1.8,4.1-4c0-2.2-1.8-4-4-4.1C513.7,334.2,512.2,335.3,511.7,336.8
			z"/>
	</g>
	<g>
		<path class="st8" d="M514.7,358.7l2.2,1.7c-1.9,3.1-5.5,4.9-9.3,4.4c-5.1-0.8-8.6-5.5-7.8-10.6c0.8-5.1,5.5-8.6,10.6-7.8
			c3.8,0.6,6.8,3.4,7.6,6.9l-2.6,1c-0.5-2.7-2.6-4.8-5.4-5.2c-3.6-0.5-6.9,1.9-7.4,5.5c-0.5,3.6,1.9,6.9,5.5,7.4
			C510.8,362.5,513.4,361,514.7,358.7z"/>
	</g>
	<g>
		<g>
			<path class="st12" d="M544.5,358.3l-0.3,5.5c-7.1,0.5-14.2-3.3-17.5-10.1c-4.5-9-0.8-20,8.2-24.5c9-4.5,20-0.8,24.5,8.2
				c3.4,6.8,2.1,14.7-2.6,20.1l-4.6-3c3.7-3.8,4.8-9.7,2.3-14.7c-3.1-6.3-10.9-8.9-17.2-5.8c-6.3,3.2-8.9,10.9-5.8,17.2
				C533.9,356.3,539.2,359,544.5,358.3z"/>
			<path class="st7" d="M543,364c-7.1,0-13.4-3.9-16.5-10.2c-4.5-9.1-0.8-20.2,8.3-24.7c2.6-1.3,5.3-1.9,8.2-1.9
				c7.1,0,13.4,3.9,16.5,10.2c3.3,6.7,2.3,14.7-2.6,20.3l-0.1,0.1l-0.1-0.1l-4.8-3.1l0.1-0.1c3.8-3.8,4.7-9.7,2.3-14.5
				c-2.2-4.3-6.5-7-11.4-7c-2,0-3.9,0.4-5.6,1.3c-6.3,3.1-8.8,10.7-5.7,17c2.2,4.3,6.5,7,11.3,7l0,0c0.5,0,1,0,1.5-0.1l0.2,0
				l-0.4,5.8l-0.1,0C543.8,364,543.4,364,543,364z M542.9,327.5c-2.8,0-5.5,0.6-8,1.9c-8.9,4.4-12.6,15.3-8.2,24.3
				c3.1,6.2,9.3,10.1,16.2,10.1c0.3,0,0.7,0,1,0l0.3-5.1c-0.4,0-0.9,0.1-1.3,0.1c0,0,0,0,0,0c-5,0-9.4-2.8-11.6-7.2
				c-3.2-6.4-0.5-14.2,5.9-17.4c1.8-0.9,3.8-1.4,5.8-1.4c5,0,9.4,2.8,11.7,7.2c2.4,4.9,1.5,10.8-2.2,14.7l4.3,2.8
				c4.7-5.5,5.7-13.3,2.5-19.8C556.1,331.3,549.9,327.5,542.9,327.5z"/>
		</g>
		<g>
			<path class="st12" d="M543,364.7c-7.3,0-13.8-4.1-17.1-10.6c-4.7-9.4-0.8-20.9,8.6-25.5c2.7-1.3,5.5-2,8.5-2
				c7.3,0,13.8,4.1,17.1,10.6c3.4,6.9,2.4,15.2-2.7,21l-0.4,0.5l-6-3.9l0.7-0.7c3.6-3.7,4.5-9.2,2.2-13.8c-2-4.1-6.2-6.7-10.8-6.7
				c-1.9,0-3.7,0.4-5.3,1.3c-5.9,3-8.4,10.2-5.4,16.1c2.1,4.1,6.2,6.7,10.8,6.7l0,0c0.5,0,0.9,0,1.4-0.1l0.9-0.1l-0.4,7.1l-0.7,0
				C543.8,364.6,543.4,364.7,543,364.7z M542.9,328.1c-2.7,0-5.3,0.6-7.8,1.8c-8.6,4.3-12.2,14.8-7.9,23.4c3,6.1,9.3,9.9,16.1,9.7
				l0.2-3.9c-0.2,0-0.4,0-0.7,0l0,0c-5.2,0-9.9-2.9-12.2-7.6c-3.3-6.7-0.6-14.9,6.1-18.2c1.9-0.9,3.9-1.4,6-1.4
				c5.2,0,9.9,2.9,12.2,7.6c2.4,4.9,1.7,10.7-1.8,14.9l3.2,2.1c4.3-5.3,5.1-12.6,2-18.7C555.6,331.8,549.6,328.1,542.9,328.1z"/>
			<path class="st7" d="M543,364.8c-7.4,0-13.9-4.1-17.2-10.7c-4.7-9.5-0.8-21,8.7-25.8c2.7-1.3,5.6-2,8.5-2c7.4,0,14,4.1,17.2,10.7
				c3.5,7,2.4,15.3-2.7,21.2l-0.5,0.6l-0.1-0.1l-6.1-4l0.8-0.8c3.5-3.6,4.4-9.1,2.1-13.6c-2-4.1-6.1-6.6-10.7-6.6
				c-1.8,0-3.6,0.4-5.3,1.2c-2.8,1.4-5,3.8-6,6.9c-1,3-0.8,6.2,0.6,9.1c2,4.1,6.1,6.6,10.6,6.6c0.5,0,0.9,0,1.4-0.1l1.1-0.1
				l-0.4,7.5l-0.8,0C543.8,364.8,543.4,364.8,543,364.8z M542.9,326.7c-2.9,0-5.7,0.7-8.4,2c-9.3,4.6-13.2,16-8.5,25.3
				c3.2,6.5,9.7,10.5,16.9,10.5c0.4,0,0.8,0,1.2,0l0.5,0l0.4-6.8l-0.7,0.1c-0.5,0.1-1,0.1-1.4,0.1c-4.7,0-8.9-2.6-10.9-6.8
				c-1.4-2.9-1.7-6.2-0.6-9.3c1-3.1,3.2-5.6,6.1-7c1.7-0.8,3.5-1.3,5.4-1.3c4.7,0,8.9,2.6,11,6.8c2.3,4.6,1.4,10.3-2.2,14l-0.5,0.5
				l5.7,3.7l0.4-0.4c5-5.8,6.1-13.9,2.7-20.8C556.7,330.7,550.2,326.7,542.9,326.7z M542.8,363.2c-6.7,0-12.7-3.8-15.7-9.8
				c-4.3-8.7-0.7-19.3,8-23.7c2.5-1.2,5.1-1.8,7.8-1.8c6.8,0,12.8,3.8,15.8,9.8c3.1,6.2,2.2,13.6-2.1,18.9l-0.1,0.1l-3.5-2.3
				l0.1-0.1c3.5-4.1,4.2-9.9,1.8-14.7c-2.3-4.6-6.9-7.5-12.1-7.5c-2.1,0-4.1,0.5-6,1.4c-6.6,3.3-9.4,11.4-6.1,18
				c2.3,4.6,6.9,7.5,12,7.5c0.2,0,0.4,0,0.7,0l0.2,0l-0.2,4.2l-0.2,0C543.2,363.2,543,363.2,542.8,363.2z M542.9,328.3
				c-2.7,0-5.3,0.6-7.7,1.8c-8.5,4.2-12.1,14.7-7.8,23.2c2.9,5.9,8.8,9.6,15.4,9.6c0.1,0,0.3,0,0.4,0l0.2-3.6c-0.2,0-0.3,0-0.5,0
				c-5.3,0-10-2.9-12.3-7.7c-3.4-6.8-0.6-15.1,6.2-18.5c1.9-1,4-1.4,6.1-1.4c5.3,0,10,2.9,12.3,7.7c2.4,4.9,1.8,10.7-1.7,14.9l3,2
				c4.1-5.2,4.9-12.5,1.9-18.4C555.5,332,549.6,328.3,542.9,328.3z"/>
		</g>
	</g>
	<g>
		<path class="st8" d="M629.5,472.5l-0.5-1.1c1.4-0.8,3.2-0.8,4.5,0.1c1.8,1.3,2.3,3.9,1,5.7c-1.3,1.8-3.9,2.3-5.7,1
			c-1.4-1-2-2.7-1.6-4.3l1.2,0.1c-0.3,1.1,0.1,2.4,1.1,3.1c1.3,0.9,3.1,0.6,4-0.7c0.9-1.3,0.6-3.1-0.7-4
			C631.8,471.8,630.5,471.8,629.5,472.5z"/>
	</g>
	<g>
		<path class="st6" d="M559.5,224.3l-0.8-0.4c0.3-1.1,1.3-1.9,2.5-2c1.6-0.1,3.1,1,3.2,2.7c0.2,1.6-1,3.1-2.7,3.2
			c-1.2,0.1-2.3-0.5-2.9-1.6l0.7-0.5c0.4,0.8,1.2,1.3,2.1,1.2c1.1-0.1,2-1.1,1.9-2.3c-0.1-1.1-1.1-2-2.3-1.9
			C560.5,222.9,559.8,223.5,559.5,224.3z"/>
	</g>
	<g>
		<path class="st9" d="M521,358.6l-0.6-0.6c0.7-0.9,1.9-1.3,3.1-1c1.5,0.4,2.4,2.1,2,3.6c-0.5,1.5-2.1,2.4-3.6,2
			c-1.2-0.3-2-1.4-2.1-2.5l0.9-0.2c0,0.8,0.6,1.6,1.5,1.9c1.1,0.3,2.2-0.3,2.5-1.4c0.3-1.1-0.3-2.2-1.4-2.5
			C522.4,357.6,521.5,357.9,521,358.6z"/>
	</g>
	<g>
		<path class="st10" d="M517.9,368.1l-0.7-0.3c0.3-1,1.2-1.7,2.3-1.8c1.5-0.1,2.7,0.9,2.9,2.4c0.1,1.5-0.9,2.7-2.4,2.9
			c-1.1,0.1-2.1-0.5-2.6-1.4l0.7-0.5c0.3,0.7,1.1,1.2,1.9,1.1c1-0.1,1.8-1,1.7-2c-0.1-1-1-1.8-2-1.7
			C518.8,366.8,518.1,367.4,517.9,368.1z"/>
	</g>
	<g>
		<path class="st9" d="M500.3,367.1l-0.6-0.6c0.7-0.9,1.9-1.3,3.1-1c1.5,0.4,2.4,2.1,2,3.6c-0.5,1.5-2.1,2.4-3.6,2
			c-1.2-0.3-2-1.3-2.1-2.5l0.9-0.2c0,0.8,0.6,1.6,1.5,1.9c1.1,0.3,2.2-0.3,2.5-1.4c0.3-1.1-0.3-2.2-1.4-2.5
			C501.6,366.1,500.8,366.4,500.3,367.1z"/>
	</g>
	<g>
		<path class="st3" d="M506.9,372.7l-1.4-0.7c0.7-1.9,2.5-3.3,4.6-3.4c2.9-0.1,5.3,2.1,5.5,4.9c0.1,2.9-2.1,5.3-4.9,5.5
			c-2.2,0.1-4.1-1.1-5-3l1.3-0.9c0.6,1.4,2,2.4,3.6,2.3c2-0.1,3.6-1.8,3.5-3.8c-0.1-2-1.8-3.6-3.8-3.5
			C508.7,370.2,507.4,371.3,506.9,372.7z"/>
	</g>
	<g>
		<path class="st3" d="M526.1,368.8l-1.4-0.7c0.7-1.9,2.5-3.3,4.6-3.4c2.9-0.1,5.3,2.1,5.4,4.9c0.1,2.9-2.1,5.3-4.9,5.5
			c-2.2,0.1-4.1-1.1-5-3l1.3-0.9c0.6,1.4,2,2.3,3.6,2.3c2-0.1,3.6-1.8,3.5-3.8c-0.1-2-1.8-3.6-3.8-3.5
			C527.8,366.2,526.5,367.3,526.1,368.8z"/>
	</g>
	<g>
		<path class="st6" d="M519.5,391.8l-1.8,2c-2.9-2-4.5-5.7-3.7-9.5c1.1-4.9,5.9-8.1,10.9-7c4.9,1.1,8.1,5.9,7,10.9
			c-0.8,3.7-3.8,6.4-7.3,7.1l-0.9-2.6c2.6-0.3,4.9-2.3,5.5-5c0.7-3.5-1.5-6.9-4.9-7.6c-3.5-0.7-6.9,1.5-7.6,4.9
			C516,387.7,517.3,390.4,519.5,391.8z"/>
	</g>
	<g>
		<path class="st3" d="M534.6,378.5l-0.6-0.3c0.3-0.8,1.1-1.5,2.1-1.5c1.3-0.1,2.4,0.9,2.4,2.2c0.1,1.3-0.9,2.4-2.2,2.4
			c-1,0-1.8-0.5-2.2-1.3l0.6-0.4c0.3,0.6,0.9,1,1.6,1c0.9,0,1.6-0.8,1.5-1.7c0-0.9-0.8-1.6-1.7-1.5
			C535.4,377.4,534.8,377.9,534.6,378.5z"/>
	</g>
	<g>
		<path class="st1" d="M548.3,378.7l0.1,2.2c-2.8,0.5-5.7-0.7-7.3-3.2c-2.1-3.3-1.2-7.8,2.2-9.9c3.3-2.1,7.8-1.2,9.9,2.2
			c1.6,2.5,1.5,5.7-0.2,8l-1.9-1c1.3-1.6,1.5-4,0.3-5.8c-1.5-2.3-4.6-3-7-1.5c-2.3,1.5-3,4.6-1.5,7
			C544.1,378.3,546.3,379.2,548.3,378.7z"/>
	</g>
	<g>
		<path class="st13" d="M555.4,382.2l-1.5-0.9c1-2.1,3.2-3.6,5.7-3.5c3.3,0.1,5.9,2.9,5.7,6.2c-0.1,3.3-2.9,5.9-6.2,5.7
			c-2.5-0.1-4.6-1.7-5.4-3.9l1.6-0.8c0.5,1.7,2,2.9,3.9,3c2.3,0.1,4.3-1.7,4.4-4c0.1-2.3-1.7-4.3-4-4.4
			C557.7,379.5,556.1,380.6,555.4,382.2z"/>
	</g>
	<g>
		<path class="st9" d="M557.5,363.1l-0.8-0.8c0.9-1.1,2.4-1.6,3.8-1.2c1.9,0.6,3,2.5,2.4,4.4c-0.6,1.9-2.5,3-4.4,2.4
			c-1.4-0.4-2.4-1.6-2.6-3l1-0.3c0.1,1,0.8,2,1.8,2.3c1.3,0.4,2.7-0.4,3.1-1.7c0.4-1.3-0.4-2.7-1.7-3.1
			C559.1,361.9,558.1,362.3,557.5,363.1z"/>
	</g>
	<g>
		<path class="st8" d="M560.9,372.4l-0.7-0.4c0.5-0.9,1.4-1.6,2.6-1.5c1.5,0.1,2.6,1.3,2.5,2.8c-0.1,1.5-1.3,2.6-2.8,2.5
			c-1.1-0.1-2-0.8-2.4-1.8l0.7-0.4c0.2,0.7,0.9,1.3,1.7,1.4c1,0.1,1.9-0.7,2-1.8c0.1-1-0.7-1.9-1.8-2
			C561.9,371.2,561.2,371.7,560.9,372.4z"/>
	</g>
	<g>
		<path class="st6" d="M569.9,381.6l-0.4-0.7c0.8-0.7,2.1-0.8,3.1-0.2c1.3,0.8,1.8,2.4,1,3.8c-0.8,1.3-2.4,1.8-3.8,1
			c-1-0.6-1.5-1.7-1.4-2.7l0.8,0c-0.1,0.8,0.2,1.6,0.9,2c0.9,0.5,2.1,0.2,2.6-0.7c0.5-0.9,0.2-2.1-0.7-2.6
			C571.4,380.9,570.5,381,569.9,381.6z"/>
	</g>
	<g>
		<path class="st1" d="M575,397.8l3.1-0.8c1.6,3.9,0.8,8.6-2.4,11.7c-4.2,4.2-11.1,4.2-15.3-0.1c-4.2-4.2-4.2-11.1,0.1-15.3
			c3.2-3.2,7.9-3.9,11.8-2.3l-0.9,3.1c-2.8-1.4-6.3-0.9-8.7,1.4c-3,2.9-3,7.7-0.1,10.7c2.9,3,7.7,3,10.7,0.1
			C575.8,404.1,576.3,400.6,575,397.8z"/>
	</g>
	<g>
		<path class="st13" d="M543,390.8l-0.9-0.5c0.6-1.2,1.8-2,3.2-2c1.9,0.1,3.4,1.7,3.3,3.6c-0.1,1.9-1.7,3.4-3.6,3.3
			c-1.4-0.1-2.6-1-3.1-2.2l0.9-0.5c0.3,1,1.2,1.7,2.2,1.7c1.3,0,2.5-1,2.5-2.3c0-1.3-1-2.4-2.3-2.5
			C544.3,389.3,543.4,389.9,543,390.8z"/>
	</g>
	<g>
		<path class="st9" d="M521.5,404.3l-1.5-1c1-2.1,3.2-3.5,5.7-3.5c3.3,0.1,5.9,2.9,5.7,6.2c-0.1,3.3-2.9,5.9-6.2,5.7
			c-2.5-0.1-4.6-1.7-5.4-3.9l1.6-0.8c0.5,1.7,2,2.9,3.9,3c2.3,0.1,4.3-1.7,4.4-4c0.1-2.3-1.7-4.3-4-4.4
			C523.8,401.6,522.2,402.7,521.5,404.3z"/>
	</g>
	<g>
		<path class="st10" d="M546.6,428.9l-0.2,4.1c-5.2,0.4-10.5-2.2-13.1-7.2c-3.4-6.6-0.9-14.7,5.7-18.2c6.6-3.5,14.7-0.9,18.2,5.7
			c2.6,5,1.8,10.8-1.6,14.9l-3.4-2.2c2.7-2.9,3.4-7.2,1.5-10.8c-2.4-4.6-8.1-6.4-12.8-4c-4.6,2.4-6.4,8.1-4,12.8
			C538.9,427.6,542.8,429.5,546.6,428.9z"/>
	</g>
	<g>
		<path class="st10" d="M558,444.8L558,447c-2.7,0.2-5.5-1.2-6.8-3.7c-1.8-3.4-0.5-7.7,3-9.5c3.4-1.8,7.7-0.5,9.5,3
			c1.4,2.6,0.9,5.6-0.8,7.8l-1.8-1.1c1.4-1.5,1.8-3.8,0.8-5.7c-1.3-2.4-4.3-3.4-6.7-2.1c-2.4,1.3-3.4,4.3-2.1,6.7
			C554,444.1,556,445.1,558,444.8z"/>
	</g>
	<g>
		<path class="st1" d="M556.9,452.2l-0.7-0.5c0.5-1,1.5-1.7,2.8-1.6c1.6,0.1,2.8,1.4,2.8,3c-0.1,1.6-1.4,2.8-3,2.8
			c-1.2-0.1-2.2-0.8-2.6-1.9l0.8-0.4c0.2,0.8,1,1.4,1.8,1.4c1.1,0.1,2.1-0.8,2.1-1.9c0.1-1.1-0.8-2.1-1.9-2.1
			C558,450.9,557.2,451.5,556.9,452.2z"/>
	</g>
	<g>
		<path class="st13" d="M602,424.3l0.5,2.1c-2.7,1-5.8,0.4-7.9-1.8c-2.8-2.9-2.6-7.5,0.3-10.3c2.9-2.8,7.5-2.6,10.3,0.3
			c2.1,2.2,2.5,5.4,1.4,8l-2.1-0.6c1-1.9,0.7-4.2-0.8-5.9c-1.9-2-5.2-2.1-7.2-0.2c-2,1.9-2.1,5.2-0.2,7.2
			C597.8,424.7,600.1,425.1,602,424.3z"/>
	</g>
	<g>
		<path class="st9" d="M582.8,406.1l-1.5-1c1-2.1,3.2-3.5,5.7-3.5c3.3,0.1,5.9,2.9,5.8,6.2c-0.1,3.3-2.9,5.9-6.2,5.7
			c-2.5-0.1-4.6-1.7-5.4-3.9l1.6-0.9c0.5,1.7,2,2.9,3.9,3c2.3,0.1,4.3-1.7,4.4-4c0.1-2.3-1.7-4.3-4-4.4
			C585,403.4,583.4,404.5,582.8,406.1z"/>
	</g>
	<g>
		<path class="st3" d="M568.2,431.3l-2.5,1.6c-2.5-2.9-3.1-7.1-1.2-10.8c2.5-4.8,8.3-6.7,13.2-4.3c4.8,2.5,6.7,8.3,4.3,13.2
			c-1.9,3.6-5.7,5.6-9.5,5.3l-0.2-2.9c2.8,0.4,5.7-1,7-3.7c1.7-3.4,0.4-7.5-3-9.2c-3.4-1.7-7.5-0.4-9.2,3
			C565.7,426.1,566.2,429.3,568.2,431.3z"/>
	</g>
	<g>
		<path class="st13" d="M587.2,433.7l-1.3-1c1.1-1.8,3.2-2.9,5.4-2.5c2.9,0.4,5,3.2,4.5,6.1c-0.4,2.9-3.2,5-6.1,4.5
			c-2.2-0.3-3.9-2-4.4-4l1.5-0.6c0.3,1.5,1.5,2.8,3.2,3c2.1,0.3,4-1.1,4.3-3.2c0.3-2.1-1.1-4-3.2-4.3
			C589.5,431.5,588,432.4,587.2,433.7z"/>
	</g>
	<g>
		<path class="st9" d="M608.7,431.9l-2.4-4.6c5.6-3.9,13.2-4.2,19.2-0.3c8.1,5.2,10.4,15.9,5.3,24c-5.2,8.1-15.9,10.4-24,5.3
			c-6.1-3.9-8.9-11-7.7-17.7l5.2,0.2c-1.2,4.9,0.8,10.2,5.3,13.1c5.7,3.6,13.2,2,16.8-3.7c3.6-5.7,2-13.2-3.7-16.8
			C618.3,428.5,612.7,428.9,608.7,431.9z"/>
	</g>
	<g>
		<path class="st10" d="M586.6,466.9l-1.8-0.7c0.6-2.5,2.6-4.5,5.2-4.9c3.5-0.6,6.9,1.8,7.5,5.3c0.6,3.5-1.8,6.9-5.3,7.5
			c-2.7,0.5-5.2-0.8-6.6-2.9l1.5-1.3c0.9,1.6,2.8,2.6,4.8,2.3c2.5-0.4,4.2-2.8,3.7-5.2c-0.4-2.5-2.8-4.2-5.2-3.7
			C588.4,463.6,586.9,465.1,586.6,466.9z"/>
	</g>
	<g>
		<path class="st13" d="M580.2,459l0.7,2.7c-3.4,1.3-7.4,0.5-10.1-2.3c-3.6-3.8-3.4-9.7,0.4-13.2c3.8-3.6,9.7-3.4,13.2,0.3
			c2.7,2.8,3.2,6.9,1.8,10.3l-2.7-0.8c1.2-2.4,0.9-5.4-1.1-7.5c-2.5-2.6-6.7-2.7-9.3-0.2c-2.6,2.5-2.7,6.7-0.2,9.3
			C574.7,459.6,577.7,460.1,580.2,459z"/>
	</g>
	<g>
		<path class="st6" d="M593.6,452.2l-0.4-0.7c0.9-0.7,2.1-0.8,3.1-0.2c1.3,0.8,1.8,2.4,1,3.8c-0.8,1.3-2.4,1.8-3.8,1
			c-1-0.6-1.5-1.7-1.4-2.7l0.8,0c-0.1,0.8,0.2,1.6,1,2c0.9,0.5,2.1,0.2,2.6-0.7c0.5-0.9,0.2-2.1-0.7-2.7
			C595,451.6,594.2,451.7,593.6,452.2z"/>
	</g>
	<g>
		<path class="st6" d="M601.7,471.6l-1.2-0.8c0.8-1.7,2.6-2.7,4.5-2.6c2.6,0.2,4.6,2.4,4.4,5c-0.2,2.6-2.4,4.6-5,4.4
			c-2-0.1-3.6-1.4-4.2-3.2l1.3-0.6c0.4,1.3,1.5,2.3,3,2.4c1.8,0.1,3.4-1.3,3.5-3.1c0.1-1.8-1.3-3.4-3.1-3.5
			C603.5,469.5,602.3,470.3,601.7,471.6z"/>
	</g>
	<g>
		<path class="st10" d="M601.8,461.4l-0.8-0.3c0.3-1.1,1.2-2,2.4-2.2c1.6-0.3,3.1,0.8,3.4,2.4c0.3,1.6-0.8,3.1-2.4,3.4
			c-1.2,0.2-2.4-0.4-3-1.3l0.7-0.6c0.4,0.7,1.3,1.2,2.2,1c1.1-0.2,1.9-1.3,1.7-2.4c-0.2-1.1-1.3-1.9-2.4-1.7
			C602.6,459.9,601.9,460.6,601.8,461.4z"/>
	</g>
	<g>
		<path class="st13" d="M615.1,475.5l-0.6-0.5c0.5-0.9,1.6-1.4,2.7-1.2c1.4,0.2,2.4,1.6,2.2,3c-0.2,1.4-1.6,2.4-3,2.2
			c-1.1-0.2-1.9-1-2.2-2l0.7-0.3c0.1,0.8,0.8,1.4,1.6,1.5c1,0.2,2-0.6,2.1-1.6c0.2-1-0.6-2-1.6-2.1
			C616.3,474.4,615.5,474.8,615.1,475.5z"/>
	</g>
	<g>
		<path class="st4" d="M613.4,465.8l-0.8-0.6c0.6-1.1,1.9-1.7,3.2-1.5c1.7,0.3,3,1.9,2.7,3.6c-0.3,1.7-1.9,3-3.6,2.7
			c-1.3-0.2-2.3-1.2-2.6-2.4l0.9-0.4c0.2,0.9,0.9,1.7,1.9,1.8c1.2,0.2,2.4-0.7,2.6-1.9c0.2-1.2-0.7-2.4-1.9-2.6
			C614.8,464.5,613.9,465,613.4,465.8z"/>
	</g>
	<g>
		<path class="st4" d="M636.1,452.7l-0.4-1c1.2-0.7,2.8-0.6,4,0.3c1.6,1.2,1.9,3.5,0.7,5.1c-1.2,1.6-3.5,1.9-5.1,0.6
			c-1.2-0.9-1.7-2.5-1.3-3.8l1.1,0.1c-0.3,1,0,2.2,0.9,2.8c1.1,0.9,2.7,0.7,3.6-0.5c0.9-1.1,0.7-2.7-0.5-3.6
			C638.2,452.1,637,452.1,636.1,452.7z"/>
	</g>
	<g>
		<path class="st4" d="M635.9,463.3l-0.6-0.3c0.3-0.8,1.1-1.4,2.1-1.4c1.3,0,2.3,1,2.3,2.2c0,1.3-1,2.3-2.2,2.3
			c-1,0-1.8-0.5-2.1-1.4l0.6-0.4c0.2,0.6,0.8,1.1,1.5,1c0.9,0,1.6-0.7,1.6-1.6c0-0.9-0.7-1.6-1.6-1.6
			C636.7,462.3,636.1,462.7,635.9,463.3z"/>
	</g>
	<g>
		<path class="st6" d="M575.9,237.7l-1.2-2.5c4.9-3.2,11.5-3.4,16.7,0.1c6.9,4.7,8.7,14,4,20.9c-4.7,6.9-14,8.7-20.9,4
			c-5.2-3.5-7.5-9.7-6.3-15.5l2.8,0.2c-1.1,4.8,0.7,10.1,5.1,13c5.6,3.8,13.3,2.3,17.1-3.3c3.8-5.6,2.3-13.3-3.3-17.1
			C585.4,234.6,579.9,234.8,575.9,237.7z"/>
		<path class="st6" d="M582.9,263.9c-3.2,0-6.3-1-9-2.8c-5.4-3.7-8.1-10.2-6.8-16.6l0.2-0.9l5,0.4l-0.3,1.3c-1,4.5,0.8,9.2,4.6,11.8
			c1.9,1.3,4,1.9,6.3,1.9c3.7,0,7.2-1.8,9.3-4.9c3.4-5.1,2.1-12.1-3-15.5c-3.8-2.5-8.9-2.5-12.7,0.1l-1.1,0.7l-2.2-4.5l0.8-0.5
			c5.3-3.5,12.6-3.5,17.9,0.1c7.4,5,9.3,15,4.3,22.4C593.3,261.2,588.2,263.9,582.9,263.9z M569.1,245.9c-0.7,5.2,1.6,10.4,6,13.4
			c2.3,1.6,5,2.4,7.8,2.4c4.6,0,9-2.3,11.6-6.1c4.3-6.4,2.6-15.1-3.7-19.4c-4.3-2.9-10.1-3.1-14.6-0.6l0.2,0.5
			c4.3-2.4,9.9-2.2,14.1,0.6c6.1,4.1,7.7,12.5,3.6,18.6c-2.5,3.7-6.6,5.9-11.1,5.9l0,0c-2.7,0-5.3-0.8-7.5-2.3
			c-4.2-2.8-6.4-7.9-5.8-12.9L569.1,245.9z"/>
	</g>
	<g>
		<path class="st1" d="M575,218.5l-0.9-1c1.5-1.8,4.1-2.7,6.5-2c3.2,1,5.1,4.4,4.1,7.6c-1,3.2-4.4,5.1-7.6,4.1
			c-2.4-0.7-4.1-2.9-4.3-5.3l1.3-0.3c0.1,1.9,1.4,3.7,3.4,4.3c2.5,0.8,5.2-0.7,6-3.2c0.8-2.5-0.7-5.2-3.2-6
			C578.2,216.3,576.2,217,575,218.5z"/>
	</g>
	<g>
		<path class="st9" d="M590.9,211.9l-1.1-1.2c1.8-2.1,4.7-3.1,7.5-2.3c3.7,1.1,5.9,5.1,4.7,8.8c-1.1,3.7-5.1,5.9-8.8,4.7
			c-2.8-0.9-4.7-3.3-5-6.1l1.5-0.4c0.1,2.2,1.6,4.3,3.9,5c2.9,0.9,6-0.8,6.9-3.7c0.9-2.9-0.8-6-3.7-6.9
			C594.6,209.3,592.3,210.1,590.9,211.9z"/>
	</g>
	<g>
		<path class="st9" d="M609.9,222.6l-1.3-0.7c0.6-1.8,2.3-3.1,4.3-3.2c2.7-0.1,4.9,1.9,5,4.6c0.1,2.7-1.9,4.9-4.6,5
			c-2,0.1-3.8-1-4.6-2.8l1.2-0.8c0.5,1.3,1.8,2.2,3.3,2.1c1.9-0.1,3.3-1.7,3.2-3.5c-0.1-1.9-1.7-3.3-3.5-3.2
			C611.5,220.2,610.3,221.2,609.9,222.6z"/>
	</g>
	<g>
		<path class="st8" d="M599.9,227.7l-0.9-0.5c0.4-1.3,1.6-2.3,3.1-2.4c1.9-0.1,3.6,1.3,3.8,3.3c0.1,1.9-1.3,3.6-3.3,3.8
			c-1.5,0.1-2.8-0.7-3.4-1.9l0.9-0.6c0.4,0.9,1.4,1.6,2.4,1.5c1.4-0.1,2.4-1.3,2.3-2.6c-0.1-1.4-1.3-2.4-2.6-2.3
			C601,226,600.2,226.7,599.9,227.7z"/>
	</g>
	<g>
		<path class="st8" d="M609,208.7l-0.7-0.8c1.2-1.4,3.2-2.1,5.1-1.5c2.5,0.8,4,3.5,3.2,6c-0.8,2.5-3.5,4-6,3.2
			c-1.9-0.6-3.2-2.2-3.4-4.1l1-0.2c0.1,1.5,1.1,2.9,2.7,3.4c2,0.6,4.1-0.5,4.7-2.5c0.6-2-0.5-4.1-2.5-4.7
			C611.5,206.9,609.9,207.5,609,208.7z"/>
	</g>
	<g>
		<path class="st1" d="M639.7,209.8l2.2,0.2c0,3.8-2.2,7.5-5.9,9.1c-5,2.1-10.7-0.1-12.9-5.1c-2.2-5,0.1-10.7,5.1-12.9
			c3.7-1.6,7.9-0.7,10.7,1.9l-1.3,1.8c-2.1-2.2-5.5-3-8.5-1.7c-3.9,1.7-5.6,6.2-4,10c1.7,3.9,6.2,5.6,10,4
			C638.1,215.8,639.8,212.8,639.7,209.8z"/>
	</g>
	<g>
		<path class="st6" d="M646.8,206.6l-0.2-0.4c0.8-0.5,1.8-0.5,2.6,0c1.1,0.7,1.4,2.2,0.6,3.3c-0.7,1.1-2.2,1.4-3.3,0.6
			c-0.8-0.5-1.2-1.5-1-2.4l0.4,0c-0.2,0.8,0.1,1.6,0.8,2c0.9,0.6,2.1,0.4,2.7-0.5c0.6-0.9,0.4-2.1-0.5-2.7
			C648.3,206.1,647.4,206.2,646.8,206.6z"/>
	</g>
	<g>
		<path class="st9" d="M669.2,222.6l-0.6,4.3c-5.6-0.1-10.9-3.6-13.1-9.1c-2.9-7.4,0.7-15.7,8.1-18.6c7.4-2.9,15.7,0.7,18.6,8.1
			c2.2,5.6,0.7,11.7-3.4,15.6l-3.4-2.7c3.2-2.7,4.4-7.2,2.8-11.4c-2-5.2-7.9-7.7-13.1-5.7c-5.2,2-7.8,7.9-5.7,13.1
			C661.1,220.2,665.1,222.7,669.2,222.6z"/>
	</g>
	<g>
		<path class="st3" d="M621.6,232l-1.2-4c5-2.2,11.1-1.3,15.3,2.7c5.6,5.3,5.8,14.2,0.5,19.8c-5.3,5.6-14.2,5.8-19.8,0.5
			c-4.2-4-5.4-10.1-3.4-15.2l4.1,1c-1.7,3.7-0.9,8.2,2.2,11.2c3.9,3.8,10.2,3.6,13.9-0.3c3.8-3.9,3.6-10.2-0.3-13.9
			C629.7,230.7,625.2,230.2,621.6,232z"/>
	</g>
	<g>
		<path class="st9" d="M604.5,253.8l-0.7-0.6c1-1.7,2.9-2.6,4.9-2.4c2.7,0.4,4.6,2.9,4.2,5.5c-0.4,2.7-2.9,4.6-5.5,4.2
			c-2-0.3-3.6-1.8-4.1-3.6l0.8-0.3c0.4,1.6,1.7,2.8,3.4,3.1c2.2,0.3,4.2-1.2,4.5-3.4c0.3-2.2-1.2-4.2-3.4-4.5
			C606.8,251.6,605.3,252.4,604.5,253.8z"/>
	</g>
	<g>
		<path class="st10" d="M603.4,238.8l-0.9-0.5c0.5-1.2,1.6-2.1,3-2.2c1.9-0.1,3.4,1.3,3.5,3.2c0.1,1.9-1.3,3.4-3.2,3.5
			c-1.4,0.1-2.6-0.7-3.2-1.9l0.9-0.5c0.4,0.9,1.3,1.5,2.3,1.5c1.3-0.1,2.3-1.2,2.2-2.5c-0.1-1.3-1.2-2.3-2.5-2.2
			C604.5,237.1,603.7,237.8,603.4,238.8z"/>
	</g>
	<g>
		<path class="st8" d="M590.4,269.4l-0.9-0.5c0.5-1.3,1.7-2.3,3.2-2.3c1.9-0.1,3.6,1.4,3.7,3.4c0.1,2-1.4,3.6-3.4,3.7
			c-1.5,0.1-2.8-0.8-3.4-2l0.9-0.6c0.4,1,1.3,1.6,2.4,1.6c1.4-0.1,2.4-1.2,2.4-2.6c-0.1-1.4-1.2-2.4-2.6-2.4
			C591.5,267.7,590.7,268.5,590.4,269.4z"/>
	</g>
	<g>
		<path class="st10" d="M640.6,446.1l-1.6,1c-2.6-3-3.3-7.3-1.4-11.1c2.5-5,8.5-7,13.5-4.6c5,2.5,7,8.5,4.6,13.5
			c-1.9,3.8-5.8,5.9-9.7,5.6l-0.1-1.9c3.3,0.3,6.6-1.4,8.2-4.5c2-4.1,0.4-9-3.7-11c-4.1-2-9-0.4-11,3.7
			C637.7,440,638.3,443.7,640.6,446.1z"/>
	</g>
	<g>
		<path class="st4" d="M666.4,440.8l0.1,1.2c-2.6,0.5-5.3-0.5-6.9-2.8c-2.1-3.1-1.3-7.3,1.8-9.3c3.1-2.1,7.3-1.3,9.3,1.8
			c1.6,2.3,1.5,5.3,0.1,7.5l-1.1-0.5c1.3-1.8,1.4-4.3,0-6.2c-1.7-2.5-5.1-3.2-7.6-1.5c-2.5,1.7-3.2,5.1-1.5,7.6
			C661.9,440.5,664.2,441.3,666.4,440.8z"/>
	</g>
	<g>
		<path class="st9" d="M684,434.4l0.6,2.3c-2.8,1.2-6.2,0.6-8.5-1.6c-3.1-3-3.1-8-0.1-11c3-3.1,7.9-3.1,11-0.1
			c2.3,2.3,2.9,5.6,1.8,8.5l-2.3-0.6c1-2,0.6-4.6-1.1-6.2c-2.2-2.1-5.6-2.1-7.7,0.1c-2.1,2.2-2.1,5.6,0.1,7.7
			C679.5,435,682,435.3,684,434.4z"/>
	</g>
	<g>
		<g>
			<path class="st8" d="M692.3,442.7L690,438c5.7-3.8,13.2-4,19.3,0c8,5.3,10.2,16.1,4.9,24.1c-5.3,8-16.1,10.2-24.1,4.9
				c-6-4-8.7-11.1-7.4-17.8l5.2,0.3c-1.3,4.9,0.6,10.2,5.1,13.2c5.6,3.7,13.2,2.2,16.9-3.4c3.7-5.6,2.2-13.2-3.4-16.9
				C702,439.4,696.3,439.7,692.3,442.7z"/>
		</g>
		<g>
			<path class="st8" d="M699.6,470.7c-3.6,0-7-1.1-10-3c-6.1-4.1-9.2-11.4-7.8-18.6l0.1-0.7l6.9,0.4l-0.2,0.9
				c-1.2,4.7,0.7,9.7,4.7,12.3c1.9,1.2,4.1,1.9,6.3,1.9c3.8,0,7.4-1.9,9.5-5.1c3.5-5.2,2.1-12.4-3.2-15.8c-3.9-2.6-9.4-2.4-13.2,0.4
				l-0.7,0.6l-3.1-6.1l0.6-0.4c6-4,14.1-4,20.1,0c4,2.7,6.8,6.8,7.7,11.5c1,4.8,0,9.6-2.7,13.6C711.4,467.6,705.7,470.7,699.6,470.7
				z M683.2,450c-1,6.4,1.8,12.7,7.2,16.3c2.7,1.8,5.9,2.8,9.2,2.8c5.6,0,10.8-2.8,13.8-7.4c2.5-3.7,3.3-8.1,2.4-12.5
				c-0.9-4.3-3.4-8.1-7.1-10.5c-5.3-3.5-12.4-3.6-17.8-0.4l1.6,3.2c4.2-2.7,10-2.7,14.2,0.1c6,4,7.6,12,3.6,18
				c-2.4,3.6-6.5,5.8-10.8,5.8l0,0c-2.6,0-5-0.7-7.2-2.2c-4.3-2.9-6.5-8.1-5.6-13.1L683.2,450z"/>
		</g>
	</g>
	<g>
		<path class="st8" d="M683.3,471.9l-0.7-0.9c1-1,2.5-1.4,3.9-0.9c1.9,0.7,2.8,2.8,2.1,4.7c-0.7,1.9-2.8,2.8-4.7,2.1
			c-1.4-0.5-2.3-1.9-2.3-3.3l1.1-0.2c0,1.1,0.6,2.1,1.6,2.5c1.3,0.5,2.8-0.2,3.3-1.5c0.5-1.3-0.2-2.8-1.5-3.3
			C685.1,470.8,683.9,471.1,683.3,471.9z"/>
	</g>
	<g>
		<path class="st1" d="M668.8,475.8l0.1,3.1c-4,0.6-8.1-1.2-10.2-4.9c-2.9-4.8-1.4-11.1,3.5-14.1c4.9-2.9,11.1-1.3,14.1,3.5
			c2.2,3.7,1.8,8.1-0.5,11.4l-2.7-1.5c1.9-2.3,2.2-5.6,0.6-8.3c-2-3.4-6.5-4.5-9.9-2.5c-3.4,2-4.5,6.5-2.5,9.9
			C662.8,475.1,665.9,476.4,668.8,475.8z"/>
	</g>
	<g>
		<path class="st8" d="M665.5,450.2l-0.7-0.8c1-1,2.5-1.4,4-0.9c1.9,0.7,2.8,2.8,2.1,4.7c-0.7,1.9-2.8,2.8-4.7,2.1
			c-1.4-0.5-2.3-1.9-2.3-3.3l1.1-0.2c0,1.1,0.6,2.1,1.6,2.5c1.3,0.5,2.8-0.2,3.3-1.5c0.5-1.3-0.2-2.8-1.5-3.3
			C667.4,449.1,666.2,449.5,665.5,450.2z"/>
	</g>
	<g>
		<path class="st6" d="M673.8,443.3l-1-0.6c0.7-1.3,2.1-2.2,3.6-2.1c2.1,0.1,3.7,1.9,3.5,4c-0.1,2.1-1.9,3.7-4,3.5
			c-1.6-0.1-2.9-1.2-3.3-2.6l1-0.5c0.3,1.1,1.2,1.9,2.4,1.9c1.5,0.1,2.7-1,2.8-2.5c0.1-1.5-1-2.7-2.5-2.8
			C675.3,441.6,674.3,442.3,673.8,443.3z"/>
	</g>
	<g>
		<path class="st4" d="M657.7,446.4l-0.4-0.3c0.5-0.9,1.5-1.6,2.7-1.5c1.5,0.1,2.6,1.4,2.5,3c-0.1,1.5-1.5,2.6-3,2.5
			c-1.1-0.1-2.1-0.9-2.4-1.9l0.5-0.2c0.2,0.9,1,1.5,2,1.6c1.2,0.1,2.3-0.8,2.4-2.1c0.1-1.2-0.8-2.3-2.1-2.4
			C659,445.1,658.1,445.6,657.7,446.4z"/>
	</g>
	<g>
		<path class="st8" d="M646,457.4l-0.8-0.6c1-1.9,3.1-3.2,5.4-3c3,0.2,5.3,2.9,5.1,6c-0.3,3-2.9,5.3-6,5.1c-2.3-0.2-4.2-1.8-4.8-3.8
			l0.9-0.4c0.5,1.7,2.1,3.1,4,3.2c2.5,0.2,4.7-1.6,4.9-4.1c0.2-2.5-1.6-4.7-4.1-4.9C648.5,454.7,646.8,455.8,646,457.4z"/>
	</g>
	<g>
		<path class="st4" d="M646.8,479l-0.1,1.2c-2.6,0-5-1.5-6.1-3.9c-1.4-3.3,0.1-7.1,3.4-8.6c3.3-1.4,7.1,0.1,8.6,3.4
			c1.1,2.5,0.5,5.3-1.3,7.1l-1-0.7c1.5-1.5,2.1-3.8,1.2-5.9c-1.2-2.7-4.3-3.9-7-2.8c-2.7,1.2-4,4.3-2.8,7
			C642.6,477.9,644.7,479.1,646.8,479z"/>
	</g>
	<g>
		<path class="st1" d="M629.6,460l-0.6-0.4c0.4-0.8,1.3-1.4,2.2-1.3c1.3,0.1,2.3,1.2,2.2,2.5c-0.1,1.3-1.2,2.3-2.5,2.2
			c-1,0-1.8-0.7-2.1-1.5l0.6-0.3c0.2,0.7,0.8,1.1,1.5,1.2c0.9,0,1.7-0.7,1.7-1.6c0-0.9-0.7-1.7-1.6-1.7
			C630.5,459,629.9,459.4,629.6,460z"/>
	</g>
	<g>
		<path class="st10" d="M695.7,425.9l-1-0.7c0.8-1.3,2.3-2.2,3.9-2c2.2,0.2,3.7,2.2,3.5,4.4c-0.2,2.2-2.2,3.7-4.4,3.5
			c-1.6-0.2-2.9-1.3-3.4-2.8l1.1-0.5c0.3,1.1,1.2,2,2.4,2.1c1.5,0.2,2.9-0.9,3.1-2.5c0.2-1.5-0.9-2.9-2.5-3.1
			C697.3,424.3,696.2,424.9,695.7,425.9z"/>
	</g>
	<g>
		<path class="st10" d="M695.8,416.3l-0.4-0.3c0.3-0.6,1-1,1.8-0.9c1,0.1,1.7,1,1.6,2c-0.1,1-1,1.7-2,1.6c-0.8-0.1-1.4-0.6-1.5-1.3
			l0.5-0.2c0.1,0.5,0.6,0.9,1.1,1c0.7,0.1,1.3-0.4,1.4-1.1c0.1-0.7-0.4-1.3-1.1-1.4C696.5,415.5,696,415.8,695.8,416.3z"/>
	</g>
	<g>
		<path class="st1" d="M690,419.1l-0.2-0.5c0.6-0.3,1.4-0.3,2,0.1c0.8,0.6,0.9,1.7,0.3,2.5c-0.6,0.8-1.7,0.9-2.5,0.3
			c-0.6-0.4-0.8-1.2-0.6-1.9l0.5,0.1c-0.2,0.5,0,1,0.4,1.4c0.5,0.4,1.3,0.3,1.7-0.2c0.4-0.5,0.3-1.3-0.2-1.7
			C691,418.8,690.4,418.8,690,419.1z"/>
	</g>
	<g>
		<path class="st6" d="M719.3,427l0.4,3.1c-3.9,1-8.2-0.2-10.8-3.6c-3.5-4.5-2.7-10.9,1.8-14.4c4.5-3.5,10.9-2.7,14.4,1.8
			c2.6,3.4,2.8,7.9,0.8,11.4l-2.9-1.2c1.6-2.5,1.6-5.9-0.4-8.3c-2.4-3.2-7-3.7-10.1-1.3c-3.2,2.5-3.7,7-1.3,10.1
			C713.2,427,716.4,427.9,719.3,427z"/>
		<path class="st6" d="M717,431.2c-3.4,0-6.6-1.6-8.7-4.3c-3.7-4.8-2.9-11.8,2-15.5c2-1.5,4.3-2.3,6.8-2.3c3.5,0,6.6,1.6,8.8,4.3
			c2.7,3.5,3.1,8.4,0.9,12.3l-0.3,0.6l-4.4-1.8l0.5-0.8c1.5-2.3,1.4-5.3-0.3-7.4c-1.2-1.6-3.1-2.5-5.1-2.5c-1.4,0-2.8,0.5-3.9,1.3
			c-2.8,2.2-3.3,6.2-1.1,9c1.2,1.6,3.1,2.5,5.1,2.5l0,0c0.7,0,1.4-0.1,2-0.3l0.9-0.3l0.7,4.7l-0.7,0.2
			C718.9,431,718,431.2,717,431.2z M717,410.6c-2.1,0-4.1,0.7-5.8,2c-4.1,3.2-4.9,9.2-1.7,13.3c2.2,2.8,5.8,4.2,9.3,3.5l-0.2-1.5
			c-0.5,0.1-1.1,0.2-1.6,0.2l0,0c-2.5,0-4.8-1.1-6.3-3.1c-2.7-3.5-2.1-8.5,1.4-11.2c1.4-1.1,3.1-1.7,4.9-1.7c2.5,0,4.8,1.1,6.3,3.1
			c1.9,2.4,2.2,5.7,0.9,8.4l1.4,0.6c1.5-3.2,1.2-7.1-1.1-9.9C722.7,411.9,720,410.6,717,410.6z"/>
	</g>
	<g>
		<path class="st1" d="M738,431.4l0.1,2.1c-2.7,0.5-5.5-0.6-7-3c-2.1-3.2-1.2-7.5,2-9.6c3.2-2.1,7.5-1.2,9.6,2
			c1.6,2.4,1.5,5.4-0.1,7.7l-1.9-0.9c1.2-1.6,1.4-3.8,0.2-5.6c-1.5-2.2-4.5-2.9-6.7-1.4c-2.2,1.5-2.9,4.5-1.4,6.7
			C733.9,431.1,736.1,431.8,738,431.4z"/>
	</g>
	<g>
		<path class="st8" d="M720.7,436.3l-1.3-0.6c0.6-1.8,2.3-3.1,4.3-3.2c2.7-0.2,5,1.9,5.1,4.6c0.2,2.7-1.9,5-4.6,5.1
			c-2,0.1-3.8-1-4.7-2.7l1.2-0.8c0.5,1.3,1.9,2.2,3.3,2.1c1.9-0.1,3.3-1.7,3.2-3.6c-0.1-1.9-1.7-3.3-3.6-3.2
			C722.3,433.9,721,434.9,720.7,436.3z"/>
	</g>
	<g>
		<path class="st6" d="M722.5,446.2l-0.6-0.4c0.4-0.8,1.2-1.3,2.2-1.3c1.3,0.1,2.2,1.2,2.1,2.4c-0.1,1.2-1.2,2.2-2.4,2.1
			c-0.9-0.1-1.7-0.7-2-1.5l0.6-0.3c0.2,0.6,0.7,1.1,1.4,1.2c0.9,0.1,1.6-0.6,1.7-1.5c0.1-0.9-0.6-1.6-1.5-1.7
			C723.4,445.2,722.8,445.6,722.5,446.2z"/>
	</g>
	<g>
		<path class="st4" d="M722.6,455l-0.6-0.6c1-1.5,2.8-2.2,4.7-1.9c2.4,0.5,4,2.9,3.5,5.3c-0.5,2.4-2.9,4-5.4,3.5
			c-1.8-0.4-3.2-1.8-3.5-3.6l0.8-0.3c0.2,1.5,1.3,2.7,2.9,3c2,0.4,3.9-0.9,4.4-2.9c0.4-2-0.9-3.9-2.9-4.4
			C724.9,453,723.4,453.7,722.6,455z"/>
	</g>
	<g>
		<path class="st4" d="M745.9,414.9l-0.6-0.6c1-1.5,2.8-2.2,4.7-1.9c2.4,0.5,4,2.9,3.5,5.3c-0.5,2.4-2.9,4-5.3,3.5
			c-1.8-0.4-3.2-1.8-3.5-3.6l0.8-0.3c0.2,1.5,1.3,2.7,2.9,3c2,0.4,3.9-0.9,4.4-2.9c0.4-2-0.9-4-2.9-4.4
			C748.2,412.9,746.7,413.6,745.9,414.9z"/>
	</g>
	<g>
		<path class="st6" d="M754,432.5l-0.9-0.6c0.7-1.3,2.1-2.2,3.6-2.1c2.1,0.1,3.7,1.9,3.5,4c-0.1,2.1-1.9,3.7-4,3.5
			c-1.6-0.1-2.9-1.1-3.4-2.5l1-0.5c0.3,1.1,1.2,1.9,2.4,1.9c1.5,0.1,2.7-1,2.8-2.5c0.1-1.5-1-2.7-2.5-2.8
			C755.5,430.8,754.5,431.5,754,432.5z"/>
	</g>
	<g>
		<path class="st8" d="M720.7,400l-1.3-0.7c0.6-1.8,2.3-3.1,4.3-3.2c2.7-0.2,5,1.9,5.1,4.6c0.2,2.7-1.9,5-4.6,5.1
			c-2,0.1-3.8-1-4.7-2.7l1.2-0.8c0.5,1.3,1.9,2.2,3.3,2.1c1.9-0.1,3.3-1.7,3.2-3.6c-0.1-1.9-1.7-3.3-3.6-3.2
			C722.3,397.6,721,398.7,720.7,400z"/>
	</g>
	<g>
		<path class="st8" d="M710.8,402.3l-0.6-0.3c0.3-0.9,1.1-1.5,2.1-1.6c1.3-0.1,2.4,0.9,2.5,2.2c0.1,1.3-0.9,2.4-2.2,2.5
			c-1,0.1-1.8-0.5-2.2-1.3l0.6-0.4c0.3,0.6,0.9,1,1.6,1c0.9,0,1.6-0.8,1.5-1.7c-0.1-0.9-0.8-1.6-1.7-1.5
			C711.6,401.2,711,401.7,710.8,402.3z"/>
	</g>
	<g>
		<path class="st10" d="M735.3,387.4l-0.1,1.6c-2,0.2-4.1-0.9-5.1-2.8c-1.3-2.6-0.4-5.7,2.2-7.1c2.6-1.3,5.7-0.4,7.1,2.2
			c1,1.9,0.7,4.2-0.6,5.8l-1.3-0.8c1-1.1,1.3-2.8,0.6-4.2c-0.9-1.8-3.2-2.5-5-1.6c-1.8,0.9-2.5,3.2-1.6,5
			C732.3,386.9,733.8,387.6,735.3,387.4z"/>
	</g>
	<g>
		<path class="st9" d="M740.4,410.8l0.6,2.3c-2.8,1.2-6.2,0.6-8.5-1.6c-3.1-3-3.1-8-0.1-11c3-3.1,7.9-3.1,11-0.1
			c2.3,2.3,2.9,5.6,1.8,8.5l-2.3-0.6c1-2,0.6-4.6-1.1-6.2c-2.2-2.1-5.6-2.1-7.7,0.1c-2.1,2.1-2.1,5.6,0.1,7.7
			C735.9,411.5,738.4,411.8,740.4,410.8z"/>
	</g>
	<g>
		<path class="st9" d="M740.4,449.5l0.6,2.3c-2.8,1.2-6.2,0.6-8.5-1.6c-3.1-3-3.1-7.9-0.1-11c3-3.1,7.9-3.1,11-0.1
			c2.3,2.3,2.9,5.6,1.8,8.5l-2.3-0.6c1-2,0.6-4.6-1.1-6.2c-2.2-2.1-5.6-2.1-7.7,0.1c-2.1,2.2-2.1,5.6,0.1,7.7
			C735.9,450.2,738.4,450.5,740.4,449.5z"/>
	</g>
	<g>
		<path class="st8" d="M640.4,225l-2.1-1c1-2.9,3.5-5,6.7-5.2c4.2-0.3,7.9,2.9,8.2,7.1c0.3,4.2-2.9,7.9-7.1,8.2
			c-3.2,0.2-6.1-1.5-7.4-4.2l1.9-1.3c0.9,2,3,3.4,5.4,3.2c3-0.2,5.2-2.8,5-5.8c-0.2-3-2.8-5.2-5.8-5
			C642.9,221.2,641,222.8,640.4,225z"/>
	</g>
	<g>
		<path class="st6" d="M657.2,228.8l-0.3-0.6c1.2-0.8,2.7-0.8,3.9,0c1.6,1.1,2,3.3,1,4.9c-1.1,1.6-3.3,2-4.9,0.9
			c-1.2-0.8-1.8-2.3-1.5-3.6l0.7,0c-0.3,1.1,0.2,2.4,1.2,3.1c1.3,0.9,3.1,0.5,4-0.8c0.9-1.3,0.5-3.1-0.8-4
			C659.4,228.1,658.1,228.2,657.2,228.8z"/>
	</g>
	<g>
		<path class="st8" d="M682.5,227.9l-2.1-1c1-2.9,3.5-5,6.7-5.2c4.2-0.3,7.9,2.9,8.2,7.1c0.3,4.2-2.9,7.9-7.1,8.2
			c-3.2,0.2-6.1-1.5-7.4-4.2l1.9-1.3c0.9,2,3,3.4,5.4,3.2c3-0.2,5.2-2.8,5-5.8c-0.2-3-2.8-5.2-5.8-5
			C685,224.2,683.1,225.8,682.5,227.9z"/>
	</g>
	<g>
		<path class="st1" d="M672.6,251.6l0.1,3.1c-4,0.6-8.1-1.2-10.3-4.9c-2.9-4.8-1.3-11.1,3.5-14.1c4.8-2.9,11.1-1.3,14,3.5
			c2.2,3.7,1.8,8.1-0.5,11.4l-2.7-1.5c1.9-2.3,2.2-5.6,0.6-8.3c-2-3.4-6.5-4.5-9.9-2.5c-3.4,2-4.5,6.5-2.5,9.9
			C666.7,250.9,669.7,252.2,672.6,251.6z"/>
		<path class="st1" d="M671.2,255.6c-3.9,0-7.5-2-9.5-5.3c-3.1-5.2-1.4-12,3.8-15.1c1.7-1,3.7-1.6,5.7-1.6c3.8,0,7.5,2,9.5,5.3
			c2.3,3.8,2.1,8.6-0.6,12.2l-0.4,0.5l-4.1-2.3l0.6-0.7c1.7-2.1,2-5.1,0.6-7.4c-1.2-2-3.2-3.1-5.5-3.1c-1.2,0-2.3,0.3-3.3,0.9
			c-3,1.8-4,5.8-2.2,8.8c1.2,1.9,3.2,3.1,5.5,3.1l0,0c0.4,0,0.8,0,1.3-0.1l0.9-0.2l0.1,4.7l-0.7,0.1
			C672.3,255.5,671.7,255.6,671.2,255.6z M671.2,235.1c-1.7,0-3.4,0.5-4.9,1.3c-4.5,2.7-5.9,8.5-3.2,13c1.8,3.1,5.2,4.8,8.8,4.6
			l0-1.5c-0.2,0-0.4,0-0.6,0l0,0c-2.8,0-5.4-1.4-6.8-3.9c-2.3-3.8-1-8.7,2.7-10.9c1.2-0.7,2.7-1.1,4.1-1.1c2.8,0,5.4,1.5,6.8,3.9
			c1.6,2.6,1.5,5.9-0.1,8.5l1.3,0.7c1.9-3,2-6.8,0.1-9.9C677.6,236.8,674.6,235.1,671.2,235.1z"/>
	</g>
	<g>
		<path class="st4" d="M691.3,258.8l0.1,1.2c-2.6,0.5-5.3-0.5-6.9-2.8c-2.1-3.1-1.3-7.3,1.8-9.3c3.1-2.1,7.3-1.3,9.3,1.8
			c1.6,2.3,1.5,5.3,0.1,7.5l-1.1-0.5c1.3-1.8,1.4-4.3,0-6.2c-1.7-2.5-5.1-3.2-7.6-1.5c-2.5,1.7-3.2,5.1-1.5,7.6
			C686.8,258.5,689.1,259.3,691.3,258.8z"/>
	</g>
	<g>
		<path class="st4" d="M745.3,218.9l-0.3,1.2c-2.6-0.3-4.9-2.1-5.7-4.8c-1.1-3.6,1-7.3,4.5-8.4c3.6-1,7.3,1,8.4,4.6
			c0.8,2.7-0.2,5.5-2.2,7.1l-0.9-0.9c1.8-1.3,2.6-3.7,1.9-5.9c-0.9-2.9-3.9-4.6-6.8-3.7c-2.9,0.9-4.6,3.9-3.7,6.8
			C741.2,217.3,743.1,218.8,745.3,218.9z"/>
		<path class="st4" d="M745.6,221l-0.7-0.1c-3-0.3-5.5-2.4-6.4-5.3c-1.2-4,1.1-8.1,5.1-9.3c0.7-0.2,1.4-0.3,2.1-0.3
			c3.3,0,6.3,2.2,7.2,5.4c0.9,2.9-0.1,6-2.5,8l-0.5,0.4l-2.1-2l0.7-0.6c1.5-1.2,2.2-3.2,1.7-5.1c-0.7-2.4-3.4-3.9-5.9-3.2
			c-1.2,0.4-2.2,1.2-2.8,2.3c-0.6,1.1-0.7,2.4-0.4,3.6c0.5,1.9,2.2,3.2,4.1,3.4l0.9,0.1L745.6,221z"/>
	</g>
	<g>
		<path class="st1" d="M697.1,238.8l-0.9-1c1.5-1.8,4.1-2.7,6.5-2c3.2,1,5.1,4.4,4.1,7.6c-1,3.2-4.4,5.1-7.6,4.1
			c-2.4-0.7-4.1-2.9-4.3-5.2l1.3-0.3c0.1,1.9,1.4,3.7,3.4,4.3c2.5,0.8,5.2-0.7,6-3.2c0.8-2.5-0.7-5.2-3.2-5.9
			C700.3,236.5,698.2,237.2,697.1,238.8z"/>
	</g>
	<g>
		<g>
			<path class="st8" d="M707,218.8l-1.8-1.2c2.1-4.1,6.6-6.7,11.4-6.3c6.5,0.5,11.3,6.2,10.8,12.7c-0.5,6.5-6.2,11.3-12.7,10.8
				c-4.9-0.4-8.8-3.7-10.3-8.1l2-0.9c1.1,3.7,4.4,6.6,8.5,6.9c5.3,0.4,9.9-3.5,10.4-8.8c0.4-5.3-3.5-10-8.8-10.4
				C712.3,213.1,708.6,215.3,707,218.8z"/>
		</g>
		<g>
			<path class="st8" d="M715.6,235.9c-0.4,0-0.7,0-1.1,0c-5.2-0.4-9.6-3.9-11.2-8.9l-0.3-0.9l4-1.9l0.4,1.2c1,3.4,4,5.8,7.5,6.1
				c4.7,0.4,8.8-3.2,9.2-7.8c0.4-4.7-3.1-8.8-7.8-9.2c-3.5-0.3-6.9,1.6-8.4,4.8l-0.6,1.2l-3.7-2.5l0.5-0.9c2.4-4.6,7.3-7.3,12.5-6.9
				c3.4,0.3,6.5,1.9,8.8,4.5c2.2,2.6,3.3,6,3,9.4C727.9,230.7,722.3,235.9,715.6,235.9z"/>
		</g>
	</g>
	<g>
		<path class="st9" d="M703,255.2l-1.3-0.7c0.6-1.8,2.3-3.1,4.3-3.2c2.7-0.1,4.9,1.9,5,4.6c0.1,2.7-1.9,4.9-4.6,5
			c-2,0.1-3.8-1-4.6-2.8l1.2-0.8c0.5,1.3,1.8,2.2,3.3,2.1c1.9-0.1,3.3-1.7,3.2-3.5c-0.1-1.9-1.7-3.3-3.5-3.2
			C704.6,252.9,703.4,253.9,703,255.2z"/>
	</g>
	<g>
		<path class="st9" d="M701.7,266.1l-0.5-0.3c0.3-0.7,0.9-1.2,1.7-1.3c1.1-0.1,2,0.8,2,1.8c0.1,1.1-0.8,2-1.8,2
			c-0.8,0-1.5-0.4-1.8-1.1l0.5-0.3c0.2,0.5,0.7,0.9,1.3,0.9c0.7,0,1.3-0.7,1.3-1.4c0-0.8-0.7-1.3-1.4-1.3
			C702.3,265.2,701.9,265.6,701.7,266.1z"/>
	</g>
	<g>
		<path class="st9" d="M708.4,269.7l-0.6-0.3c0.3-0.8,1-1.4,1.9-1.4c1.2-0.1,2.2,0.9,2.2,2c0.1,1.2-0.9,2.2-2,2.2
			c-0.9,0-1.7-0.5-2-1.2l0.5-0.4c0.2,0.6,0.8,1,1.5,0.9c0.8,0,1.5-0.7,1.4-1.6c0-0.8-0.7-1.5-1.6-1.4
			C709.1,268.7,708.6,269.1,708.4,269.7z"/>
	</g>
	<g>
		<path class="st8" d="M727.1,259.5l-1-0.5c0.4-1.3,1.7-2.3,3.1-2.4c2-0.1,3.7,1.3,3.8,3.3c0.1,2-1.3,3.7-3.3,3.8
			c-1.5,0.1-2.8-0.7-3.5-2l0.9-0.6c0.4,1,1.4,1.6,2.5,1.5c1.4-0.1,2.4-1.3,2.3-2.7c-0.1-1.4-1.3-2.4-2.7-2.3
			C728.2,257.7,727.3,258.5,727.1,259.5z"/>
	</g>
	<g>
		<path class="st8" d="M685.8,199.9l-0.7-0.3c0.3-0.9,1.2-1.6,2.2-1.7c1.4-0.1,2.6,0.9,2.7,2.3c0.1,1.4-0.9,2.6-2.3,2.7
			c-1.1,0.1-2-0.5-2.4-1.4l0.6-0.4c0.3,0.7,1,1.1,1.8,1.1c1-0.1,1.7-0.9,1.6-1.9c-0.1-1-0.9-1.7-1.9-1.6
			C686.6,198.6,686,199.2,685.8,199.9z"/>
	</g>
	<g>
		<path class="st9" d="M717.9,267.2l-0.2,1.4c-1.8,0-3.6-1.2-4.3-3c-0.9-2.4,0.2-5.1,2.7-6.1c2.4-0.9,5.1,0.2,6.1,2.6
			c0.7,1.8,0.2,3.8-1.1,5.1l-1.1-0.9c1-0.9,1.4-2.4,0.9-3.7c-0.7-1.7-2.6-2.5-4.3-1.9c-1.7,0.7-2.5,2.6-1.9,4.3
			C715.2,266.4,716.5,267.2,717.9,267.2z"/>
	</g>
	<g>
		<path class="st6" d="M717.9,244.1l-0.6-1.2c2.5-1.6,5.8-1.7,8.3,0.1c3.4,2.3,4.4,7,2,10.4c-2.3,3.4-7,4.3-10.4,2
			c-2.6-1.8-3.8-4.8-3.2-7.7l1.4,0.1c-0.6,2.4,0.4,5,2.5,6.5c2.8,1.9,6.6,1.2,8.5-1.7c1.9-2.8,1.2-6.6-1.7-8.5
			C722.7,242.6,719.9,242.7,717.9,244.1z"/>
	</g>
	<g>
		<path class="st10" d="M750.2,227.2l-0.7-1.1c1.3-1.1,3.1-1.4,4.7-0.6c2.1,1.1,3,3.7,1.9,5.8c-1.1,2.1-3.7,3-5.8,1.9
			c-1.6-0.8-2.5-2.5-2.4-4.2l1.3-0.1c-0.2,1.2,0.5,2.5,1.6,3.1c1.5,0.8,3.3,0.2,4.1-1.3c0.8-1.5,0.2-3.3-1.3-4.1
			C752.5,226.1,751.1,226.3,750.2,227.2z"/>
		<path class="st14" d="M752.3,233.9c-0.7,0-1.4-0.2-2.1-0.5c-1.7-0.8-2.7-2.6-2.5-4.5l0-0.2l1.9-0.1l0,0.3
			c-0.2,1.2,0.4,2.3,1.5,2.8c0.4,0.2,0.8,0.3,1.2,0.3c1,0,2-0.6,2.5-1.5c0.7-1.4,0.1-3-1.2-3.7c-1-0.5-2.3-0.3-3.1,0.5l-0.2,0.2
			l-1-1.6l0.2-0.2c1.4-1.2,3.4-1.4,5.1-0.6c1.1,0.6,1.9,1.5,2.3,2.7c0.4,1.2,0.3,2.4-0.3,3.5C755.6,233,754,233.9,752.3,233.9z
			 M748.2,229.3c0,1.5,0.8,3,2.2,3.7c0.6,0.3,1.2,0.4,1.8,0.4c1.5,0,2.9-0.8,3.6-2.2c0.5-1,0.6-2.1,0.2-3.1c-0.3-1-1.1-1.9-2-2.3
			c-1.4-0.7-3.1-0.5-4.3,0.4l0.4,0.6c1-0.8,2.4-0.9,3.5-0.3c1.6,0.8,2.3,2.8,1.5,4.4c-0.6,1.1-1.7,1.8-3,1.8l0,0
			c-0.5,0-1-0.1-1.5-0.4c-1.2-0.6-1.9-1.8-1.8-3.1L748.2,229.3z"/>
	</g>
	<g>
		<path class="st14" d="M738.5,229.2l-0.9,0.3c-0.5-1.1-0.4-2.4,0.4-3.4c1.1-1.3,3-1.4,4.3-0.3c1.3,1.1,1.4,3,0.3,4.3
			c-0.8,1-2.1,1.3-3.3,0.9l0.2-0.9c0.8,0.3,1.8,0.1,2.4-0.6c0.8-0.9,0.7-2.3-0.2-3c-0.9-0.8-2.3-0.7-3,0.2
			C738.1,227.5,738.1,228.5,738.5,229.2z"/>
		<path class="st10" d="M740.4,231.5c-0.4,0-0.7-0.1-1-0.2l-0.2-0.1l0.3-1.5l0.3,0.1c0.7,0.3,1.6,0.1,2.1-0.5
			c0.3-0.4,0.5-0.9,0.4-1.4c0-0.5-0.3-1-0.6-1.3c-0.8-0.7-2-0.5-2.7,0.2c-0.5,0.6-0.6,1.5-0.2,2.2l0.2,0.3l-1.4,0.5l-0.1-0.2
			c-0.6-1.2-0.4-2.6,0.4-3.7c0.6-0.7,1.6-1.2,2.5-1.2c0.8,0,1.6,0.3,2.2,0.8c0.7,0.6,1.1,1.4,1.1,2.3c0.1,0.9-0.2,1.8-0.8,2.4
			C742.3,231.1,741.4,231.5,740.4,231.5z M739.8,230.9c1,0.2,2.1-0.1,2.7-0.9c0.5-0.6,0.7-1.3,0.7-2c-0.1-0.7-0.4-1.4-1-1.9
			c-0.5-0.4-1.2-0.7-1.8-0.7c-0.8,0-1.6,0.4-2.1,1c-0.7,0.8-0.9,1.9-0.5,2.8l0.3-0.1c-0.3-0.8-0.2-1.8,0.4-2.5
			c0.8-1,2.4-1.1,3.4-0.3c0.5,0.4,0.8,1,0.8,1.7c0,0.6-0.2,1.3-0.6,1.8c-0.6,0.7-1.5,1-2.4,0.8L739.8,230.9z"/>
	</g>
	<g>
		<path class="st10" d="M695.2,215.5l-0.1,1.3c-1.7,0.1-3.4-0.7-4.2-2.3c-1.1-2.1-0.3-4.7,1.8-5.8c2.1-1.1,4.7-0.3,5.8,1.8
			c0.8,1.6,0.6,3.5-0.5,4.8l-1.1-0.7c0.9-0.9,1.1-2.3,0.5-3.5c-0.8-1.5-2.6-2.1-4.1-1.3c-1.5,0.8-2.1,2.6-1.3,4.1
			C692.7,215.1,693.9,215.7,695.2,215.5z"/>
	</g>
	<g>
		<path class="st9" d="M645.9,242.4l-1.1-1.2c1.8-2.1,4.7-3.1,7.5-2.3c3.7,1.1,5.9,5.1,4.7,8.8c-1.1,3.7-5.1,5.9-8.8,4.7
			c-2.8-0.9-4.7-3.3-5-6.1l1.5-0.4c0.1,2.2,1.6,4.3,3.9,5c2.9,0.9,6-0.8,6.9-3.7c0.9-2.9-0.8-6-3.7-6.9
			C649.6,239.8,647.2,240.6,645.9,242.4z"/>
	</g>
	<g>
		<path class="st13" d="M757.6,423.8l0,0.8c-1.1,0.1-2.1-0.5-2.6-1.5c-0.7-1.3-0.1-3,1.2-3.6c1.3-0.7,3-0.1,3.6,1.2
			c0.5,1,0.3,2.2-0.4,3l-0.7-0.5c0.5-0.6,0.7-1.4,0.3-2.2c-0.5-0.9-1.6-1.3-2.6-0.9c-0.9,0.5-1.3,1.6-0.9,2.5
			C756.1,423.5,756.8,423.9,757.6,423.8z"/>
	</g>
	<g>
		<path class="st9" d="M501.2,394l0.9-1.5c2.1,0.9,3.6,3.1,3.6,5.6c-0.1,3.3-2.8,5.9-6.1,5.9c-3.3-0.1-5.9-2.8-5.9-6.1
			c0.1-2.5,1.6-4.6,3.8-5.5l0.9,1.6c-1.7,0.5-2.9,2.1-2.9,3.9c0,2.3,1.8,4.2,4.1,4.3c2.3,0,4.2-1.8,4.3-4.1
			C504,396.1,502.8,394.6,501.2,394z"/>
	</g>
	<g>
		<path class="st8" d="M571,348.5l-0.7-0.8c1.2-1.4,3.2-2.1,5.1-1.5c2.5,0.8,4,3.5,3.2,6c-0.8,2.5-3.5,4-6,3.2
			c-1.9-0.6-3.2-2.3-3.4-4.1l1-0.2c0.1,1.5,1.1,2.9,2.7,3.4c2,0.6,4.1-0.5,4.7-2.5c0.6-2-0.5-4.1-2.5-4.7
			C573.5,346.7,571.9,347.3,571,348.5z"/>
		<path class="st8" d="M574,355.9c-0.5,0-1-0.1-1.5-0.2c-2-0.6-3.4-2.3-3.6-4.4l0-0.2l1.6-0.4l0,0.3c0.1,1.4,1.1,2.7,2.5,3.1
			c0.3,0.1,0.7,0.2,1,0.2c1.5,0,2.9-1,3.3-2.5c0.6-1.8-0.5-3.8-2.3-4.3c-1.4-0.4-2.9,0.1-3.8,1.2l-0.2,0.3l-1.1-1.2l0.2-0.2
			c1-1.2,2.4-1.8,3.9-1.8c0.5,0,1,0.1,1.5,0.2c1.3,0.4,2.4,1.3,3,2.5c0.6,1.2,0.8,2.6,0.4,3.9C578.2,354.4,576.2,355.9,574,355.9z
			 M569.5,351.5c0.3,1.7,1.5,3.1,3.2,3.7c0.4,0.1,0.9,0.2,1.3,0.2c2,0,3.8-1.3,4.3-3.2c0.4-1.2,0.2-2.4-0.3-3.5
			c-0.6-1.1-1.5-1.9-2.7-2.2c-1.7-0.5-3.5,0-4.7,1.3l0.4,0.4c1-1.1,2.7-1.6,4.2-1.2c2.1,0.6,3.3,2.9,2.7,5c-0.5,1.7-2.1,2.9-3.9,2.9
			l0,0c-0.4,0-0.8-0.1-1.2-0.2c-1.5-0.5-2.6-1.7-2.8-3.3L569.5,351.5z"/>
	</g>
	<g>
		<path class="st6" d="M572.2,315.4l-0.5-0.3c0.3-0.7,1.1-1.2,1.9-1.2c1.1,0,2,0.9,2,2.1c0,1.1-1,2-2.1,2c-0.9,0-1.6-0.5-1.9-1.3
			l0.5-0.3c0.2,0.6,0.7,1,1.3,1c0.8,0,1.5-0.6,1.5-1.4c0-0.8-0.6-1.5-1.4-1.5C572.9,314.5,572.4,314.8,572.2,315.4z"/>
		<path class="st6" d="M573.5,318.1L573.5,318.1c-0.9,0-1.7-0.6-2.1-1.4l-0.1-0.1l0.8-0.5l0.1,0.2c0.2,0.5,0.6,0.9,1.2,0.9l0,0
			c0.7,0,1.3-0.6,1.3-1.3c0-0.7-0.6-1.3-1.3-1.3l0,0c-0.6,0-1,0.3-1.2,0.8l-0.1,0.2l-0.8-0.5l0.1-0.1c0.4-0.8,1.2-1.3,2-1.3h0
			c1.2,0,2.2,1,2.2,2.3C575.7,317.1,574.7,318.1,573.5,318.1z M571.8,316.7c0.3,0.6,0.9,1,1.7,1.1l0,0.2v-0.2c1,0,1.9-0.8,1.9-1.8
			c0-1-0.8-1.9-1.8-1.9l0,0c-0.7,0-1.4,0.4-1.7,1l0.2,0.1c0.3-0.5,0.8-0.9,1.4-0.9c0.9,0,1.6,0.7,1.6,1.6c0,0.9-0.7,1.6-1.6,1.6l0,0
			c-0.6,0-1.2-0.4-1.4-0.9L571.8,316.7z"/>
	</g>
	<g>
		<path class="st8" d="M721.5,276.2l-1-0.5c0.4-1.3,1.7-2.3,3.1-2.4c2-0.1,3.7,1.3,3.8,3.3c0.1,2-1.3,3.7-3.3,3.8
			c-1.5,0.1-2.8-0.7-3.5-2l0.9-0.6c0.4,1,1.4,1.6,2.5,1.5c1.4-0.1,2.4-1.3,2.3-2.7c-0.1-1.4-1.3-2.4-2.7-2.3
			C722.7,274.4,721.8,275.2,721.5,276.2z"/>
	</g>
</g>
<g>
	<g>
		<path class="st15" d="M419.8,553.5c-2-0.2-3.8-0.8-5.5-1.7c-1.7-1-3.2-2.2-4.5-3.6c-0.7-0.8-1.3-1.6-1.9-2.6
			c-0.5-0.9-1-1.9-1.3-2.9c-0.7-1.9-1-3.8-1-5.7c0-1.9,0.3-3.8,0.9-5.5c0.6-1.7,1.4-3.4,2.5-4.9c1.1-1.5,2.4-2.7,3.9-3.8
			c1.5-1,3.2-1.7,5-2.2c1.8-0.4,3.8-0.5,5.8-0.2c2.4,0.4,4.6,1.3,6.6,2.9c2,1.5,3.5,3.4,4.7,5.5c0.1,0.1,0.2,0.3,0.3,0.7
			c0.2,0.3,0.3,0.6,0.3,0.8c0,0.1,0,0.2,0.1,0.3c0.1,0.1,0.1,0.2,0.1,0.3c-0.2,0.1-0.3,0.2-0.5,0.3c-0.2,0.1-0.4,0.2-0.5,0.1
			c-0.5-1.2-1.1-2.3-1.7-3.3c-0.6-1-1.4-1.9-2.4-2.8c-1.8-1.6-3.8-2.7-6.1-3.3c-2.3-0.5-4.6-0.5-6.9,0c-1.9,0.5-3.6,1.3-5.2,2.6
			c-1.6,1.2-2.8,2.7-3.8,4.4c-1,1.7-1.6,3.6-1.9,5.4c-0.3,1.9-0.3,3.7,0,5.5c0.3,1.8,0.9,3.5,1.8,5c0.9,1.6,2,3,3.3,4.1
			c1.3,1.2,2.9,2.1,4.6,2.7c1.7,0.6,3.7,0.9,5.7,0.8c1.4-0.1,2.8-0.4,4.1-0.9c1.3-0.6,2.5-1.3,3.6-2.2c1.1-0.9,2.1-2,2.9-3.2
			c0.8-1.2,1.4-2.4,1.9-3.8l1,0.4v0.1c-0.3,0.7-0.6,1.5-0.9,2.2c-0.4,0.7-0.8,1.4-1.2,2c-0.8,1.2-1.7,2.2-2.8,3
			c-1.1,0.9-2.2,1.6-3.4,2.1c-1.2,0.5-2.5,0.9-3.9,1.2C422.5,553.6,421.1,553.7,419.8,553.5z"/>
		<path class="st15" d="M455,544.8L455,544.8c-0.6,0.1-1.2,0.2-1.8,0.3c-0.6,0.1-1.2,0.2-1.8,0.2v-1.1c2-0.1,3.8-0.6,5.4-1.5
			c1.6-0.9,2.9-2,3.9-3.4c1-1.4,1.6-3,1.9-4.8c0.3-1.8,0-3.7-0.6-5.6c-0.6-1.7-1.6-3.1-2.9-4.3c-1.3-1.2-2.8-2.1-4.5-2.6
			c-0.1,0-0.3,0-0.6-0.1c-0.3-0.1-0.5-0.1-0.6-0.1c-0.1,0-0.2,0-0.3,0c-0.2,0-0.3-0.1-0.3-0.1h-10.1v31.9h-1.2v-33.1H452
			c1.2,0,2.4,0.2,3.6,0.7c1.2,0.5,2.3,1,3.2,1.8c1.4,1,2.5,2.3,3.3,3.8c0.8,1.5,1.3,3,1.5,4.7c0.2,1.6,0.1,3.3-0.4,4.9
			c-0.4,1.7-1.2,3.2-2.3,4.5c-0.7,0.8-1.4,1.5-2.2,2.1c-0.8,0.6-1.7,1.1-2.6,1.6v0.1l6.8,9h-1.4L455,544.8z"/>
		<path class="st15" d="M490,520.1v1h-19.6V534h8.1v1.2h-8.1v17h19v1.1h-20.2v-33.3H490z"/>
		<path class="st15" d="M492.8,553.4h-1.5l30.6-33.3h1.1v33.4h-1V522L492.8,553.4z"/>
		<path class="st15" d="M527.2,521.3v-1.1H546v1.1h-8.9v32.2H536v-32.2H527.2z"/>
		<path class="st15" d="M551.3,520v33.4h-1.1V520H551.3z"/>
		<path class="st15" d="M556.1,520h1.2l10.9,31.6l10.6-31.6h1.2l-11.2,33.4h-1.3L556.1,520z"/>
		<path class="st15" d="M605.7,520.1v1h-19.6V534h8.1v1.2h-8.1v17h19v1.1h-20.2v-33.3H605.7z"/>
		<path class="st15" d="M641.4,553.5c-2-0.2-3.8-0.8-5.5-1.7c-1.7-1-3.2-2.2-4.5-3.6c-0.7-0.8-1.3-1.6-1.8-2.6
			c-0.5-0.9-1-1.9-1.3-2.9c-0.7-1.9-1-3.8-1-5.7c0-1.9,0.3-3.8,0.9-5.5c0.6-1.7,1.5-3.4,2.6-4.9c1.1-1.5,2.4-2.7,3.9-3.8
			c1.5-1,3.2-1.7,5-2.2c1.8-0.4,3.8-0.5,5.8-0.2c2.4,0.4,4.6,1.3,6.6,2.9c2,1.5,3.5,3.4,4.7,5.5c0.1,0.1,0.2,0.3,0.3,0.7
			c0.2,0.3,0.3,0.6,0.3,0.8c0,0.1,0,0.2,0.1,0.3c0.1,0.1,0.1,0.2,0.1,0.3c-0.2,0.1-0.3,0.2-0.5,0.3c-0.2,0.1-0.4,0.2-0.5,0.1
			c-0.5-1.2-1.1-2.3-1.7-3.3c-0.7-1-1.4-1.9-2.4-2.8c-1.7-1.6-3.8-2.7-6.1-3.3c-2.3-0.5-4.6-0.5-6.9,0c-1.9,0.5-3.6,1.3-5.2,2.6
			c-1.6,1.2-2.8,2.7-3.8,4.4c-1,1.7-1.6,3.6-1.9,5.4c-0.3,1.9-0.3,3.7,0.1,5.5c0.3,1.8,0.9,3.5,1.8,5c0.9,1.6,2,3,3.3,4.1
			c1.4,1.2,2.9,2.1,4.6,2.7c1.7,0.6,3.7,0.9,5.7,0.8c1.4-0.1,2.8-0.4,4.1-0.9c1.3-0.6,2.5-1.3,3.6-2.2c1.1-0.9,2.1-2,2.9-3.2
			c0.8-1.2,1.4-2.4,1.9-3.8l1,0.4v0.1c-0.2,0.7-0.5,1.5-0.9,2.2c-0.4,0.7-0.8,1.4-1.2,2c-0.8,1.2-1.8,2.2-2.8,3
			c-1.1,0.9-2.2,1.6-3.4,2.1c-1.2,0.5-2.5,0.9-3.9,1.2C644.1,553.6,642.8,553.7,641.4,553.5z"/>
		<path class="st15" d="M675.7,553.4c-1.3-0.2-2.5-0.6-3.7-1.2c-1.2-0.6-2.3-1.3-3.3-2.1c-1-0.8-1.9-1.7-2.8-2.8
			c-0.8-1-1.5-2.1-2-3.3c-1-2.2-1.5-4.4-1.6-6.5c-0.1-2.1,0.2-4.1,0.8-5.9c0.6-1.8,1.5-3.5,2.7-5c1.2-1.5,2.6-2.8,4.2-3.8
			c1.6-1,3.3-1.8,5.2-2.3c1.9-0.5,3.8-0.6,5.7-0.5c1.9,0.2,3.8,0.7,5.7,1.7c1.9,0.9,3.7,2.3,5.3,4.1c1.1,1.2,1.9,2.5,2.6,3.9
			c0.6,1.4,1.1,2.9,1.4,4.5c0.4,2,0.4,3.9,0,5.7c-0.3,1.8-0.9,3.5-1.8,5c-0.9,1.5-1.9,2.9-3.3,4.1c-1.3,1.2-2.8,2.2-4.4,3
			c-1.6,0.7-3.3,1.2-5.2,1.5C679.6,553.9,677.7,553.8,675.7,553.4z M676.6,552.4c1.5,0.2,3,0.3,4.4,0.1c1.5-0.2,2.9-0.5,4.3-1.1
			c1.4-0.5,2.6-1.3,3.8-2.2c1.1-0.9,2.2-2,3-3.2c1.2-1.6,2-3.3,2.4-5.1c0.5-1.8,0.6-3.6,0.5-5.4c-0.2-1.8-0.6-3.5-1.3-5.1
			c-0.7-1.6-1.7-3.1-2.9-4.4c-1.2-1.3-2.6-2.4-4.3-3.2c-1.7-0.9-3.5-1.4-5.5-1.6c-1.6-0.2-3.2-0.1-4.9,0.2c-1.6,0.3-3.1,0.9-4.5,1.8
			c-1,0.6-2,1.3-3,2.2c-0.9,0.9-1.8,1.9-2.5,2.9c-0.7,1.1-1.3,2.2-1.8,3.4c-0.5,1.2-0.7,2.4-0.7,3.7c-0.1,1.9,0.1,3.8,0.5,5.6
			c0.4,1.8,1.2,3.5,2.4,5.1c1.2,1.7,2.6,3.1,4.4,4.1C672.6,551.3,674.5,552,676.6,552.4z"/>
		<path class="st15" d="M702.9,520.1v32.2H717v1.1h-15.3v-33.3H702.9z"/>
		<path class="st15" d="M721.4,520.1v32.2h14.1v1.1h-15.3v-33.3H721.4z"/>
		<path class="st15" d="M759.3,520.1v1h-19.6V534h8.1v1.2h-8.1v17h19v1.1h-20.1v-33.3H759.3z"/>
		<path class="st15" d="M776.2,553.5c-2-0.2-3.8-0.8-5.5-1.7c-1.7-1-3.2-2.2-4.5-3.6c-0.7-0.8-1.3-1.6-1.9-2.6
			c-0.5-0.9-1-1.9-1.3-2.9c-0.7-1.9-1-3.8-1-5.7c0-1.9,0.3-3.8,0.9-5.5c0.6-1.7,1.4-3.4,2.5-4.9c1.1-1.5,2.4-2.7,3.9-3.8
			c1.5-1,3.2-1.7,5-2.2c1.8-0.4,3.8-0.5,5.8-0.2c2.4,0.4,4.6,1.3,6.6,2.9c2,1.5,3.5,3.4,4.7,5.5c0.1,0.1,0.2,0.3,0.3,0.7
			c0.2,0.3,0.3,0.6,0.3,0.8c0,0.1,0,0.2,0.1,0.3c0.1,0.1,0.1,0.2,0.1,0.3c-0.2,0.1-0.3,0.2-0.5,0.3c-0.2,0.1-0.4,0.2-0.5,0.1
			c-0.5-1.2-1.1-2.3-1.7-3.3c-0.6-1-1.4-1.9-2.4-2.8c-1.8-1.6-3.8-2.7-6.1-3.3c-2.3-0.5-4.6-0.5-6.9,0c-1.9,0.5-3.6,1.3-5.2,2.6
			c-1.6,1.2-2.8,2.7-3.8,4.4c-1,1.7-1.6,3.6-1.9,5.4c-0.3,1.9-0.3,3.7,0.1,5.5c0.3,1.8,0.9,3.5,1.8,5c0.9,1.6,2,3,3.3,4.1
			c1.3,1.2,2.9,2.1,4.6,2.7c1.7,0.6,3.7,0.9,5.7,0.8c1.4-0.1,2.8-0.4,4.1-0.9c1.3-0.6,2.5-1.3,3.6-2.2s2.1-2,2.9-3.2
			c0.8-1.2,1.4-2.4,1.9-3.8l1,0.4v0.1c-0.2,0.7-0.6,1.5-0.9,2.2c-0.3,0.7-0.7,1.4-1.2,2c-0.8,1.2-1.7,2.2-2.8,3
			c-1.1,0.9-2.2,1.6-3.4,2.1c-1.2,0.5-2.5,0.9-3.9,1.2C779,553.6,777.6,553.7,776.2,553.5z"/>
		<path class="st15" d="M795.9,521.3v-1.1h18.8v1.1h-9v32.2h-1.1v-32.2H795.9z"/>
		<path class="st15" d="M820,520v33.4h-1.1V520H820z"/>
		<path class="st15" d="M824.8,520h1.2l10.9,31.6l10.6-31.6h1.2l-11.2,33.4h-1.3L824.8,520z"/>
		<path class="st15" d="M874.4,520.1v1h-19.6V534h8.1v1.2h-8.1v17h19v1.1h-20.2v-33.3H874.4z"/>
	</g>
	<g>
		<g>
			<path class="st16" d="M404.2,581.9h4.5c0.6,0,1.2,0.1,1.8,0.2c0.6,0.1,1.1,0.3,1.6,0.6c0.5,0.3,0.8,0.7,1.1,1.2
				c0.3,0.5,0.4,1.1,0.4,1.8c0,0.8-0.2,1.5-0.7,2.1c-0.5,0.6-1.1,1-2,1.2v0c1.1,0.1,1.9,0.5,2.5,1.1c0.6,0.7,0.9,1.5,0.9,2.7
				c0,0.2-0.1,0.6-0.2,1.1c-0.1,0.5-0.4,0.9-0.8,1.4c-0.4,0.5-0.9,0.9-1.7,1.2c-0.7,0.3-1.7,0.5-2.9,0.5h-4.6V581.9z M405.7,588.5
				h3.1c0.4,0,0.7-0.1,1.1-0.1c0.4-0.1,0.7-0.3,1-0.5c0.3-0.2,0.5-0.5,0.7-0.8c0.2-0.3,0.3-0.7,0.3-1.2c0-0.2,0-0.4-0.1-0.7
				c-0.1-0.3-0.2-0.6-0.4-0.9c-0.2-0.3-0.5-0.5-1-0.7c-0.4-0.2-1-0.3-1.7-0.3h-3V588.5z M405.7,595.6h3c0.6,0,1.1-0.1,1.6-0.2
				c0.5-0.1,0.9-0.3,1.3-0.5c0.4-0.2,0.6-0.5,0.8-0.9c0.2-0.4,0.3-0.8,0.3-1.3c0-1-0.3-1.7-1-2.2c-0.6-0.5-1.6-0.7-2.8-0.7h-3.1
				V595.6z"/>
			<path class="st16" d="M417.3,590.1c0-0.4,0-0.9,0-1.3c0-0.5,0-1.1,0-1.8h1.4v1.9h0c0.1-0.3,0.2-0.5,0.4-0.8
				c0.2-0.2,0.4-0.5,0.7-0.7c0.3-0.2,0.6-0.4,0.9-0.5c0.4-0.1,0.8-0.2,1.2-0.2c0.4,0,0.7,0,1.1,0.1l-0.3,1.4
				c-0.2-0.1-0.5-0.1-0.8-0.1c-0.5,0-1,0.1-1.4,0.3c-0.4,0.2-0.7,0.5-1,0.8c-0.3,0.3-0.4,0.7-0.6,1c-0.1,0.4-0.2,0.7-0.2,1.1v5.6
				h-1.4V590.1z"/>
			<path class="st16" d="M426.3,583.2c0,0.3-0.1,0.5-0.3,0.7c-0.2,0.2-0.4,0.3-0.7,0.3c-0.3,0-0.5-0.1-0.7-0.3
				c-0.2-0.2-0.3-0.4-0.3-0.7c0-0.3,0.1-0.5,0.3-0.7c0.2-0.2,0.4-0.3,0.7-0.3c0.3,0,0.5,0.1,0.7,0.3
				C426.2,582.6,426.3,582.9,426.3,583.2z M426,597h-1.4v-10h1.4V597z"/>
			<path class="st16" d="M430.7,587c0,0.3,0,0.5,0,0.8c0,0.3,0,0.5,0,0.8h0c0.2-0.3,0.4-0.5,0.6-0.8c0.2-0.2,0.5-0.4,0.8-0.6
				c0.3-0.2,0.6-0.3,0.9-0.4c0.3-0.1,0.7-0.1,1-0.1c1.3,0,2.2,0.3,2.9,1c0.6,0.7,0.9,1.6,0.9,2.9v6.4h-1.4v-5.5c0-1.1-0.2-2-0.6-2.6
				c-0.4-0.6-1.1-0.9-2.1-0.9c-0.1,0-0.3,0-0.6,0.1c-0.3,0.1-0.7,0.2-1,0.5c-0.4,0.3-0.7,0.6-1,1.2c-0.3,0.5-0.4,1.2-0.4,2.1v5.1
				h-1.4v-7.8c0-0.3,0-0.6,0-1c0-0.4-0.1-0.8-0.1-1.2H430.7z"/>
			<path class="st16" d="M442,599.1c0.4,0.5,1,1,1.6,1.3c0.7,0.3,1.4,0.5,2.2,0.5c0.7,0,1.3-0.1,1.8-0.3c0.5-0.2,0.9-0.5,1.2-0.8
				c0.3-0.4,0.5-0.8,0.7-1.3c0.1-0.5,0.2-1,0.2-1.5v-1.8h0c-0.5,0.7-1,1.2-1.7,1.5c-0.6,0.3-1.3,0.4-2.1,0.4c-0.7,0-1.4-0.1-2-0.4
				c-0.6-0.3-1.2-0.6-1.7-1.1c-0.5-0.5-0.8-1-1.1-1.6c-0.3-0.6-0.4-1.3-0.4-2c0-0.7,0.1-1.4,0.4-2c0.3-0.6,0.6-1.2,1.1-1.6
				c0.5-0.5,1-0.8,1.6-1.1c0.6-0.3,1.3-0.4,2-0.4c0.3,0,0.6,0,1,0.1c0.3,0.1,0.7,0.2,1,0.3c0.3,0.2,0.7,0.3,1,0.6
				c0.3,0.2,0.6,0.6,0.9,0.9h0V587h1.4v9.9c0,0.5-0.1,1.1-0.2,1.7c-0.1,0.6-0.4,1.2-0.8,1.7c-0.4,0.5-0.9,1-1.6,1.3
				c-0.7,0.3-1.6,0.5-2.7,0.5c-1,0-1.9-0.2-2.7-0.5c-0.8-0.3-1.5-0.8-2.1-1.5L442,599.1z M442.3,591.9c0,0.5,0.1,1,0.3,1.5
				c0.2,0.5,0.5,0.9,0.8,1.2c0.3,0.4,0.7,0.6,1.2,0.8c0.4,0.2,0.9,0.3,1.5,0.3c0.5,0,1-0.1,1.5-0.3c0.5-0.2,0.9-0.4,1.2-0.8
				c0.4-0.3,0.6-0.7,0.8-1.2c0.2-0.5,0.3-1,0.3-1.6c0-0.5-0.1-1-0.3-1.5c-0.2-0.5-0.4-0.9-0.8-1.2c-0.3-0.4-0.7-0.6-1.2-0.8
				c-0.5-0.2-1-0.3-1.6-0.3c-0.5,0-1,0.1-1.5,0.3c-0.4,0.2-0.8,0.5-1.2,0.8c-0.3,0.3-0.6,0.8-0.8,1.2
				C442.4,590.9,442.3,591.4,442.3,591.9z"/>
			<path class="st16" d="M456.4,583.2c0,0.3-0.1,0.5-0.3,0.7c-0.2,0.2-0.5,0.3-0.7,0.3c-0.3,0-0.5-0.1-0.7-0.3
				c-0.2-0.2-0.3-0.4-0.3-0.7c0-0.3,0.1-0.5,0.3-0.7c0.2-0.2,0.4-0.3,0.7-0.3c0.2,0,0.5,0.1,0.7,0.3
				C456.3,582.6,456.4,582.9,456.4,583.2z M456.1,597h-1.4v-10h1.4V597z"/>
			<path class="st16" d="M460.8,587c0,0.3,0,0.5,0.1,0.8c0,0.3,0,0.5,0,0.8h0c0.2-0.3,0.4-0.5,0.6-0.8c0.2-0.2,0.5-0.4,0.8-0.6
				c0.3-0.2,0.6-0.3,1-0.4c0.3-0.1,0.7-0.1,1-0.1c1.3,0,2.2,0.3,2.9,1c0.6,0.7,0.9,1.6,0.9,2.9v6.4h-1.4v-5.5c0-1.1-0.2-2-0.6-2.6
				c-0.4-0.6-1.1-0.9-2.1-0.9c-0.1,0-0.3,0-0.6,0.1c-0.3,0.1-0.7,0.2-1,0.5c-0.4,0.3-0.7,0.6-1,1.2c-0.3,0.5-0.4,1.2-0.4,2.1v5.1
				h-1.4v-7.8c0-0.3,0-0.6,0-1c0-0.4,0-0.8-0.1-1.2H460.8z"/>
			<path class="st16" d="M472.2,599.1c0.4,0.5,1,1,1.6,1.3c0.7,0.3,1.4,0.5,2.2,0.5c0.7,0,1.3-0.1,1.8-0.3c0.5-0.2,0.9-0.5,1.2-0.8
				c0.3-0.4,0.5-0.8,0.7-1.3c0.1-0.5,0.2-1,0.2-1.5v-1.8h0c-0.5,0.7-1,1.2-1.7,1.5c-0.7,0.3-1.3,0.4-2.1,0.4c-0.7,0-1.4-0.1-2-0.4
				c-0.6-0.3-1.2-0.6-1.7-1.1c-0.5-0.5-0.8-1-1.1-1.6c-0.3-0.6-0.4-1.3-0.4-2c0-0.7,0.1-1.4,0.4-2c0.2-0.6,0.6-1.2,1.1-1.6
				c0.4-0.5,1-0.8,1.6-1.1c0.6-0.3,1.3-0.4,2.1-0.4c0.3,0,0.6,0,0.9,0.1c0.3,0.1,0.7,0.2,1,0.3c0.3,0.2,0.7,0.3,1,0.6
				c0.3,0.2,0.6,0.6,0.9,0.9h0V587h1.4v9.9c0,0.5-0.1,1.1-0.2,1.7c-0.1,0.6-0.4,1.2-0.8,1.7c-0.4,0.5-0.9,1-1.6,1.3
				c-0.7,0.3-1.6,0.5-2.7,0.5c-1,0-1.9-0.2-2.7-0.5c-0.8-0.3-1.5-0.8-2.1-1.5L472.2,599.1z M472.4,591.9c0,0.5,0.1,1,0.3,1.5
				c0.2,0.5,0.5,0.9,0.8,1.2c0.3,0.4,0.7,0.6,1.2,0.8c0.4,0.2,0.9,0.3,1.5,0.3c0.5,0,1-0.1,1.5-0.3c0.5-0.2,0.9-0.4,1.2-0.8
				c0.4-0.3,0.6-0.7,0.8-1.2c0.2-0.5,0.3-1,0.3-1.6c0-0.5-0.1-1-0.3-1.5c-0.2-0.5-0.4-0.9-0.7-1.2c-0.3-0.4-0.7-0.6-1.2-0.8
				c-0.5-0.2-1-0.3-1.6-0.3c-0.5,0-1,0.1-1.5,0.3c-0.4,0.2-0.8,0.5-1.2,0.8c-0.3,0.3-0.6,0.8-0.8,1.2
				C472.5,590.9,472.4,591.4,472.4,591.9z"/>
			<path class="st16" d="M490.4,580.9h1.4v7.8h0c0.2-0.3,0.5-0.6,0.8-0.9c0.3-0.2,0.7-0.4,1-0.6c0.3-0.2,0.7-0.3,1.1-0.3
				c0.4-0.1,0.7-0.1,1-0.1c0.8,0,1.5,0.1,2.2,0.4c0.6,0.3,1.2,0.6,1.7,1.1c0.5,0.5,0.8,1,1.1,1.7c0.3,0.6,0.4,1.3,0.4,2.1
				c0,0.8-0.1,1.5-0.4,2.1c-0.3,0.6-0.6,1.2-1.1,1.7c-0.5,0.5-1,0.8-1.7,1.1c-0.7,0.3-1.4,0.4-2.2,0.4c-0.3,0-0.7,0-1-0.1
				c-0.4-0.1-0.7-0.2-1.1-0.3c-0.3-0.2-0.7-0.4-1-0.6c-0.3-0.2-0.6-0.5-0.8-0.9h0v1.7h-1.4V580.9z M499.5,592c0-0.6-0.1-1.1-0.3-1.6
				c-0.2-0.5-0.4-0.9-0.8-1.3c-0.3-0.4-0.7-0.6-1.2-0.8c-0.5-0.2-1-0.3-1.6-0.3c-0.6,0-1.1,0.1-1.6,0.3c-0.5,0.2-0.9,0.5-1.3,0.8
				c-0.3,0.4-0.6,0.8-0.8,1.3c-0.2,0.5-0.3,1-0.3,1.6c0,0.6,0.1,1.1,0.3,1.6c0.2,0.5,0.5,0.9,0.8,1.3c0.4,0.4,0.8,0.6,1.3,0.8
				c0.5,0.2,1,0.3,1.6,0.3c0.6,0,1.1-0.1,1.6-0.3c0.5-0.2,0.9-0.5,1.2-0.8c0.3-0.3,0.6-0.8,0.8-1.3
				C499.5,593.1,499.5,592.6,499.5,592z"/>
			<path class="st16" d="M503.6,590.1c0-0.4,0-0.9,0-1.3c0-0.5,0-1.1,0-1.8h1.4v1.9h0c0.1-0.3,0.2-0.5,0.4-0.8
				c0.2-0.2,0.4-0.5,0.7-0.7c0.3-0.2,0.6-0.4,0.9-0.5c0.3-0.1,0.7-0.2,1.2-0.2c0.4,0,0.8,0,1,0.1l-0.3,1.4c-0.2-0.1-0.5-0.1-0.8-0.1
				c-0.5,0-1,0.1-1.4,0.3c-0.4,0.2-0.7,0.5-1,0.8c-0.3,0.3-0.4,0.7-0.6,1c-0.1,0.4-0.2,0.7-0.2,1.1v5.6h-1.4V590.1z"/>
			<path class="st16" d="M517,590.9v-0.3c0-1.7-0.9-2.6-2.6-2.6c-1.2,0-2.2,0.4-3.1,1.2l-0.9-1c0.9-1,2.3-1.4,4.2-1.4
				c0.5,0,0.9,0.1,1.4,0.2c0.4,0.1,0.8,0.4,1.2,0.7c0.3,0.3,0.6,0.7,0.8,1.1c0.2,0.4,0.3,1,0.3,1.6v4.5c0,0.4,0,0.8,0.1,1.2
				c0,0.4,0.1,0.8,0.1,1h-1.4c0-0.2-0.1-0.5-0.1-0.8c0-0.3,0-0.6,0-0.8H517c-0.4,0.7-0.9,1.1-1.5,1.4c-0.6,0.3-1.3,0.4-2.1,0.4
				c-0.4,0-0.9-0.1-1.3-0.2c-0.4-0.1-0.8-0.3-1.1-0.6c-0.3-0.2-0.6-0.6-0.8-0.9c-0.2-0.4-0.3-0.8-0.3-1.3c0-0.8,0.2-1.5,0.6-1.9
				c0.4-0.5,0.9-0.8,1.6-1c0.6-0.2,1.3-0.4,2-0.4c0.7-0.1,1.4-0.1,2-0.1H517z M516.3,592.1c-0.4,0-0.8,0-1.3,0.1
				c-0.5,0-1,0.1-1.5,0.2c-0.5,0.1-0.9,0.3-1.3,0.6c-0.3,0.3-0.5,0.7-0.5,1.2c0,0.3,0.1,0.6,0.2,0.8c0.1,0.2,0.3,0.4,0.5,0.6
				c0.2,0.1,0.5,0.3,0.8,0.3c0.3,0.1,0.6,0.1,0.9,0.1c0.5,0,1-0.1,1.3-0.2c0.4-0.2,0.7-0.4,0.9-0.7c0.3-0.3,0.4-0.6,0.6-1
				c0.1-0.4,0.2-0.8,0.2-1.3v-0.7H516.3z"/>
			<path class="st16" d="M523,587c0,0.3,0,0.5,0.1,0.8c0,0.3,0,0.5,0,0.8h0c0.2-0.3,0.4-0.5,0.6-0.8c0.2-0.2,0.5-0.4,0.8-0.6
				c0.3-0.2,0.6-0.3,1-0.4c0.3-0.1,0.7-0.1,1-0.1c1.3,0,2.2,0.3,2.8,1c0.6,0.7,0.9,1.6,0.9,2.9v6.4h-1.4v-5.5c0-1.1-0.2-2-0.6-2.6
				c-0.4-0.6-1.1-0.9-2.1-0.9c-0.1,0-0.3,0-0.6,0.1c-0.3,0.1-0.7,0.2-1,0.5c-0.4,0.3-0.7,0.6-1,1.2c-0.3,0.5-0.4,1.2-0.4,2.1v5.1
				h-1.4v-7.8c0-0.3,0-0.6,0-1c0-0.4,0-0.8-0.1-1.2H523z"/>
			<path class="st16" d="M543.6,597h-1.4v-1.7h0c-0.2,0.3-0.5,0.6-0.8,0.9c-0.3,0.2-0.6,0.4-1,0.6c-0.3,0.2-0.7,0.3-1.1,0.3
				c-0.4,0.1-0.7,0.1-1,0.1c-0.8,0-1.5-0.1-2.2-0.4c-0.7-0.3-1.2-0.6-1.7-1.1c-0.5-0.5-0.8-1-1.1-1.7c-0.3-0.6-0.4-1.3-0.4-2.1
				c0-0.7,0.1-1.4,0.4-2.1c0.3-0.6,0.6-1.2,1.1-1.7c0.5-0.5,1-0.8,1.7-1.1c0.7-0.3,1.4-0.4,2.2-0.4c0.3,0,0.7,0,1,0.1
				c0.4,0.1,0.7,0.2,1.1,0.3c0.3,0.2,0.7,0.4,1,0.6c0.3,0.2,0.6,0.5,0.8,0.9h0v-7.8h1.4V597z M534.4,592c0,0.6,0.1,1.1,0.3,1.6
				c0.2,0.5,0.4,0.9,0.8,1.3c0.3,0.4,0.7,0.6,1.2,0.8c0.5,0.2,1,0.3,1.6,0.3c0.6,0,1.1-0.1,1.6-0.3c0.5-0.2,0.9-0.5,1.3-0.8
				c0.4-0.3,0.6-0.8,0.8-1.3c0.2-0.5,0.3-1,0.3-1.6c0-0.6-0.1-1.1-0.3-1.6c-0.2-0.5-0.5-0.9-0.8-1.3c-0.4-0.4-0.8-0.6-1.3-0.8
				c-0.5-0.2-1-0.3-1.6-0.3c-0.6,0-1.1,0.1-1.6,0.3c-0.5,0.2-0.9,0.5-1.2,0.8c-0.3,0.4-0.6,0.8-0.8,1.3
				C534.5,591,534.4,591.5,534.4,592z"/>
			<path class="st16" d="M552,589.4c-0.2-0.4-0.5-0.7-0.9-1c-0.4-0.3-0.8-0.4-1.3-0.4c-0.2,0-0.5,0-0.7,0.1
				c-0.2,0.1-0.5,0.2-0.7,0.3c-0.2,0.1-0.4,0.3-0.5,0.5c-0.1,0.2-0.2,0.4-0.2,0.7c0,0.5,0.2,0.8,0.5,1c0.3,0.2,0.8,0.4,1.5,0.5
				l1.4,0.3c0.7,0.2,1.3,0.5,1.7,1c0.5,0.5,0.7,1.1,0.7,1.8c0,0.5-0.1,1-0.3,1.4c-0.2,0.4-0.5,0.7-0.9,1c-0.4,0.2-0.8,0.4-1.2,0.5
				c-0.5,0.1-1,0.2-1.4,0.2c-0.8,0-1.5-0.1-2.1-0.4c-0.7-0.3-1.2-0.8-1.7-1.5l1.2-0.8c0.3,0.5,0.6,0.8,1.1,1.1
				c0.4,0.3,1,0.4,1.5,0.4c0.3,0,0.6,0,0.9-0.1c0.3-0.1,0.5-0.2,0.8-0.3c0.2-0.1,0.4-0.3,0.5-0.5c0.1-0.2,0.2-0.5,0.2-0.7
				c0-0.5-0.2-0.9-0.6-1.1c-0.4-0.2-0.8-0.4-1.3-0.5l-1.4-0.3c-0.2,0-0.4-0.1-0.7-0.2c-0.3-0.1-0.6-0.2-0.9-0.4
				c-0.3-0.2-0.5-0.5-0.7-0.8c-0.2-0.3-0.3-0.7-0.3-1.2c0-0.5,0.1-1,0.3-1.3c0.2-0.4,0.5-0.7,0.8-0.9c0.3-0.2,0.7-0.4,1.2-0.6
				c0.4-0.1,0.9-0.2,1.4-0.2c0.7,0,1.4,0.1,2,0.4c0.6,0.3,1.1,0.7,1.4,1.4L552,589.4z"/>
			<path class="st16" d="M566.9,588.3H564v5.9c0,0.4,0,0.7,0.1,0.9c0.1,0.2,0.2,0.4,0.3,0.5c0.1,0.1,0.3,0.2,0.5,0.3
				c0.2,0.1,0.4,0.1,0.6,0.1c0.2,0,0.5,0,0.7-0.1c0.3-0.1,0.5-0.2,0.7-0.3l0.1,1.3c-0.5,0.2-1.2,0.4-1.9,0.4c-0.3,0-0.6,0-0.8-0.1
				c-0.3-0.1-0.6-0.2-0.8-0.4c-0.2-0.2-0.4-0.5-0.6-0.8c-0.2-0.3-0.2-0.8-0.2-1.3v-6.3h-2.1V587h2.1v-2.8h1.4v2.8h2.9V588.3z"/>
			<path class="st16" d="M578.9,592c0,0.8-0.1,1.5-0.4,2.1c-0.3,0.6-0.6,1.2-1.1,1.7c-0.5,0.5-1,0.8-1.7,1.1
				c-0.7,0.3-1.4,0.4-2.1,0.4c-0.8,0-1.5-0.1-2.1-0.4c-0.7-0.3-1.2-0.6-1.7-1.1c-0.5-0.5-0.8-1-1.1-1.7c-0.3-0.6-0.4-1.3-0.4-2.1
				c0-0.7,0.1-1.4,0.4-2.1c0.3-0.6,0.6-1.2,1.1-1.7c0.5-0.5,1-0.8,1.7-1.1c0.6-0.3,1.4-0.4,2.1-0.4c0.8,0,1.5,0.1,2.1,0.4
				c0.6,0.3,1.2,0.6,1.7,1.1c0.5,0.5,0.8,1,1.1,1.7C578.8,590.6,578.9,591.3,578.9,592z M577.4,592c0-0.6-0.1-1.1-0.3-1.6
				c-0.2-0.5-0.4-0.9-0.8-1.3c-0.3-0.4-0.7-0.6-1.2-0.8c-0.5-0.2-1-0.3-1.6-0.3c-0.6,0-1.1,0.1-1.6,0.3c-0.5,0.2-0.9,0.5-1.2,0.8
				c-0.3,0.4-0.6,0.8-0.8,1.3c-0.2,0.5-0.3,1-0.3,1.6c0,0.6,0.1,1.1,0.3,1.6c0.2,0.5,0.4,0.9,0.8,1.3c0.3,0.4,0.7,0.6,1.2,0.8
				c0.5,0.2,1,0.3,1.6,0.3c0.6,0,1.1-0.1,1.6-0.3c0.5-0.2,0.9-0.5,1.2-0.8c0.3-0.3,0.6-0.8,0.8-1.3
				C577.3,593.1,577.4,592.6,577.4,592z"/>
			<path class="st16" d="M589.2,597h-1.4v-16.2h1.4V597z"/>
			<path class="st16" d="M594.6,583.2c0,0.3-0.1,0.5-0.3,0.7c-0.2,0.2-0.4,0.3-0.7,0.3c-0.2,0-0.5-0.1-0.7-0.3
				c-0.2-0.2-0.3-0.4-0.3-0.7c0-0.3,0.1-0.5,0.3-0.7c0.2-0.2,0.4-0.3,0.7-0.3c0.3,0,0.5,0.1,0.7,0.3
				C594.5,582.6,594.6,582.9,594.6,583.2z M594.3,597h-1.4v-10h1.4V597z"/>
			<path class="st16" d="M602.4,588.3H600v8.7h-1.4v-8.7h-2.1V587h2.1v-2.7c0-1.3,0.3-2.3,0.9-2.8c0.6-0.6,1.4-0.8,2.4-0.8
				c0.2,0,0.4,0,0.6,0c0.2,0,0.4,0.1,0.6,0.1l-0.3,1.3c-0.2,0-0.4-0.1-0.5-0.1c-0.2,0-0.4,0-0.6,0c-0.4,0-0.7,0.1-0.9,0.2
				c-0.2,0.1-0.4,0.3-0.6,0.6c-0.1,0.2-0.2,0.5-0.3,0.8c0,0.3-0.1,0.6-0.1,1v2.6h2.4V588.3z"/>
			<path class="st16" d="M605,592.4c0,0.5,0.2,1,0.4,1.4c0.2,0.4,0.5,0.8,0.8,1.1c0.3,0.3,0.7,0.6,1.1,0.8c0.4,0.2,0.9,0.3,1.4,0.3
				c0.8,0,1.4-0.2,2-0.5c0.6-0.3,1-0.7,1.2-1.2l1.1,0.9c-0.6,0.8-1.3,1.3-2,1.6c-0.7,0.3-1.5,0.5-2.3,0.5c-0.7,0-1.4-0.1-2.1-0.4
				c-0.6-0.3-1.2-0.6-1.6-1.1c-0.5-0.5-0.8-1-1.1-1.7c-0.3-0.6-0.4-1.3-0.4-2.1c0-0.7,0.1-1.4,0.4-2.1c0.3-0.6,0.6-1.2,1.1-1.7
				c0.5-0.5,1-0.8,1.6-1.1c0.6-0.3,1.3-0.4,2-0.4c0.8,0,1.4,0.1,2,0.4c0.6,0.3,1.1,0.6,1.5,1.1c0.4,0.4,0.7,1,0.9,1.6
				c0.2,0.6,0.3,1.2,0.3,1.9v0.6H605z M611.8,591.3c0-1-0.3-1.7-0.9-2.3c-0.6-0.6-1.4-0.9-2.4-0.9c-0.5,0-0.9,0.1-1.3,0.3
				c-0.4,0.2-0.8,0.4-1.1,0.7c-0.3,0.3-0.6,0.6-0.8,1c-0.2,0.4-0.3,0.8-0.3,1.2H611.8z"/>
		</g>
		<g>
			<path class="st16" d="M666.3,581.2h4.5c0.6,0,1.2,0.1,1.8,0.2c0.6,0.1,1.1,0.3,1.6,0.6c0.5,0.3,0.8,0.7,1.1,1.2
				c0.3,0.5,0.4,1.1,0.4,1.8c0,0.8-0.2,1.5-0.7,2.1c-0.5,0.6-1.1,1-2,1.2v0.1c1.1,0.1,1.9,0.5,2.5,1.1c0.6,0.7,0.9,1.6,0.9,2.7
				c0,0.3-0.1,0.6-0.2,1.1c-0.1,0.5-0.4,0.9-0.8,1.4c-0.4,0.5-0.9,0.9-1.7,1.2c-0.7,0.3-1.7,0.5-2.9,0.5h-4.6V581.2z M667.8,587.9
				h3.1c0.4,0,0.7-0.1,1.1-0.1c0.4-0.1,0.7-0.2,1-0.5c0.3-0.2,0.5-0.5,0.7-0.8c0.2-0.3,0.3-0.7,0.3-1.2c0-0.2,0-0.4-0.1-0.6
				c-0.1-0.3-0.2-0.6-0.4-0.9c-0.2-0.3-0.5-0.5-1-0.7c-0.4-0.2-1-0.3-1.7-0.3h-3V587.9z M667.8,595h3c0.5,0,1.1-0.1,1.6-0.2
				c0.5-0.1,0.9-0.3,1.3-0.5c0.4-0.2,0.6-0.5,0.8-0.9c0.2-0.4,0.3-0.8,0.3-1.3c0-1-0.3-1.7-1-2.2c-0.6-0.5-1.6-0.7-2.8-0.7h-3.1V595
				z"/>
			<path class="st16" d="M679.4,589.5c0-0.4,0-0.9,0-1.3c0-0.5,0-1-0.1-1.8h1.4v1.9h0c0.1-0.3,0.2-0.5,0.4-0.8
				c0.2-0.2,0.4-0.5,0.7-0.7c0.3-0.2,0.6-0.4,0.9-0.5c0.4-0.1,0.7-0.2,1.2-0.2c0.4,0,0.7,0,1.1,0.1l-0.3,1.4
				c-0.2-0.1-0.5-0.1-0.8-0.1c-0.5,0-1,0.1-1.4,0.3c-0.4,0.2-0.7,0.5-1,0.8c-0.3,0.3-0.4,0.7-0.6,1c-0.1,0.4-0.2,0.7-0.2,1.1v5.6
				h-1.4V589.5z"/>
			<path class="st16" d="M688.4,582.5c0,0.3-0.1,0.5-0.3,0.7c-0.2,0.2-0.4,0.3-0.7,0.3c-0.3,0-0.5-0.1-0.7-0.3
				c-0.2-0.2-0.3-0.4-0.3-0.7c0-0.3,0.1-0.6,0.3-0.7c0.2-0.2,0.4-0.3,0.7-0.3c0.2,0,0.5,0.1,0.7,0.3
				C688.3,582,688.4,582.2,688.4,582.5z M688.1,596.4h-1.4v-10h1.4V596.4z"/>
			<path class="st16" d="M692.8,586.4c0,0.3,0,0.5,0.1,0.8c0,0.3,0,0.5,0,0.8h0c0.2-0.3,0.4-0.5,0.6-0.7c0.2-0.2,0.5-0.4,0.8-0.6
				c0.3-0.2,0.6-0.3,1-0.4c0.3-0.1,0.7-0.1,1-0.1c1.3,0,2.2,0.3,2.8,1c0.6,0.7,0.9,1.6,0.9,2.9v6.3h-1.4v-5.5c0-1.1-0.2-2-0.6-2.6
				c-0.4-0.6-1.1-0.9-2.1-0.9c-0.1,0-0.3,0-0.6,0.1c-0.3,0.1-0.7,0.2-1,0.5c-0.4,0.2-0.7,0.6-1,1.1c-0.3,0.5-0.4,1.2-0.4,2.1v5.1
				h-1.4v-7.8c0-0.3,0-0.6,0-1c0-0.4,0-0.8-0.1-1.2H692.8z"/>
			<path class="st16" d="M704.1,598.4c0.4,0.6,1,1,1.6,1.3c0.7,0.3,1.4,0.5,2.2,0.5c0.7,0,1.3-0.1,1.8-0.3c0.5-0.2,0.9-0.5,1.2-0.8
				c0.3-0.4,0.5-0.8,0.7-1.3c0.1-0.5,0.2-1,0.2-1.5v-1.8h0c-0.4,0.7-1,1.2-1.7,1.5c-0.7,0.3-1.4,0.4-2.1,0.4c-0.7,0-1.4-0.1-2-0.4
				c-0.6-0.2-1.2-0.6-1.7-1c-0.5-0.5-0.8-1-1.1-1.6c-0.3-0.6-0.4-1.3-0.4-2s0.1-1.4,0.4-2c0.2-0.6,0.6-1.2,1.1-1.6
				c0.4-0.5,1-0.8,1.6-1.1c0.6-0.3,1.3-0.4,2-0.4c0.3,0,0.6,0,1,0.1c0.3,0.1,0.7,0.2,1,0.3c0.3,0.1,0.7,0.3,1,0.6
				c0.3,0.2,0.6,0.6,0.9,1h0v-1.7h1.4v9.9c0,0.5-0.1,1.1-0.2,1.7c-0.1,0.6-0.4,1.2-0.8,1.7c-0.4,0.5-0.9,0.9-1.6,1.3
				c-0.7,0.3-1.6,0.5-2.7,0.5c-1,0-1.9-0.2-2.7-0.5c-0.8-0.3-1.5-0.8-2.1-1.5L704.1,598.4z M704.4,591.3c0,0.5,0.1,1,0.3,1.5
				c0.2,0.5,0.5,0.9,0.8,1.2c0.3,0.3,0.7,0.6,1.2,0.8c0.5,0.2,0.9,0.3,1.5,0.3c0.5,0,1-0.1,1.5-0.3c0.5-0.2,0.9-0.4,1.2-0.8
				c0.4-0.3,0.6-0.7,0.8-1.2c0.2-0.5,0.3-1,0.3-1.6c0-0.5-0.1-1-0.3-1.5c-0.2-0.5-0.4-0.9-0.7-1.2c-0.3-0.4-0.7-0.6-1.2-0.8
				c-0.5-0.2-1-0.3-1.6-0.3c-0.5,0-1,0.1-1.5,0.3c-0.4,0.2-0.8,0.5-1.2,0.8c-0.3,0.3-0.6,0.8-0.8,1.2
				C704.5,590.2,704.4,590.7,704.4,591.3z"/>
			<path class="st16" d="M718.5,582.5c0,0.3-0.1,0.5-0.3,0.7c-0.2,0.2-0.4,0.3-0.7,0.3c-0.3,0-0.5-0.1-0.7-0.3
				c-0.2-0.2-0.3-0.4-0.3-0.7c0-0.3,0.1-0.6,0.3-0.7c0.2-0.2,0.4-0.3,0.7-0.3c0.3,0,0.5,0.1,0.7,0.3
				C718.4,582,718.5,582.2,718.5,582.5z M718.2,596.4h-1.4v-10h1.4V596.4z"/>
			<path class="st16" d="M722.9,586.4c0,0.3,0,0.5,0,0.8c0,0.3,0,0.5,0,0.8h0c0.2-0.3,0.4-0.5,0.6-0.7c0.2-0.2,0.5-0.4,0.8-0.6
				c0.3-0.2,0.6-0.3,1-0.4c0.3-0.1,0.7-0.1,1-0.1c1.3,0,2.2,0.3,2.8,1c0.6,0.7,0.9,1.6,0.9,2.9v6.3h-1.4v-5.5c0-1.1-0.2-2-0.6-2.6
				c-0.4-0.6-1.1-0.9-2.1-0.9c-0.1,0-0.3,0-0.6,0.1c-0.3,0.1-0.7,0.2-1,0.5c-0.4,0.2-0.7,0.6-1,1.1c-0.3,0.5-0.4,1.2-0.4,2.1v5.1
				h-1.4v-7.8c0-0.3,0-0.6,0-1c0-0.4-0.1-0.8-0.1-1.2H722.9z"/>
			<path class="st16" d="M734.2,598.4c0.4,0.6,0.9,1,1.6,1.3c0.7,0.3,1.4,0.5,2.2,0.5c0.7,0,1.3-0.1,1.8-0.3
				c0.5-0.2,0.9-0.5,1.2-0.8c0.3-0.4,0.5-0.8,0.7-1.3c0.1-0.5,0.2-1,0.2-1.5v-1.8h0c-0.5,0.7-1,1.2-1.7,1.5
				c-0.7,0.3-1.4,0.4-2.1,0.4c-0.7,0-1.4-0.1-2-0.4c-0.6-0.2-1.2-0.6-1.7-1c-0.5-0.5-0.9-1-1.1-1.6c-0.3-0.6-0.4-1.3-0.4-2
				s0.1-1.4,0.4-2c0.3-0.6,0.6-1.2,1.1-1.6c0.4-0.5,1-0.8,1.6-1.1c0.6-0.3,1.3-0.4,2-0.4c0.3,0,0.6,0,1,0.1c0.3,0.1,0.7,0.2,1,0.3
				c0.3,0.1,0.7,0.3,1,0.6c0.3,0.2,0.6,0.6,0.9,1h0v-1.7h1.4v9.9c0,0.5-0.1,1.1-0.2,1.7c-0.1,0.6-0.4,1.2-0.8,1.7
				c-0.4,0.5-0.9,0.9-1.6,1.3c-0.7,0.3-1.6,0.5-2.8,0.5c-1,0-1.9-0.2-2.7-0.5c-0.8-0.3-1.5-0.8-2.1-1.5L734.2,598.4z M734.5,591.3
				c0,0.5,0.1,1,0.3,1.5c0.2,0.5,0.5,0.9,0.8,1.2c0.3,0.3,0.7,0.6,1.2,0.8c0.5,0.2,0.9,0.3,1.5,0.3c0.5,0,1-0.1,1.5-0.3
				c0.5-0.2,0.9-0.4,1.2-0.8c0.4-0.3,0.6-0.7,0.8-1.2c0.2-0.5,0.3-1,0.3-1.6c0-0.5-0.1-1-0.3-1.5c-0.2-0.5-0.4-0.9-0.8-1.2
				c-0.3-0.4-0.7-0.6-1.2-0.8c-0.5-0.2-1-0.3-1.6-0.3c-0.5,0-1,0.1-1.5,0.3c-0.5,0.2-0.8,0.5-1.2,0.8c-0.3,0.3-0.6,0.8-0.8,1.2
				C734.6,590.2,734.5,590.7,734.5,591.3z"/>
			<path class="st16" d="M754.2,596.4h-1.4v-16.2h1.4V596.4z"/>
			<path class="st16" d="M759.7,582.5c0,0.3-0.1,0.5-0.3,0.7c-0.2,0.2-0.4,0.3-0.7,0.3c-0.3,0-0.5-0.1-0.7-0.3
				c-0.2-0.2-0.3-0.4-0.3-0.7c0-0.3,0.1-0.6,0.3-0.7c0.2-0.2,0.5-0.3,0.7-0.3c0.3,0,0.5,0.1,0.7,0.3
				C759.6,582,759.7,582.2,759.7,582.5z M759.3,596.4h-1.4v-10h1.4V596.4z"/>
			<path class="st16" d="M767.4,587.7H765v8.7h-1.4v-8.7h-2.1v-1.3h2.1v-2.7c0-1.3,0.3-2.3,0.9-2.8c0.6-0.6,1.4-0.8,2.4-0.8
				c0.2,0,0.4,0,0.6,0c0.2,0,0.4,0.1,0.6,0.1l-0.3,1.3c-0.2,0-0.3-0.1-0.5-0.1c-0.2,0-0.4,0-0.6,0c-0.4,0-0.7,0.1-0.9,0.2
				c-0.2,0.1-0.4,0.3-0.5,0.5c-0.1,0.3-0.2,0.5-0.3,0.8c0,0.3-0.1,0.7-0.1,1v2.6h2.4V587.7z"/>
			<path class="st16" d="M770.1,591.8c0,0.5,0.2,1,0.4,1.4c0.2,0.4,0.5,0.8,0.8,1.1c0.3,0.3,0.7,0.6,1.1,0.8
				c0.4,0.2,0.9,0.3,1.4,0.3c0.8,0,1.4-0.2,2-0.5c0.5-0.4,1-0.7,1.2-1.2l1.1,0.9c-0.6,0.8-1.3,1.3-2,1.6c-0.7,0.3-1.5,0.5-2.3,0.5
				c-0.7,0-1.4-0.1-2.1-0.4c-0.6-0.3-1.2-0.6-1.6-1.1c-0.5-0.5-0.8-1-1.1-1.7c-0.3-0.6-0.4-1.3-0.4-2.1c0-0.8,0.1-1.4,0.4-2.1
				c0.3-0.6,0.6-1.2,1.1-1.7c0.5-0.5,1-0.8,1.6-1.1c0.6-0.3,1.3-0.4,2-0.4c0.8,0,1.4,0.1,2,0.4c0.6,0.3,1.1,0.6,1.5,1.1
				c0.4,0.4,0.7,1,0.9,1.6c0.2,0.6,0.3,1.2,0.3,1.9v0.7H770.1z M776.9,590.6c0-1-0.3-1.7-0.8-2.3c-0.6-0.6-1.4-0.9-2.4-0.9
				c-0.5,0-0.9,0.1-1.3,0.3c-0.4,0.2-0.8,0.4-1.1,0.7c-0.3,0.3-0.6,0.6-0.8,1c-0.2,0.4-0.3,0.8-0.3,1.2H776.9z"/>
			<path class="st16" d="M792.1,587.7h-2.9v5.9c0,0.4,0,0.7,0.1,0.9c0.1,0.2,0.2,0.4,0.3,0.6c0.1,0.1,0.3,0.2,0.5,0.3
				c0.2,0,0.4,0.1,0.6,0.1c0.3,0,0.5,0,0.8-0.1c0.3-0.1,0.5-0.2,0.7-0.3l0.1,1.3c-0.5,0.2-1.2,0.4-1.9,0.4c-0.3,0-0.6,0-0.8-0.1
				c-0.3-0.1-0.6-0.2-0.8-0.4c-0.2-0.2-0.4-0.5-0.6-0.8c-0.1-0.3-0.2-0.8-0.2-1.4v-6.3h-2.1v-1.3h2.1v-2.8h1.4v2.8h2.9V587.7z"/>
			<path class="st16" d="M804.1,591.4c0,0.8-0.1,1.4-0.4,2.1c-0.3,0.6-0.6,1.2-1.1,1.7c-0.5,0.5-1,0.8-1.7,1.1
				c-0.7,0.3-1.4,0.4-2.2,0.4c-0.8,0-1.5-0.1-2.1-0.4c-0.7-0.3-1.2-0.6-1.7-1.1c-0.5-0.5-0.8-1-1.1-1.7c-0.3-0.6-0.4-1.3-0.4-2.1
				c0-0.8,0.1-1.4,0.4-2.1c0.3-0.6,0.6-1.2,1.1-1.7c0.5-0.5,1-0.8,1.7-1.1c0.6-0.3,1.4-0.4,2.1-0.4c0.8,0,1.5,0.1,2.2,0.4
				c0.7,0.3,1.2,0.6,1.7,1.1c0.5,0.5,0.8,1,1.1,1.7C804,589.9,804.1,590.6,804.1,591.4z M802.6,591.4c0-0.6-0.1-1.1-0.3-1.6
				c-0.2-0.5-0.4-0.9-0.8-1.3c-0.3-0.4-0.7-0.6-1.2-0.9c-0.5-0.2-1-0.3-1.6-0.3c-0.6,0-1.1,0.1-1.6,0.3c-0.5,0.2-0.9,0.5-1.2,0.9
				c-0.3,0.3-0.6,0.8-0.7,1.3c-0.2,0.5-0.3,1-0.3,1.6c0,0.6,0.1,1.1,0.3,1.6c0.2,0.5,0.4,0.9,0.7,1.3c0.3,0.4,0.7,0.6,1.2,0.8
				c0.5,0.2,1,0.3,1.6,0.3c0.6,0,1.1-0.1,1.6-0.3c0.5-0.2,0.9-0.5,1.2-0.8c0.3-0.4,0.6-0.8,0.8-1.3
				C802.5,592.5,802.6,591.9,802.6,591.4z"/>
			<path class="st16" d="M812.7,580.2h1.4v7.8h0c0.2-0.4,0.5-0.6,0.8-0.9c0.3-0.2,0.6-0.4,1-0.6c0.3-0.2,0.7-0.3,1.1-0.3
				c0.4-0.1,0.7-0.1,1-0.1c0.8,0,1.5,0.1,2.1,0.4c0.6,0.3,1.2,0.6,1.7,1.1c0.5,0.5,0.8,1,1.1,1.7c0.3,0.6,0.4,1.3,0.4,2.1
				c0,0.8-0.1,1.4-0.4,2.1c-0.3,0.6-0.6,1.2-1.1,1.7c-0.5,0.5-1,0.8-1.7,1.1c-0.6,0.3-1.4,0.4-2.1,0.4c-0.3,0-0.7,0-1-0.1
				c-0.4-0.1-0.7-0.2-1.1-0.3c-0.3-0.2-0.7-0.4-1-0.6c-0.3-0.3-0.6-0.5-0.8-0.9h0v1.7h-1.4V580.2z M821.8,591.4
				c0-0.6-0.1-1.1-0.3-1.6c-0.2-0.5-0.4-0.9-0.8-1.3c-0.3-0.4-0.7-0.6-1.2-0.9c-0.5-0.2-1-0.3-1.6-0.3c-0.6,0-1.1,0.1-1.6,0.3
				c-0.5,0.2-0.9,0.5-1.3,0.9c-0.4,0.3-0.6,0.8-0.8,1.3c-0.2,0.5-0.3,1-0.3,1.6c0,0.6,0.1,1.1,0.3,1.6c0.2,0.5,0.5,0.9,0.8,1.3
				c0.4,0.4,0.8,0.6,1.3,0.8c0.5,0.2,1,0.3,1.6,0.3c0.6,0,1.1-0.1,1.6-0.3c0.5-0.2,0.9-0.5,1.2-0.8c0.3-0.4,0.6-0.8,0.8-1.3
				C821.7,592.5,821.8,591.9,821.8,591.4z"/>
			<path class="st16" d="M825.9,589.5c0-0.4,0-0.9,0-1.3c0-0.5,0-1-0.1-1.8h1.4v1.9h0c0.1-0.3,0.2-0.5,0.4-0.8
				c0.2-0.2,0.4-0.5,0.7-0.7c0.3-0.2,0.6-0.4,0.9-0.5c0.3-0.1,0.7-0.2,1.2-0.2c0.4,0,0.8,0,1,0.1l-0.3,1.4c-0.2-0.1-0.5-0.1-0.8-0.1
				c-0.5,0-1,0.1-1.4,0.3c-0.4,0.2-0.7,0.5-1,0.8c-0.3,0.3-0.4,0.7-0.6,1c-0.1,0.4-0.2,0.7-0.2,1.1v5.6h-1.4V589.5z"/>
			<path class="st16" d="M839.3,590.3V590c0-1.7-0.9-2.6-2.6-2.6c-1.2,0-2.2,0.4-3.1,1.2l-0.9-1c0.9-1,2.3-1.5,4.2-1.5
				c0.5,0,0.9,0.1,1.4,0.2c0.4,0.1,0.8,0.4,1.2,0.7c0.3,0.3,0.6,0.6,0.8,1.1c0.2,0.4,0.3,1,0.3,1.6v4.5c0,0.4,0,0.8,0.1,1.2
				c0,0.4,0.1,0.8,0.1,1h-1.4c0-0.2-0.1-0.5-0.1-0.8c0-0.3,0-0.6,0-0.8h0c-0.4,0.7-0.9,1.2-1.5,1.4c-0.6,0.3-1.2,0.4-2.1,0.4
				c-0.4,0-0.9-0.1-1.3-0.2c-0.4-0.1-0.8-0.3-1.1-0.6c-0.3-0.2-0.6-0.6-0.8-0.9c-0.2-0.4-0.3-0.8-0.3-1.3c0-0.8,0.2-1.4,0.6-1.9
				c0.4-0.5,0.9-0.8,1.6-1c0.6-0.2,1.3-0.4,2-0.4c0.7,0,1.4-0.1,2-0.1H839.3z M838.5,591.4c-0.4,0-0.8,0-1.3,0c-0.5,0-1,0.1-1.5,0.3
				c-0.5,0.1-0.9,0.3-1.3,0.6c-0.3,0.3-0.5,0.7-0.5,1.2c0,0.3,0.1,0.6,0.2,0.9c0.1,0.2,0.3,0.4,0.6,0.6c0.2,0.1,0.5,0.2,0.7,0.3
				c0.3,0.1,0.6,0.1,0.9,0.1c0.5,0,1-0.1,1.3-0.3c0.4-0.2,0.7-0.4,0.9-0.7c0.3-0.3,0.4-0.6,0.6-1c0.1-0.4,0.2-0.8,0.2-1.3v-0.7
				H838.5z"/>
			<path class="st16" d="M845.3,586.4c0,0.3,0.1,0.5,0.1,0.8c0,0.3,0,0.5,0,0.8h0.1c0.1-0.3,0.4-0.5,0.6-0.7
				c0.2-0.2,0.5-0.4,0.8-0.6c0.3-0.2,0.6-0.3,0.9-0.4c0.3-0.1,0.7-0.1,1-0.1c1.3,0,2.2,0.3,2.9,1c0.6,0.7,0.9,1.6,0.9,2.9v6.3h-1.4
				v-5.5c0-1.1-0.2-2-0.6-2.6c-0.4-0.6-1.1-0.9-2.1-0.9c-0.1,0-0.3,0-0.6,0.1c-0.3,0.1-0.7,0.2-1,0.5c-0.4,0.2-0.7,0.6-1,1.1
				c-0.3,0.5-0.4,1.2-0.4,2.1v5.1h-1.4v-7.8c0-0.3,0-0.6,0-1c0-0.4,0-0.8-0.1-1.2H845.3z"/>
			<path class="st16" d="M865.8,596.4h-1.4v-1.7h0c-0.2,0.3-0.5,0.6-0.8,0.9c-0.3,0.2-0.6,0.4-1,0.6c-0.3,0.2-0.7,0.3-1.1,0.3
				c-0.4,0.1-0.7,0.1-1,0.1c-0.8,0-1.5-0.1-2.2-0.4c-0.6-0.3-1.2-0.6-1.7-1.1c-0.5-0.5-0.8-1-1.1-1.7c-0.3-0.6-0.4-1.3-0.4-2.1
				c0-0.8,0.1-1.4,0.4-2.1c0.3-0.6,0.6-1.2,1.1-1.7c0.5-0.5,1-0.8,1.7-1.1c0.7-0.3,1.4-0.4,2.2-0.4c0.3,0,0.7,0,1,0.1
				c0.4,0.1,0.7,0.2,1.1,0.3c0.3,0.2,0.7,0.4,1,0.6c0.3,0.2,0.6,0.5,0.8,0.9h0v-7.8h1.4V596.4z M856.7,591.4c0,0.6,0.1,1.1,0.3,1.6
				c0.2,0.5,0.4,0.9,0.8,1.3c0.3,0.4,0.7,0.6,1.2,0.8c0.5,0.2,1,0.3,1.6,0.3c0.6,0,1.1-0.1,1.6-0.3c0.5-0.2,0.9-0.5,1.3-0.8
				c0.4-0.4,0.6-0.8,0.8-1.3c0.2-0.5,0.3-1,0.3-1.6c0-0.6-0.1-1.1-0.3-1.6c-0.2-0.5-0.5-0.9-0.8-1.3c-0.4-0.4-0.8-0.6-1.3-0.9
				c-0.5-0.2-1-0.3-1.6-0.3c-0.6,0-1.1,0.1-1.6,0.3c-0.5,0.2-0.9,0.5-1.2,0.9c-0.3,0.3-0.6,0.8-0.8,1.3
				C856.8,590.3,856.7,590.8,856.7,591.4z"/>
			<path class="st16" d="M874.2,588.8c-0.2-0.4-0.5-0.7-0.9-1c-0.4-0.2-0.8-0.4-1.3-0.4c-0.2,0-0.5,0-0.7,0.1
				c-0.3,0.1-0.5,0.1-0.7,0.3c-0.2,0.1-0.4,0.3-0.5,0.5c-0.1,0.2-0.2,0.4-0.2,0.7c0,0.5,0.2,0.8,0.5,1c0.3,0.2,0.8,0.4,1.5,0.6
				l1.4,0.3c0.7,0.2,1.3,0.5,1.7,0.9c0.5,0.5,0.7,1.1,0.7,1.8c0,0.5-0.1,1-0.3,1.4c-0.2,0.4-0.5,0.7-0.9,1c-0.4,0.2-0.8,0.4-1.2,0.5
				c-0.5,0.1-1,0.2-1.4,0.2c-0.8,0-1.5-0.1-2.2-0.4c-0.7-0.3-1.2-0.8-1.7-1.5l1.2-0.8c0.3,0.5,0.6,0.8,1.1,1.1
				c0.4,0.3,1,0.4,1.6,0.4c0.3,0,0.6,0,0.9-0.1c0.3-0.1,0.5-0.2,0.8-0.3c0.2-0.1,0.4-0.3,0.5-0.5c0.1-0.2,0.2-0.5,0.2-0.8
				c0-0.5-0.2-0.9-0.6-1.1c-0.4-0.2-0.8-0.4-1.4-0.5l-1.4-0.3c-0.2,0-0.4-0.1-0.7-0.2c-0.3-0.1-0.6-0.2-0.9-0.4
				c-0.3-0.2-0.5-0.5-0.7-0.8c-0.2-0.3-0.3-0.7-0.3-1.2c0-0.5,0.1-0.9,0.3-1.3c0.2-0.4,0.5-0.7,0.8-0.9c0.4-0.2,0.7-0.4,1.2-0.5
				c0.4-0.1,0.9-0.2,1.4-0.2c0.7,0,1.4,0.1,2,0.4c0.6,0.3,1.1,0.7,1.4,1.4L874.2,588.8z"/>
		</g>
		<g>
			<path class="st17" d="M638.6,589.5c0.5-0.5,1-1,1.6-1.5c0.9-0.9,1.9-1.7,3.1-2.2c0.5-0.2,1-0.4,1.6-0.4c1.1-0.1,2.1,0.2,3,0.8
				c0.9,0.6,1.4,1.5,1.7,2.6c0.2,1,0.1,2-0.4,2.9c-0.6,1.2-1.6,1.9-3,2.2c-1.3,0.3-2.4-0.1-3.5-0.7c-1.1-0.6-2-1.4-2.9-2.3
				c-0.4-0.3-0.7-0.7-1.1-1c-0.1,0.1-0.1,0.1-0.2,0.2c-0.7,0.6-1.3,1.3-2,1.9c-0.8,0.7-1.7,1.4-2.8,1.8c-1.1,0.4-2.2,0.5-3.3,0
				c-1.3-0.6-2.2-1.5-2.5-2.9c-0.4-1.5,0-2.8,1.1-4c0.7-0.7,1.5-1.1,2.4-1.3c0.9-0.2,1.8,0,2.6,0.4c1,0.5,1.9,1.1,2.7,1.9
				C637.3,588.3,638,588.9,638.6,589.5z M638.6,589.6c-0.6-0.6-1.1-1.1-1.7-1.6c-0.6-0.5-1.2-1-1.8-1.4c-1.1-0.8-2.3-1.3-3.7-1.1
				c-1.2,0.2-2.1,0.7-2.8,1.7c-0.6,0.9-0.9,1.9-0.7,3c0.2,1.2,0.7,2.1,1.7,2.8c0.9,0.6,1.9,0.9,3,0.7c0.8-0.1,1.6-0.4,2.2-0.9
				C636.2,592,637.3,590.8,638.6,589.6z M638.7,589.6c0.6,0.6,1.1,1.1,1.7,1.6c0.6,0.5,1.2,1,1.8,1.4c1.1,0.8,2.3,1.3,3.7,1.1
				c1.2-0.2,2.1-0.8,2.8-1.7c0.6-0.9,0.9-1.9,0.7-3c-0.1-0.9-0.5-1.6-1.1-2.2c-1-1-2.2-1.5-3.6-1.3c-0.8,0.1-1.6,0.4-2.2,0.8
				C641.1,587.2,639.9,588.4,638.7,589.6z"/>
			<path class="st10" d="M631.9,594.4c-0.6,0-1.2-0.1-1.8-0.4c-1.5-0.6-2.5-1.8-2.8-3.3c-0.4-1.7,0-3.2,1.2-4.5
				c0.7-0.8,1.7-1.3,2.8-1.4c1-0.2,1.9,0,2.9,0.4c1,0.4,1.9,1.1,2.9,2l1.6,1.5l0.1-0.1c0.4-0.3,0.7-0.7,1.1-1
				c0.9-0.8,1.9-1.7,3.2-2.3c0.5-0.2,1.1-0.4,1.8-0.5c1.2-0.2,2.4,0.2,3.4,0.9c1,0.7,1.6,1.7,1.9,2.9c0.2,1.2,0.1,2.3-0.5,3.3
				c-0.7,1.3-1.9,2.2-3.3,2.5c-1.3,0.3-2.5,0-3.9-0.8c-1.2-0.7-2.2-1.7-3-2.4c-0.2-0.2-0.5-0.4-0.7-0.7l-0.4,0.4
				c-0.5,0.4-0.9,0.9-1.4,1.3c-0.8,0.7-1.8,1.4-3,1.9C633.2,594.3,632.5,594.4,631.9,594.4z M639.5,589.6l0.1,0.1
				c0.4,0.4,0.8,0.7,1.1,1.1c0.6,0.5,1.2,1,1.7,1.4c1,0.7,1.8,1,2.7,1l0,0c0.2,0,0.4,0,0.6,0c1-0.2,1.8-0.7,2.4-1.5
				c0.6-0.8,0.8-1.6,0.6-2.6c-0.1-0.8-0.4-1.4-0.9-1.9c-0.9-0.9-1.9-1.3-3.1-1.1c-0.7,0.1-1.3,0.3-2,0.8
				C641.6,587.5,640.6,588.5,639.5,589.6z M632,586c-0.2,0-0.4,0-0.6,0c-1,0.2-1.8,0.6-2.4,1.5c-0.6,0.8-0.8,1.7-0.6,2.6
				c0.2,1,0.6,1.8,1.5,2.4c0.8,0.5,1.6,0.8,2.6,0.6c0.7-0.1,1.3-0.3,2-0.8c1.2-0.8,2.2-1.7,3.3-2.8l-0.1-0.1
				c-0.4-0.4-0.8-0.7-1.2-1.1c-0.6-0.5-1.2-1-1.7-1.4C633.8,586.3,632.9,586,632,586z"/>
		</g>
	</g>
</g>
</svg>
