<?xml version="1.0" encoding="utf-8"?>
<!-- Generator: Adobe Illustrator 19.0.1, SVG Export Plug-In . SVG Version: 6.00 Build 0)  -->
<svg version="1.1" id="Layer_1" xmlns="http://www.w3.org/2000/svg" xmlns:xlink="http://www.w3.org/1999/xlink" x="0px" y="0px"
	 viewBox="0 0 400 400" style="enable-background:new 0 0 400 400;" xml:space="preserve">
<style type="text/css">
	.st0{fill:#58595B;}
	.st1{fill:#808080;}
	.st2{fill-rule:evenodd;clip-rule:evenodd;fill:#EC207A;}
	.st3{fill:#EC207A;}
</style>
<g>
	<g>
		<path class="st0" d="M16.2,193.8c-1.6-0.2-3.2-0.6-4.6-1.4c-1.4-0.8-2.7-1.8-3.8-3c-0.6-0.7-1.1-1.4-1.5-2.2
			c-0.4-0.8-0.8-1.6-1.1-2.4c-0.6-1.6-0.8-3.1-0.8-4.7c0-1.6,0.3-3.1,0.8-4.6c0.5-1.5,1.2-2.8,2.1-4.1c0.9-1.2,2-2.3,3.3-3.1
			c1.2-0.8,2.6-1.5,4.2-1.8c1.5-0.4,3.2-0.4,4.9-0.2c2,0.3,3.9,1.1,5.5,2.4c1.6,1.3,2.9,2.8,3.9,4.6c0.1,0.1,0.2,0.3,0.3,0.5
			c0.1,0.3,0.2,0.5,0.3,0.6c0,0.1,0,0.1,0.1,0.2c0.1,0.1,0.1,0.2,0.1,0.2c-0.1,0.1-0.3,0.1-0.4,0.2c-0.2,0.1-0.3,0.1-0.4,0.1
			c-0.4-1-0.9-1.9-1.4-2.7c-0.5-0.8-1.2-1.6-2-2.4c-1.5-1.4-3.2-2.3-5.1-2.7c-1.9-0.5-3.8-0.5-5.8,0c-1.6,0.4-3,1.1-4.3,2.1
			c-1.3,1-2.4,2.3-3.1,3.7c-0.8,1.5-1.3,3-1.6,4.5c-0.3,1.6-0.2,3.1,0,4.6c0.3,1.5,0.8,2.9,1.5,4.2c0.7,1.3,1.7,2.5,2.8,3.4
			c1.1,1,2.4,1.7,3.9,2.2c1.5,0.5,3,0.8,4.8,0.7c1.2,0,2.3-0.3,3.4-0.8c1.1-0.5,2.1-1.1,3-1.9c0.9-0.8,1.7-1.6,2.4-2.6
			c0.7-1,1.2-2,1.6-3.1l0.9,0.3v0.1c-0.2,0.6-0.5,1.2-0.8,1.8c-0.3,0.6-0.6,1.2-1,1.7c-0.7,1-1.5,1.8-2.3,2.5
			c-0.9,0.7-1.8,1.3-2.9,1.8c-1,0.5-2.1,0.8-3.2,1C18.5,193.8,17.3,193.9,16.2,193.8z"/>
		<path class="st0" d="M45.6,186.5L45.6,186.5c-0.5,0.1-1,0.2-1.5,0.3c-0.5,0.1-1,0.1-1.5,0.1v-0.9c1.6-0.1,3.1-0.5,4.5-1.3
			c1.3-0.7,2.4-1.7,3.3-2.9c0.8-1.2,1.4-2.5,1.6-4c0.2-1.5,0-3.1-0.5-4.7c-0.5-1.4-1.3-2.6-2.4-3.6c-1.1-1-2.4-1.7-3.8-2.1
			c-0.1,0-0.2,0-0.5-0.1c-0.3-0.1-0.4-0.1-0.5-0.1c-0.1,0-0.1,0-0.3,0c-0.1,0-0.2,0-0.3,0h-8.4v26.6h-1v-27.6h8.9c1,0,2,0.2,3,0.6
			c1,0.4,1.9,0.9,2.7,1.5c1.2,0.9,2.1,1.9,2.8,3.1c0.7,1.2,1.1,2.5,1.3,3.9c0.2,1.4,0.1,2.7-0.3,4.1c-0.4,1.4-1,2.6-2,3.8
			c-0.5,0.7-1.2,1.3-1.8,1.7c-0.7,0.5-1.4,0.9-2.2,1.3v0.1l5.7,7.5h-1.2L45.6,186.5z"/>
		<path class="st0" d="M74.8,165.9v0.9H58.5v10.7h6.8v1h-6.8v14.2h15.9v0.9H57.6v-27.8H74.8z"/>
		<path class="st0" d="M77.1,193.7h-1.3l25.5-27.8h0.9v27.9h-0.9v-26.3L77.1,193.7z"/>
		<path class="st0" d="M105.9,166.8v-0.9h15.7v0.9h-7.5v26.9h-0.9v-26.9H105.9z"/>
		<path class="st0" d="M125.9,165.8v27.9H125v-27.9H125.9z"/>
		<path class="st0" d="M130,165.8h1l9.1,26.4l8.9-26.4h1l-9.3,27.9h-1.1L130,165.8z"/>
		<path class="st0" d="M171.3,165.9v0.9H155v10.7h6.8v1H155v14.2h15.9v0.9h-16.8v-27.8H171.3z"/>
		<path class="st0" d="M201.2,193.8c-1.7-0.2-3.2-0.6-4.6-1.4c-1.4-0.8-2.7-1.8-3.8-3c-0.6-0.7-1.1-1.4-1.5-2.2
			c-0.4-0.8-0.8-1.6-1.1-2.4c-0.6-1.6-0.8-3.1-0.8-4.7c0-1.6,0.3-3.1,0.8-4.6c0.5-1.5,1.2-2.8,2.1-4.1c0.9-1.2,2-2.3,3.3-3.1
			c1.2-0.8,2.6-1.5,4.2-1.8c1.5-0.4,3.1-0.4,4.9-0.2c2,0.3,3.9,1.1,5.5,2.4c1.6,1.3,2.9,2.8,3.9,4.6c0,0.1,0.1,0.3,0.3,0.5
			c0.1,0.3,0.2,0.5,0.3,0.6c0,0.1,0,0.1,0.1,0.2c0.1,0.1,0.1,0.2,0.1,0.2c-0.1,0.1-0.3,0.1-0.4,0.2c-0.2,0.1-0.3,0.1-0.4,0.1
			c-0.4-1-0.9-1.9-1.4-2.7c-0.5-0.8-1.2-1.6-2-2.4c-1.4-1.4-3.1-2.3-5.1-2.7c-1.9-0.5-3.8-0.5-5.8,0c-1.6,0.4-3,1.1-4.3,2.1
			c-1.3,1-2.4,2.3-3.1,3.7c-0.8,1.5-1.3,3-1.6,4.5c-0.2,1.6-0.2,3.1,0.1,4.6c0.3,1.5,0.8,2.9,1.5,4.2c0.7,1.3,1.7,2.5,2.8,3.4
			c1.1,1,2.4,1.7,3.9,2.2c1.5,0.5,3.1,0.8,4.8,0.7c1.2,0,2.3-0.3,3.4-0.8c1.1-0.5,2.1-1.1,3-1.9c0.9-0.8,1.7-1.6,2.4-2.6
			c0.7-1,1.2-2,1.6-3.1l0.9,0.3v0.1c-0.2,0.6-0.5,1.2-0.8,1.8c-0.3,0.6-0.6,1.2-1,1.7c-0.7,1-1.5,1.8-2.3,2.5
			c-0.9,0.7-1.8,1.3-2.9,1.8c-1,0.5-2.1,0.8-3.2,1C203.5,193.8,202.3,193.9,201.2,193.8z"/>
		<path class="st0" d="M229.8,193.7c-1-0.2-2.1-0.5-3.1-1c-1-0.5-1.9-1.1-2.8-1.7c-0.9-0.7-1.6-1.5-2.3-2.3
			c-0.7-0.9-1.2-1.8-1.7-2.7c-0.8-1.9-1.3-3.7-1.4-5.5c-0.1-1.8,0.2-3.4,0.7-4.9c0.5-1.5,1.3-2.9,2.3-4.2c1-1.3,2.2-2.3,3.5-3.2
			c1.3-0.9,2.8-1.5,4.3-1.9c1.6-0.4,3.1-0.5,4.8-0.4c1.6,0.1,3.2,0.6,4.8,1.4c1.6,0.8,3,1.9,4.4,3.4c0.9,1,1.6,2.1,2.1,3.3
			c0.5,1.2,0.9,2.5,1.1,3.8c0.3,1.7,0.3,3.3,0,4.8c-0.3,1.5-0.8,2.9-1.5,4.2c-0.7,1.3-1.6,2.4-2.7,3.5c-1.1,1-2.3,1.8-3.7,2.5
			c-1.3,0.6-2.8,1-4.3,1.3C233,194,231.5,194,229.8,193.7z M230.5,192.8c1.2,0.2,2.5,0.2,3.7,0.1c1.2-0.1,2.4-0.4,3.6-0.9
			c1.1-0.5,2.2-1.1,3.2-1.8c1-0.8,1.8-1.6,2.5-2.7c1-1.4,1.6-2.8,2-4.3c0.4-1.5,0.5-3,0.4-4.5c-0.1-1.5-0.5-2.9-1.1-4.2
			c-0.6-1.4-1.4-2.6-2.4-3.7c-1-1.1-2.2-2-3.6-2.7c-1.4-0.7-2.9-1.2-4.6-1.3c-1.4-0.2-2.7-0.1-4.1,0.2c-1.4,0.3-2.6,0.8-3.8,1.5
			c-0.9,0.5-1.7,1.1-2.5,1.9c-0.8,0.7-1.5,1.6-2.1,2.4c-0.6,0.9-1.1,1.8-1.5,2.8c-0.4,1-0.6,2-0.6,3.1c-0.1,1.6,0.1,3.1,0.4,4.6
			c0.4,1.5,1,2.9,2,4.2c1,1.4,2.2,2.6,3.6,3.5C227.2,191.9,228.8,192.5,230.5,192.8z"/>
		<path class="st0" d="M252.5,165.9v26.9h11.8v0.9h-12.8v-27.8H252.5z"/>
		<path class="st0" d="M267.9,165.9v26.9h11.8v0.9h-12.8v-27.8H267.9z"/>
		<path class="st0" d="M299.6,165.9v0.9h-16.3v10.7h6.8v1h-6.8v14.2h15.9v0.9h-16.8v-27.8H299.6z"/>
		<path class="st0" d="M313.7,193.8c-1.6-0.2-3.2-0.6-4.6-1.4c-1.4-0.8-2.7-1.8-3.8-3c-0.6-0.7-1.1-1.4-1.5-2.2
			c-0.4-0.8-0.8-1.6-1.1-2.4c-0.6-1.6-0.8-3.1-0.8-4.7c0-1.6,0.3-3.1,0.8-4.6c0.5-1.5,1.2-2.8,2.1-4.1c0.9-1.2,2-2.3,3.3-3.1
			c1.3-0.8,2.6-1.5,4.2-1.8c1.5-0.4,3.2-0.4,4.9-0.2c2,0.3,3.9,1.1,5.5,2.4c1.6,1.3,2.9,2.8,3.9,4.6c0,0.1,0.1,0.3,0.3,0.5
			c0.1,0.3,0.2,0.5,0.3,0.6c0,0.1,0,0.1,0.1,0.2c0.1,0.1,0.1,0.2,0.1,0.2c-0.1,0.1-0.3,0.1-0.4,0.2c-0.2,0.1-0.3,0.1-0.4,0.1
			c-0.4-1-0.9-1.9-1.4-2.7c-0.5-0.8-1.2-1.6-2-2.4c-1.5-1.4-3.2-2.3-5.1-2.7c-1.9-0.5-3.8-0.5-5.8,0c-1.6,0.4-3,1.1-4.3,2.1
			c-1.3,1-2.4,2.3-3.2,3.7c-0.8,1.5-1.3,3-1.6,4.5c-0.2,1.6-0.2,3.1,0,4.6c0.3,1.5,0.8,2.9,1.5,4.2c0.7,1.3,1.7,2.5,2.8,3.4
			c1.1,1,2.4,1.7,3.9,2.2c1.5,0.5,3,0.8,4.8,0.7c1.2,0,2.3-0.3,3.4-0.8c1.1-0.5,2.1-1.1,3-1.9s1.7-1.6,2.4-2.6c0.7-1,1.2-2,1.6-3.1
			l0.9,0.3v0.1c-0.2,0.6-0.5,1.2-0.8,1.8c-0.3,0.6-0.6,1.2-1,1.7c-0.7,1-1.5,1.8-2.3,2.5c-0.9,0.7-1.8,1.3-2.9,1.8
			c-1,0.5-2.1,0.8-3.2,1C316,193.8,314.8,193.9,313.7,193.8z"/>
		<path class="st0" d="M330.1,166.8v-0.9h15.7v0.9h-7.5v26.9h-0.9v-26.9H330.1z"/>
		<path class="st0" d="M350.2,165.8v27.9h-0.9v-27.9H350.2z"/>
		<path class="st0" d="M354.2,165.8h1l9.1,26.4l8.9-26.4h1l-9.3,27.9h-1.1L354.2,165.8z"/>
		<path class="st0" d="M395.6,165.9v0.9h-16.3v10.7h6.8v1h-6.8v14.2h15.9v0.9h-16.8v-27.8H395.6z"/>
	</g>
	<g>
		<g>
			<path class="st1" d="M3.2,217.4H7c0.5,0,1,0.1,1.5,0.2c0.5,0.1,0.9,0.3,1.3,0.5c0.4,0.3,0.7,0.6,0.9,1c0.2,0.4,0.3,0.9,0.3,1.5
				c0,0.7-0.2,1.3-0.6,1.8c-0.4,0.5-0.9,0.8-1.7,1v0c0.9,0.1,1.6,0.4,2.1,0.9c0.5,0.6,0.8,1.3,0.8,2.2c0,0.2,0,0.5-0.1,0.9
				c-0.1,0.4-0.3,0.8-0.6,1.2c-0.3,0.4-0.8,0.7-1.4,1c-0.6,0.3-1.4,0.4-2.4,0.4H3.2V217.4z M4.5,223h2.6c0.3,0,0.6,0,0.9-0.1
				c0.3-0.1,0.6-0.2,0.8-0.4c0.2-0.2,0.4-0.4,0.6-0.7c0.2-0.3,0.2-0.6,0.2-1c0-0.1,0-0.3-0.1-0.6c-0.1-0.2-0.2-0.5-0.4-0.7
				c-0.2-0.2-0.5-0.4-0.8-0.6c-0.3-0.2-0.8-0.3-1.4-0.3H4.5V223z M4.5,228.9h2.5c0.5,0,0.9,0,1.3-0.1c0.4-0.1,0.7-0.2,1.1-0.4
				c0.3-0.2,0.5-0.4,0.7-0.7c0.2-0.3,0.3-0.7,0.3-1.1c0-0.8-0.3-1.5-0.8-1.9c-0.5-0.4-1.3-0.6-2.4-0.6H4.5V228.9z"/>
			<path class="st1" d="M14.1,224.3c0-0.4,0-0.7,0-1.1c0-0.4,0-0.9,0-1.5h1.2v1.6h0c0.1-0.2,0.2-0.4,0.4-0.7
				c0.2-0.2,0.3-0.4,0.6-0.6c0.2-0.2,0.5-0.3,0.8-0.4c0.3-0.1,0.6-0.2,1-0.2c0.3,0,0.6,0,0.9,0.1l-0.2,1.2c-0.1-0.1-0.4-0.1-0.7-0.1
				c-0.4,0-0.8,0.1-1.2,0.3c-0.3,0.2-0.6,0.4-0.8,0.7c-0.2,0.3-0.4,0.6-0.5,0.9c-0.1,0.3-0.1,0.6-0.1,0.9v4.7h-1.2V224.3z"/>
			<path class="st1" d="M21.6,218.5c0,0.3-0.1,0.5-0.3,0.6c-0.2,0.2-0.4,0.2-0.6,0.2c-0.2,0-0.4-0.1-0.6-0.2
				c-0.2-0.2-0.3-0.4-0.3-0.6c0-0.3,0.1-0.4,0.3-0.6c0.2-0.2,0.4-0.2,0.6-0.2c0.2,0,0.4,0.1,0.6,0.2
				C21.6,218.1,21.6,218.3,21.6,218.5z M21.4,230.1h-1.2v-8.4h1.2V230.1z"/>
			<path class="st1" d="M25.3,221.7c0,0.2,0,0.5,0,0.7c0,0.2,0,0.4,0,0.7h0c0.1-0.2,0.3-0.4,0.5-0.6c0.2-0.2,0.4-0.4,0.7-0.5
				c0.3-0.1,0.5-0.2,0.8-0.3c0.3-0.1,0.6-0.1,0.8-0.1c1.1,0,1.9,0.3,2.4,0.8c0.5,0.6,0.8,1.4,0.8,2.4v5.3h-1.2v-4.6
				c0-0.9-0.2-1.6-0.5-2.1c-0.3-0.5-0.9-0.7-1.8-0.7c-0.1,0-0.2,0-0.5,0.1c-0.3,0.1-0.6,0.2-0.9,0.4c-0.3,0.2-0.6,0.5-0.8,1
				c-0.2,0.4-0.4,1-0.4,1.8v4.3h-1.2v-6.5c0-0.2,0-0.5,0-0.9c0-0.3,0-0.7-0.1-1H25.3z"/>
			<path class="st1" d="M34.8,231.8c0.4,0.5,0.8,0.8,1.3,1.1c0.6,0.3,1.2,0.4,1.9,0.4c0.6,0,1.1-0.1,1.5-0.3c0.4-0.2,0.8-0.4,1-0.7
				c0.2-0.3,0.4-0.6,0.6-1c0.1-0.4,0.2-0.8,0.2-1.3v-1.5h0c-0.4,0.6-0.9,1-1.4,1.2c-0.5,0.2-1.1,0.4-1.7,0.4c-0.6,0-1.2-0.1-1.7-0.3
				c-0.5-0.2-1-0.5-1.4-0.9c-0.4-0.4-0.7-0.8-0.9-1.4c-0.2-0.5-0.3-1.1-0.3-1.7c0-0.6,0.1-1.2,0.3-1.7c0.2-0.5,0.5-1,0.9-1.4
				c0.4-0.4,0.8-0.7,1.3-0.9c0.5-0.2,1.1-0.3,1.7-0.3c0.2,0,0.5,0,0.8,0.1c0.3,0.1,0.6,0.1,0.8,0.2c0.3,0.1,0.6,0.3,0.8,0.5
				c0.3,0.2,0.5,0.5,0.8,0.8h0v-1.4h1.2v8.3c0,0.5-0.1,0.9-0.2,1.5c-0.1,0.5-0.3,1-0.7,1.4c-0.3,0.4-0.8,0.8-1.4,1.1
				c-0.6,0.3-1.3,0.4-2.3,0.4c-0.8,0-1.6-0.1-2.2-0.4c-0.7-0.3-1.2-0.7-1.8-1.3L34.8,231.8z M35,225.8c0,0.4,0.1,0.8,0.2,1.2
				c0.2,0.4,0.4,0.7,0.7,1c0.3,0.3,0.6,0.5,1,0.7c0.4,0.2,0.8,0.3,1.2,0.3c0.4,0,0.8-0.1,1.2-0.2c0.4-0.2,0.7-0.4,1-0.6
				c0.3-0.3,0.5-0.6,0.7-1c0.2-0.4,0.2-0.8,0.2-1.3c0-0.4-0.1-0.9-0.2-1.2c-0.1-0.4-0.3-0.7-0.6-1c-0.3-0.3-0.6-0.5-1-0.7
				c-0.4-0.2-0.8-0.3-1.3-0.3c-0.4,0-0.9,0.1-1.2,0.3c-0.4,0.2-0.7,0.4-1,0.7c-0.3,0.3-0.5,0.6-0.7,1C35.1,224.9,35,225.4,35,225.8z
				"/>
			<path class="st1" d="M46.8,218.5c0,0.3-0.1,0.5-0.3,0.6c-0.2,0.2-0.4,0.2-0.6,0.2c-0.2,0-0.4-0.1-0.6-0.2
				c-0.2-0.2-0.3-0.4-0.3-0.6c0-0.3,0.1-0.4,0.3-0.6c0.2-0.2,0.4-0.2,0.6-0.2c0.2,0,0.4,0.1,0.6,0.2
				C46.7,218.1,46.8,218.3,46.8,218.5z M46.5,230.1h-1.2v-8.4h1.2V230.1z"/>
			<path class="st1" d="M50.5,221.7c0,0.2,0,0.5,0,0.7c0,0.2,0,0.4,0,0.7h0c0.1-0.2,0.3-0.4,0.5-0.6c0.2-0.2,0.4-0.4,0.7-0.5
				c0.3-0.1,0.5-0.2,0.8-0.3c0.3-0.1,0.5-0.1,0.8-0.1c1.1,0,1.9,0.3,2.4,0.8c0.5,0.6,0.8,1.4,0.8,2.4v5.3h-1.2v-4.6
				c0-0.9-0.2-1.6-0.5-2.1c-0.3-0.5-0.9-0.7-1.8-0.7c-0.1,0-0.2,0-0.5,0.1c-0.3,0.1-0.6,0.2-0.9,0.4c-0.3,0.2-0.6,0.5-0.8,1
				c-0.2,0.4-0.4,1-0.4,1.8v4.3h-1.2v-6.5c0-0.2,0-0.5,0-0.9c0-0.3,0-0.7-0.1-1H50.5z"/>
			<path class="st1" d="M59.9,231.8c0.3,0.5,0.8,0.8,1.4,1.1c0.5,0.3,1.2,0.4,1.8,0.4c0.6,0,1.1-0.1,1.5-0.3c0.4-0.2,0.8-0.4,1-0.7
				c0.3-0.3,0.4-0.6,0.5-1c0.1-0.4,0.2-0.8,0.2-1.3v-1.5h0c-0.4,0.6-0.8,1-1.4,1.2c-0.5,0.2-1.1,0.4-1.7,0.4c-0.6,0-1.2-0.1-1.7-0.3
				c-0.5-0.2-1-0.5-1.4-0.9c-0.4-0.4-0.7-0.8-0.9-1.4c-0.2-0.5-0.3-1.1-0.3-1.7c0-0.6,0.1-1.2,0.3-1.7c0.2-0.5,0.5-1,0.9-1.4
				c0.4-0.4,0.8-0.7,1.3-0.9c0.5-0.2,1.1-0.3,1.7-0.3c0.3,0,0.5,0,0.8,0.1c0.3,0.1,0.6,0.1,0.8,0.2c0.3,0.1,0.6,0.3,0.8,0.5
				c0.3,0.2,0.5,0.5,0.8,0.8h0v-1.4h1.2v8.3c0,0.5-0.1,0.9-0.2,1.5c-0.1,0.5-0.3,1-0.7,1.4c-0.3,0.4-0.8,0.8-1.4,1.1
				c-0.6,0.3-1.3,0.4-2.3,0.4c-0.8,0-1.6-0.1-2.2-0.4c-0.7-0.3-1.3-0.7-1.8-1.3L59.9,231.8z M60.1,225.8c0,0.4,0.1,0.8,0.2,1.2
				c0.2,0.4,0.4,0.7,0.7,1c0.3,0.3,0.6,0.5,1,0.7c0.4,0.2,0.8,0.3,1.2,0.3c0.4,0,0.8-0.1,1.2-0.2c0.4-0.2,0.7-0.4,1-0.6
				c0.3-0.3,0.5-0.6,0.7-1c0.2-0.4,0.2-0.8,0.2-1.3c0-0.4-0.1-0.9-0.2-1.2c-0.1-0.4-0.4-0.7-0.6-1c-0.3-0.3-0.6-0.5-1-0.7
				c-0.4-0.2-0.8-0.3-1.3-0.3c-0.4,0-0.9,0.1-1.2,0.3c-0.4,0.2-0.7,0.4-1,0.7c-0.3,0.3-0.5,0.6-0.7,1
				C60.2,224.9,60.1,225.4,60.1,225.8z"/>
			<path class="st1" d="M75.1,216.6h1.2v6.5h0c0.2-0.3,0.4-0.5,0.7-0.7c0.3-0.2,0.5-0.4,0.8-0.5c0.3-0.1,0.6-0.2,0.9-0.3
				c0.3-0.1,0.6-0.1,0.9-0.1c0.6,0,1.3,0.1,1.8,0.3c0.5,0.2,1,0.5,1.4,0.9c0.4,0.4,0.7,0.9,0.9,1.4c0.2,0.5,0.3,1.1,0.3,1.7
				c0,0.6-0.1,1.2-0.3,1.8c-0.2,0.5-0.5,1-0.9,1.4c-0.4,0.4-0.9,0.7-1.4,0.9c-0.5,0.2-1.1,0.3-1.8,0.3c-0.3,0-0.6,0-0.9-0.1
				c-0.3-0.1-0.6-0.2-0.9-0.3c-0.3-0.1-0.6-0.3-0.8-0.5c-0.3-0.2-0.5-0.4-0.7-0.7h0v1.4h-1.2V216.6z M82.8,225.9
				c0-0.5-0.1-0.9-0.2-1.3c-0.1-0.4-0.4-0.8-0.6-1.1c-0.3-0.3-0.6-0.5-1-0.7c-0.4-0.2-0.8-0.3-1.3-0.3c-0.5,0-0.9,0.1-1.3,0.3
				c-0.4,0.2-0.8,0.4-1.1,0.7c-0.3,0.3-0.5,0.6-0.7,1.1c-0.2,0.4-0.2,0.8-0.2,1.3c0,0.5,0.1,0.9,0.2,1.3c0.2,0.4,0.4,0.8,0.7,1
				c0.3,0.3,0.7,0.5,1.1,0.7c0.4,0.2,0.9,0.3,1.3,0.3c0.5,0,0.9-0.1,1.3-0.3c0.4-0.2,0.7-0.4,1-0.7c0.3-0.3,0.5-0.6,0.6-1
				C82.7,226.8,82.8,226.4,82.8,225.9z"/>
			<path class="st1" d="M86.2,224.3c0-0.4,0-0.7,0-1.1c0-0.4,0-0.9,0-1.5h1.2v1.6h0c0.1-0.2,0.2-0.4,0.4-0.7
				c0.1-0.2,0.3-0.4,0.6-0.6c0.2-0.2,0.5-0.3,0.8-0.4c0.3-0.1,0.6-0.2,1-0.2c0.3,0,0.6,0,0.9,0.1l-0.2,1.2c-0.2-0.1-0.4-0.1-0.7-0.1
				c-0.5,0-0.8,0.1-1.2,0.3c-0.3,0.2-0.6,0.4-0.8,0.7c-0.2,0.3-0.4,0.6-0.5,0.9c-0.1,0.3-0.2,0.6-0.2,0.9v4.7h-1.2V224.3z"/>
			<path class="st1" d="M97.3,225v-0.2c0-1.4-0.7-2.2-2.1-2.2c-1,0-1.8,0.3-2.5,1l-0.7-0.8c0.8-0.8,2-1.2,3.5-1.2
				c0.4,0,0.8,0.1,1.2,0.2c0.4,0.1,0.7,0.3,1,0.5c0.3,0.2,0.5,0.6,0.7,0.9c0.2,0.4,0.2,0.8,0.2,1.3v3.7c0,0.3,0,0.6,0.1,1
				c0,0.4,0.1,0.6,0.1,0.9h-1.1c0-0.2-0.1-0.4-0.1-0.7c0-0.2,0-0.5,0-0.7h0c-0.3,0.6-0.7,1-1.2,1.2c-0.5,0.2-1.1,0.4-1.7,0.4
				c-0.4,0-0.7,0-1.1-0.1c-0.3-0.1-0.6-0.3-0.9-0.5c-0.3-0.2-0.5-0.5-0.6-0.8c-0.2-0.3-0.2-0.7-0.2-1.1c0-0.7,0.2-1.2,0.5-1.6
				c0.4-0.4,0.8-0.7,1.3-0.9c0.5-0.2,1.1-0.3,1.7-0.4c0.6,0,1.2-0.1,1.7-0.1H97.3z M96.7,225.9c-0.3,0-0.7,0-1.1,0
				c-0.4,0-0.9,0.1-1.3,0.2c-0.4,0.1-0.8,0.3-1.1,0.5c-0.3,0.2-0.4,0.6-0.4,1c0,0.3,0.1,0.5,0.2,0.7c0.1,0.2,0.3,0.4,0.5,0.5
				c0.2,0.1,0.4,0.2,0.6,0.3c0.2,0.1,0.5,0.1,0.7,0.1c0.4,0,0.8-0.1,1.1-0.2c0.3-0.1,0.6-0.3,0.8-0.6c0.2-0.2,0.4-0.5,0.5-0.9
				c0.1-0.3,0.2-0.7,0.2-1.1v-0.6H96.7z"/>
			<path class="st1" d="M102.4,221.7c0,0.2,0,0.5,0,0.7c0,0.2,0,0.4,0,0.7h0c0.1-0.2,0.3-0.4,0.5-0.6c0.2-0.2,0.4-0.4,0.7-0.5
				c0.2-0.1,0.5-0.2,0.8-0.3c0.3-0.1,0.6-0.1,0.8-0.1c1.1,0,1.9,0.3,2.4,0.8c0.5,0.6,0.8,1.4,0.8,2.4v5.3h-1.2v-4.6
				c0-0.9-0.1-1.6-0.5-2.1c-0.3-0.5-0.9-0.7-1.8-0.7c-0.1,0-0.2,0-0.5,0.1c-0.3,0.1-0.6,0.2-0.9,0.4c-0.3,0.2-0.6,0.5-0.8,1
				c-0.2,0.4-0.4,1-0.4,1.8v4.3h-1.2v-6.5c0-0.2,0-0.5,0-0.9c0-0.3,0-0.7-0.1-1H102.4z"/>
			<path class="st1" d="M119.5,230.1h-1.2v-1.4h0c-0.2,0.3-0.4,0.5-0.7,0.7c-0.3,0.2-0.5,0.4-0.8,0.5c-0.3,0.1-0.6,0.2-0.9,0.3
				c-0.3,0.1-0.6,0.1-0.9,0.1c-0.7,0-1.3-0.1-1.8-0.3c-0.5-0.2-1-0.5-1.4-0.9c-0.4-0.4-0.7-0.9-0.9-1.4c-0.2-0.5-0.3-1.1-0.3-1.8
				c0-0.6,0.1-1.2,0.3-1.7c0.2-0.5,0.5-1,0.9-1.4c0.4-0.4,0.9-0.7,1.4-0.9c0.5-0.2,1.1-0.3,1.8-0.3c0.3,0,0.6,0,0.9,0.1
				c0.3,0.1,0.6,0.2,0.9,0.3c0.3,0.1,0.6,0.3,0.8,0.5c0.3,0.2,0.5,0.4,0.7,0.7h0v-6.5h1.2V230.1z M111.9,225.9
				c0,0.5,0.1,0.9,0.2,1.3c0.2,0.4,0.4,0.8,0.6,1c0.3,0.3,0.6,0.5,1,0.7c0.4,0.2,0.8,0.3,1.3,0.3c0.5,0,0.9-0.1,1.3-0.3
				c0.4-0.2,0.8-0.4,1.1-0.7c0.3-0.3,0.5-0.6,0.7-1c0.2-0.4,0.2-0.8,0.2-1.3c0-0.5-0.1-0.9-0.2-1.3c-0.2-0.4-0.4-0.8-0.7-1.1
				c-0.3-0.3-0.7-0.5-1.1-0.7c-0.4-0.2-0.9-0.3-1.3-0.3c-0.5,0-0.9,0.1-1.3,0.3c-0.4,0.2-0.7,0.4-1,0.7c-0.3,0.3-0.5,0.6-0.6,1.1
				C112,225,111.9,225.4,111.9,225.9z"/>
			<path class="st1" d="M126.5,223.7c-0.2-0.4-0.4-0.6-0.7-0.8c-0.3-0.2-0.7-0.3-1.1-0.3c-0.2,0-0.4,0-0.6,0.1
				c-0.2,0.1-0.4,0.1-0.6,0.2c-0.2,0.1-0.3,0.2-0.4,0.4c-0.1,0.2-0.1,0.3-0.1,0.6c0,0.4,0.1,0.7,0.4,0.9c0.3,0.2,0.7,0.3,1.2,0.5
				l1.2,0.3c0.6,0.1,1.1,0.4,1.4,0.8c0.4,0.4,0.6,0.9,0.6,1.5c0,0.5-0.1,0.8-0.3,1.2c-0.2,0.3-0.4,0.6-0.7,0.8
				c-0.3,0.2-0.6,0.4-1,0.4c-0.4,0.1-0.8,0.1-1.2,0.1c-0.6,0-1.2-0.1-1.8-0.4c-0.6-0.3-1-0.7-1.4-1.3l1-0.7c0.2,0.4,0.5,0.7,0.9,0.9
				c0.4,0.2,0.8,0.3,1.3,0.3c0.2,0,0.5,0,0.7-0.1c0.2-0.1,0.4-0.1,0.6-0.3c0.2-0.1,0.3-0.3,0.4-0.4c0.1-0.2,0.2-0.4,0.2-0.6
				c0-0.4-0.2-0.7-0.5-0.9c-0.3-0.2-0.7-0.3-1.1-0.4l-1.1-0.3c-0.1,0-0.3-0.1-0.6-0.2c-0.2-0.1-0.5-0.2-0.7-0.4
				c-0.2-0.2-0.4-0.4-0.6-0.6c-0.2-0.3-0.3-0.6-0.3-1c0-0.4,0.1-0.8,0.3-1.1c0.2-0.3,0.4-0.6,0.7-0.8c0.3-0.2,0.6-0.4,1-0.5
				c0.4-0.1,0.8-0.2,1.1-0.2c0.6,0,1.1,0.1,1.6,0.3c0.5,0.2,0.9,0.6,1.2,1.2L126.5,223.7z"/>
			<path class="st1" d="M139,222.8h-2.4v4.9c0,0.3,0,0.6,0.1,0.8c0.1,0.2,0.1,0.4,0.3,0.5c0.1,0.1,0.2,0.2,0.4,0.2
				c0.1,0,0.3,0.1,0.5,0.1c0.2,0,0.4,0,0.6-0.1c0.2-0.1,0.4-0.1,0.6-0.2l0.1,1.1c-0.4,0.2-1,0.3-1.6,0.3c-0.2,0-0.5,0-0.7-0.1
				c-0.2-0.1-0.5-0.2-0.7-0.3c-0.2-0.2-0.4-0.4-0.5-0.7c-0.1-0.3-0.2-0.7-0.2-1.1v-5.3h-1.8v-1.1h1.8v-2.4h1.2v2.4h2.4V222.8z"/>
			<path class="st1" d="M149,225.9c0,0.6-0.1,1.2-0.3,1.8c-0.2,0.5-0.5,1-0.9,1.4c-0.4,0.4-0.9,0.7-1.4,0.9
				c-0.5,0.2-1.1,0.3-1.8,0.3c-0.6,0-1.2-0.1-1.8-0.3c-0.5-0.2-1-0.5-1.4-0.9c-0.4-0.4-0.7-0.9-0.9-1.4c-0.2-0.5-0.3-1.1-0.3-1.8
				c0-0.6,0.1-1.2,0.3-1.7c0.2-0.5,0.5-1,0.9-1.4c0.4-0.4,0.9-0.7,1.4-0.9c0.5-0.2,1.1-0.3,1.8-0.3c0.7,0,1.2,0.1,1.8,0.3
				c0.5,0.2,1,0.5,1.4,0.9c0.4,0.4,0.7,0.9,0.9,1.4C148.9,224.7,149,225.3,149,225.9z M147.8,225.9c0-0.5-0.1-0.9-0.2-1.3
				c-0.2-0.4-0.4-0.8-0.6-1.1c-0.3-0.3-0.6-0.5-1-0.7c-0.4-0.2-0.8-0.3-1.3-0.3c-0.5,0-0.9,0.1-1.3,0.3c-0.4,0.2-0.7,0.4-1,0.7
				c-0.3,0.3-0.5,0.6-0.6,1.1c-0.1,0.4-0.2,0.8-0.2,1.3c0,0.5,0.1,0.9,0.2,1.3c0.1,0.4,0.4,0.8,0.6,1c0.3,0.3,0.6,0.5,1,0.7
				c0.4,0.2,0.8,0.3,1.3,0.3c0.5,0,0.9-0.1,1.3-0.3c0.4-0.2,0.7-0.4,1-0.7c0.3-0.3,0.5-0.6,0.6-1
				C147.7,226.8,147.8,226.4,147.8,225.9z"/>
			<path class="st1" d="M157.6,230.1h-1.2v-13.5h1.2V230.1z"/>
			<path class="st1" d="M162.1,218.5c0,0.3-0.1,0.5-0.3,0.6c-0.2,0.2-0.4,0.2-0.6,0.2c-0.2,0-0.4-0.1-0.6-0.2
				c-0.2-0.2-0.3-0.4-0.3-0.6c0-0.3,0.1-0.4,0.3-0.6c0.2-0.2,0.4-0.2,0.6-0.2c0.2,0,0.4,0.1,0.6,0.2
				C162.1,218.1,162.1,218.3,162.1,218.5z M161.9,230.1h-1.2v-8.4h1.2V230.1z"/>
			<path class="st1" d="M168.6,222.8h-2v7.3h-1.2v-7.3h-1.8v-1.1h1.8v-2.3c0-1.1,0.3-1.9,0.8-2.4c0.5-0.5,1.2-0.7,2-0.7
				c0.2,0,0.3,0,0.5,0c0.2,0,0.3,0.1,0.5,0.1l-0.2,1.1c-0.1,0-0.3-0.1-0.4-0.1c-0.2,0-0.3,0-0.5,0c-0.3,0-0.6,0.1-0.8,0.2
				c-0.2,0.1-0.4,0.3-0.5,0.5c-0.1,0.2-0.2,0.4-0.2,0.7c0,0.3-0.1,0.5-0.1,0.8v2.1h2V222.8z"/>
			<path class="st1" d="M170.8,226.2c0,0.4,0.1,0.8,0.3,1.2c0.2,0.4,0.4,0.7,0.7,1c0.3,0.3,0.6,0.5,0.9,0.6c0.4,0.1,0.7,0.2,1.2,0.2
				c0.6,0,1.2-0.1,1.6-0.4c0.5-0.3,0.8-0.6,1-1l0.9,0.7c-0.5,0.6-1.1,1.1-1.7,1.4c-0.6,0.3-1.3,0.4-1.9,0.4c-0.6,0-1.2-0.1-1.7-0.3
				c-0.5-0.2-1-0.5-1.4-0.9c-0.4-0.4-0.7-0.9-0.9-1.4c-0.2-0.5-0.3-1.1-0.3-1.8c0-0.6,0.1-1.2,0.3-1.7c0.2-0.5,0.5-1,0.9-1.4
				c0.4-0.4,0.8-0.7,1.3-0.9c0.5-0.2,1.1-0.3,1.7-0.3c0.6,0,1.2,0.1,1.7,0.3c0.5,0.2,0.9,0.5,1.3,0.9c0.3,0.4,0.6,0.8,0.8,1.3
				c0.2,0.5,0.3,1,0.3,1.6v0.5H170.8z M176.5,225.3c0-0.8-0.2-1.4-0.7-1.9c-0.5-0.5-1.1-0.7-2-0.7c-0.4,0-0.8,0.1-1.1,0.2
				c-0.4,0.1-0.7,0.4-0.9,0.6c-0.3,0.3-0.5,0.5-0.6,0.9c-0.2,0.3-0.2,0.7-0.2,1H176.5z"/>
		</g>
		<g>
			<path class="st1" d="M221.9,216.9h3.8c0.5,0,1,0.1,1.5,0.2c0.5,0.1,0.9,0.3,1.3,0.5c0.4,0.3,0.7,0.6,0.9,1
				c0.2,0.4,0.3,0.9,0.3,1.5c0,0.7-0.2,1.3-0.6,1.8c-0.4,0.5-0.9,0.8-1.6,1v0c0.9,0.1,1.6,0.4,2.1,0.9c0.5,0.6,0.8,1.3,0.8,2.2
				c0,0.2,0,0.5-0.2,0.9c-0.1,0.4-0.3,0.8-0.6,1.2c-0.3,0.4-0.8,0.7-1.4,1c-0.6,0.3-1.4,0.4-2.4,0.4h-3.8V216.9z M223.2,222.4h2.6
				c0.3,0,0.6,0,0.9-0.1c0.3-0.1,0.6-0.2,0.8-0.4c0.2-0.2,0.4-0.4,0.6-0.7c0.2-0.3,0.2-0.6,0.2-1c0-0.1,0-0.3-0.1-0.5
				c-0.1-0.3-0.2-0.5-0.4-0.7c-0.2-0.2-0.5-0.4-0.8-0.6c-0.4-0.2-0.8-0.3-1.4-0.3h-2.5V222.4z M223.2,228.4h2.5c0.5,0,0.9,0,1.3-0.1
				c0.4-0.1,0.8-0.2,1-0.4c0.3-0.2,0.5-0.4,0.7-0.7c0.2-0.3,0.3-0.7,0.3-1.1c0-0.8-0.3-1.5-0.8-1.9c-0.5-0.4-1.3-0.6-2.4-0.6h-2.6
				V228.4z"/>
			<path class="st1" d="M232.9,223.8c0-0.4,0-0.7,0-1.1c0-0.4,0-0.9-0.1-1.5h1.2v1.6h0c0.1-0.2,0.2-0.4,0.4-0.7
				c0.1-0.2,0.3-0.4,0.6-0.6c0.2-0.2,0.5-0.3,0.8-0.4c0.3-0.1,0.6-0.2,1-0.2c0.3,0,0.6,0,0.9,0.1l-0.2,1.2c-0.2-0.1-0.4-0.1-0.7-0.1
				c-0.5,0-0.8,0.1-1.2,0.3c-0.3,0.2-0.6,0.4-0.8,0.7c-0.2,0.3-0.4,0.6-0.5,0.9c-0.1,0.3-0.2,0.6-0.2,0.9v4.7h-1.2V223.8z"/>
			<path class="st1" d="M240.4,218c0,0.2-0.1,0.4-0.3,0.6c-0.2,0.2-0.4,0.2-0.6,0.2c-0.2,0-0.4-0.1-0.6-0.2
				c-0.2-0.2-0.3-0.4-0.3-0.6c0-0.3,0.1-0.5,0.3-0.6c0.2-0.2,0.4-0.2,0.6-0.2c0.2,0,0.4,0.1,0.6,0.2
				C240.3,217.5,240.4,217.7,240.4,218z M240.1,229.5h-1.2v-8.4h1.2V229.5z"/>
			<path class="st1" d="M244.1,221.2c0,0.2,0,0.5,0.1,0.7c0,0.2,0,0.5,0,0.7h0c0.1-0.2,0.3-0.4,0.5-0.6c0.2-0.2,0.4-0.4,0.7-0.5
				c0.3-0.1,0.5-0.2,0.8-0.3c0.3-0.1,0.6-0.1,0.8-0.1c1.1,0,1.9,0.3,2.4,0.9c0.5,0.6,0.8,1.4,0.8,2.4v5.3h-1.2v-4.6
				c0-0.9-0.2-1.6-0.5-2.1c-0.3-0.5-0.9-0.7-1.8-0.7c-0.1,0-0.2,0-0.5,0.1c-0.3,0.1-0.6,0.2-0.9,0.4c-0.3,0.2-0.6,0.5-0.8,1
				c-0.2,0.4-0.4,1-0.4,1.8v4.3h-1.2V223c0-0.2,0-0.5,0-0.8c0-0.3,0-0.7-0.1-1H244.1z"/>
			<path class="st1" d="M253.5,231.2c0.3,0.5,0.8,0.8,1.3,1.1c0.6,0.3,1.2,0.4,1.9,0.4c0.6,0,1.1-0.1,1.5-0.3c0.4-0.2,0.8-0.4,1-0.7
				c0.3-0.3,0.4-0.6,0.6-1c0.1-0.4,0.2-0.8,0.2-1.3V228h0c-0.4,0.6-0.8,1-1.4,1.2c-0.5,0.2-1.1,0.4-1.7,0.4c-0.6,0-1.2-0.1-1.7-0.3
				c-0.5-0.2-1-0.5-1.4-0.9c-0.4-0.4-0.7-0.8-0.9-1.4c-0.2-0.5-0.3-1.1-0.3-1.7c0-0.6,0.1-1.2,0.3-1.7c0.2-0.5,0.5-1,0.9-1.4
				c0.4-0.4,0.8-0.7,1.3-0.9c0.5-0.2,1.1-0.3,1.7-0.3c0.3,0,0.5,0,0.8,0.1c0.3,0.1,0.6,0.1,0.8,0.3c0.3,0.1,0.6,0.3,0.8,0.5
				c0.3,0.2,0.5,0.5,0.8,0.8h0v-1.4h1.2v8.3c0,0.5-0.1,0.9-0.2,1.4c-0.1,0.5-0.3,1-0.7,1.4c-0.3,0.4-0.8,0.8-1.4,1.1
				c-0.6,0.3-1.3,0.4-2.3,0.4c-0.8,0-1.6-0.1-2.2-0.4c-0.7-0.3-1.3-0.7-1.8-1.3L253.5,231.2z M253.7,225.3c0,0.4,0.1,0.9,0.2,1.2
				c0.2,0.4,0.4,0.7,0.7,1c0.3,0.3,0.6,0.5,1,0.7c0.4,0.2,0.8,0.3,1.2,0.3c0.4,0,0.8-0.1,1.2-0.2c0.4-0.2,0.7-0.4,1-0.7
				c0.3-0.3,0.5-0.6,0.7-1c0.2-0.4,0.2-0.8,0.2-1.3c0-0.4-0.1-0.9-0.2-1.2c-0.1-0.4-0.4-0.7-0.6-1c-0.3-0.3-0.6-0.5-1-0.7
				c-0.4-0.2-0.8-0.3-1.3-0.3c-0.4,0-0.9,0.1-1.2,0.3c-0.4,0.2-0.7,0.4-1,0.7c-0.3,0.3-0.5,0.6-0.7,1
				C253.8,224.4,253.7,224.8,253.7,225.3z"/>
			<path class="st1" d="M265.5,218c0,0.2-0.1,0.4-0.3,0.6c-0.2,0.2-0.4,0.2-0.6,0.2c-0.2,0-0.4-0.1-0.6-0.2
				c-0.2-0.2-0.3-0.4-0.3-0.6c0-0.3,0.1-0.5,0.3-0.6c0.2-0.2,0.4-0.2,0.6-0.2c0.2,0,0.4,0.1,0.6,0.2
				C265.4,217.5,265.5,217.7,265.5,218z M265.2,229.5h-1.2v-8.4h1.2V229.5z"/>
			<path class="st1" d="M269.2,221.2c0,0.2,0,0.5,0,0.7c0,0.2,0,0.5,0,0.7h0c0.1-0.2,0.3-0.4,0.5-0.6c0.2-0.2,0.4-0.4,0.7-0.5
				c0.3-0.1,0.5-0.2,0.8-0.3c0.3-0.1,0.6-0.1,0.8-0.1c1.1,0,1.9,0.3,2.4,0.9c0.5,0.6,0.8,1.4,0.8,2.4v5.3h-1.2v-4.6
				c0-0.9-0.2-1.6-0.5-2.1c-0.3-0.5-0.9-0.7-1.8-0.7c-0.1,0-0.2,0-0.5,0.1c-0.3,0.1-0.6,0.2-0.9,0.4c-0.3,0.2-0.6,0.5-0.8,1
				c-0.2,0.4-0.4,1-0.4,1.8v4.3h-1.2V223c0-0.2,0-0.5,0-0.8c0-0.3,0-0.7-0.1-1H269.2z"/>
			<path class="st1" d="M278.6,231.2c0.3,0.5,0.8,0.8,1.3,1.1c0.6,0.3,1.2,0.4,1.8,0.4c0.6,0,1.1-0.1,1.5-0.3c0.4-0.2,0.8-0.4,1-0.7
				c0.3-0.3,0.4-0.6,0.5-1c0.1-0.4,0.2-0.8,0.2-1.3V228h0c-0.4,0.6-0.9,1-1.4,1.2c-0.5,0.2-1.1,0.4-1.7,0.4c-0.6,0-1.2-0.1-1.7-0.3
				c-0.5-0.2-1-0.5-1.4-0.9c-0.4-0.4-0.7-0.8-0.9-1.4c-0.2-0.5-0.3-1.1-0.3-1.7c0-0.6,0.1-1.2,0.3-1.7c0.2-0.5,0.5-1,0.9-1.4
				c0.4-0.4,0.8-0.7,1.3-0.9c0.5-0.2,1.1-0.3,1.7-0.3c0.3,0,0.5,0,0.8,0.1c0.3,0.1,0.6,0.1,0.8,0.3c0.3,0.1,0.6,0.3,0.8,0.5
				c0.3,0.2,0.5,0.5,0.8,0.8h0v-1.4h1.2v8.3c0,0.5-0.1,0.9-0.2,1.4c-0.1,0.5-0.3,1-0.7,1.4c-0.3,0.4-0.8,0.8-1.4,1.1
				c-0.6,0.3-1.3,0.4-2.3,0.4c-0.8,0-1.6-0.1-2.2-0.4c-0.7-0.3-1.3-0.7-1.8-1.3L278.6,231.2z M278.9,225.3c0,0.4,0.1,0.9,0.2,1.2
				c0.2,0.4,0.4,0.7,0.7,1c0.3,0.3,0.6,0.5,1,0.7c0.4,0.2,0.8,0.3,1.2,0.3c0.4,0,0.8-0.1,1.2-0.2c0.4-0.2,0.7-0.4,1-0.7
				c0.3-0.3,0.5-0.6,0.7-1c0.2-0.4,0.2-0.8,0.2-1.3c0-0.4-0.1-0.9-0.2-1.2c-0.1-0.4-0.4-0.7-0.6-1c-0.3-0.3-0.6-0.5-1-0.7
				c-0.4-0.2-0.8-0.3-1.3-0.3c-0.4,0-0.8,0.1-1.2,0.3c-0.4,0.2-0.7,0.4-1,0.7c-0.3,0.3-0.5,0.6-0.7,1
				C278.9,224.4,278.9,224.8,278.9,225.3z"/>
			<path class="st1" d="M295.3,229.5h-1.2v-13.5h1.2V229.5z"/>
			<path class="st1" d="M299.9,218c0,0.2-0.1,0.4-0.3,0.6c-0.2,0.2-0.4,0.2-0.6,0.2c-0.2,0-0.4-0.1-0.6-0.2
				c-0.2-0.2-0.3-0.4-0.3-0.6c0-0.3,0.1-0.5,0.3-0.6c0.2-0.2,0.4-0.2,0.6-0.2c0.2,0,0.4,0.1,0.6,0.2
				C299.8,217.5,299.9,217.7,299.9,218z M299.6,229.5h-1.2v-8.4h1.2V229.5z"/>
			<path class="st1" d="M306.3,222.3h-2v7.3h-1.2v-7.3h-1.8v-1.1h1.8v-2.3c0-1.1,0.3-1.9,0.8-2.4c0.5-0.5,1.2-0.7,2-0.7
				c0.2,0,0.3,0,0.5,0c0.2,0,0.3,0.1,0.5,0.1l-0.2,1.1c-0.1,0-0.3-0.1-0.5-0.1c-0.2,0-0.3,0-0.5,0c-0.3,0-0.6,0.1-0.8,0.2
				c-0.2,0.1-0.4,0.3-0.5,0.4c-0.1,0.2-0.2,0.4-0.2,0.7c0,0.3-0.1,0.5-0.1,0.8v2.1h2V222.3z"/>
			<path class="st1" d="M308.6,225.7c0,0.4,0.1,0.8,0.3,1.2c0.2,0.4,0.4,0.7,0.7,1c0.3,0.3,0.6,0.5,0.9,0.6c0.4,0.2,0.7,0.2,1.2,0.2
				c0.6,0,1.2-0.2,1.6-0.4c0.5-0.3,0.8-0.6,1-1l0.9,0.8c-0.5,0.6-1.1,1.1-1.7,1.4c-0.6,0.3-1.2,0.4-1.9,0.4c-0.6,0-1.2-0.1-1.7-0.3
				c-0.5-0.2-1-0.5-1.4-0.9c-0.4-0.4-0.7-0.8-0.9-1.4c-0.2-0.5-0.3-1.1-0.3-1.8c0-0.6,0.1-1.2,0.3-1.7c0.2-0.5,0.5-1,0.9-1.4
				c0.4-0.4,0.8-0.7,1.3-0.9c0.5-0.2,1.1-0.3,1.7-0.3c0.6,0,1.2,0.1,1.7,0.3c0.5,0.2,0.9,0.5,1.3,0.9c0.3,0.4,0.6,0.8,0.8,1.3
				c0.2,0.5,0.3,1,0.3,1.6v0.5H308.6z M314.2,224.7c0-0.8-0.2-1.4-0.7-1.9c-0.5-0.5-1.1-0.7-2-0.7c-0.4,0-0.7,0.1-1.1,0.2
				c-0.4,0.1-0.7,0.3-0.9,0.6c-0.3,0.2-0.5,0.5-0.7,0.9c-0.2,0.3-0.2,0.7-0.2,1H314.2z"/>
			<path class="st1" d="M326.9,222.3h-2.4v4.9c0,0.3,0,0.6,0.1,0.8c0.1,0.2,0.1,0.3,0.3,0.5c0.1,0.1,0.2,0.2,0.4,0.2
				c0.1,0,0.3,0.1,0.5,0.1c0.2,0,0.4,0,0.6-0.1c0.2-0.1,0.4-0.1,0.6-0.2l0.1,1.1c-0.4,0.2-1,0.3-1.6,0.3c-0.2,0-0.5,0-0.7-0.1
				c-0.2-0.1-0.5-0.2-0.7-0.3c-0.2-0.2-0.4-0.4-0.5-0.7c-0.1-0.3-0.2-0.7-0.2-1.1v-5.3h-1.8v-1.1h1.8v-2.4h1.2v2.4h2.4V222.3z"/>
			<path class="st1" d="M337,225.4c0,0.6-0.1,1.2-0.3,1.8c-0.2,0.5-0.5,1-0.9,1.4c-0.4,0.4-0.8,0.7-1.4,0.9
				c-0.5,0.2-1.1,0.3-1.8,0.3c-0.6,0-1.2-0.1-1.8-0.3c-0.5-0.2-1-0.5-1.4-0.9c-0.4-0.4-0.7-0.8-0.9-1.4c-0.2-0.5-0.3-1.1-0.3-1.8
				c0-0.6,0.1-1.2,0.3-1.7c0.2-0.5,0.5-1,0.9-1.4c0.4-0.4,0.9-0.7,1.4-0.9c0.5-0.2,1.1-0.3,1.8-0.3c0.7,0,1.2,0.1,1.8,0.3
				c0.5,0.2,1,0.5,1.4,0.9c0.4,0.4,0.7,0.9,0.9,1.4C336.9,224.2,337,224.7,337,225.4z M335.7,225.4c0-0.5-0.1-0.9-0.2-1.3
				c-0.2-0.4-0.4-0.8-0.6-1c-0.3-0.3-0.6-0.5-1-0.7c-0.4-0.2-0.8-0.3-1.3-0.3c-0.5,0-0.9,0.1-1.3,0.3c-0.4,0.2-0.7,0.4-1,0.7
				c-0.3,0.3-0.5,0.6-0.6,1c-0.2,0.4-0.2,0.8-0.2,1.3c0,0.5,0.1,0.9,0.2,1.3c0.1,0.4,0.4,0.8,0.6,1.1c0.3,0.3,0.6,0.5,1,0.7
				c0.4,0.2,0.8,0.3,1.3,0.3c0.5,0,0.9-0.1,1.3-0.3c0.4-0.2,0.7-0.4,1-0.7c0.3-0.3,0.5-0.7,0.6-1.1
				C335.6,226.3,335.7,225.8,335.7,225.4z"/>
			<path class="st1" d="M344.1,216.1h1.2v6.5h0c0.2-0.3,0.4-0.5,0.7-0.7c0.3-0.2,0.5-0.4,0.8-0.5c0.3-0.1,0.6-0.2,0.9-0.3
				c0.3-0.1,0.6-0.1,0.9-0.1c0.6,0,1.2,0.1,1.8,0.3c0.5,0.2,1,0.5,1.4,0.9c0.4,0.4,0.7,0.9,0.9,1.4c0.2,0.5,0.3,1.1,0.3,1.7
				c0,0.6-0.1,1.2-0.3,1.8c-0.2,0.5-0.5,1-0.9,1.4c-0.4,0.4-0.9,0.7-1.4,0.9c-0.5,0.2-1.1,0.3-1.8,0.3c-0.3,0-0.6,0-0.9-0.1
				c-0.3-0.1-0.6-0.2-0.9-0.3c-0.3-0.1-0.6-0.3-0.8-0.5c-0.3-0.2-0.5-0.4-0.7-0.7h0v1.4h-1.2V216.1z M351.7,225.4
				c0-0.5-0.1-0.9-0.2-1.3c-0.1-0.4-0.4-0.8-0.6-1c-0.3-0.3-0.6-0.5-1-0.7c-0.4-0.2-0.8-0.3-1.3-0.3c-0.5,0-0.9,0.1-1.3,0.3
				c-0.4,0.2-0.8,0.4-1,0.7c-0.3,0.3-0.5,0.6-0.7,1c-0.2,0.4-0.2,0.8-0.2,1.3c0,0.5,0.1,0.9,0.2,1.3c0.2,0.4,0.4,0.8,0.7,1.1
				c0.3,0.3,0.6,0.5,1,0.7c0.4,0.2,0.9,0.3,1.3,0.3c0.5,0,0.9-0.1,1.3-0.3c0.4-0.2,0.7-0.4,1-0.7c0.3-0.3,0.5-0.7,0.6-1.1
				C351.6,226.3,351.7,225.8,351.7,225.4z"/>
			<path class="st1" d="M355.1,223.8c0-0.4,0-0.7,0-1.1c0-0.4,0-0.9-0.1-1.5h1.2v1.6h0c0.1-0.2,0.2-0.4,0.4-0.7
				c0.2-0.2,0.3-0.4,0.6-0.6c0.2-0.2,0.5-0.3,0.8-0.4c0.3-0.1,0.6-0.2,1-0.2c0.3,0,0.6,0,0.9,0.1l-0.2,1.2c-0.2-0.1-0.4-0.1-0.7-0.1
				c-0.5,0-0.8,0.1-1.2,0.3c-0.3,0.2-0.6,0.4-0.8,0.7c-0.2,0.3-0.4,0.6-0.5,0.9c-0.1,0.3-0.1,0.6-0.1,0.9v4.7h-1.2V223.8z"/>
			<path class="st1" d="M366.3,224.4v-0.2c0-1.4-0.7-2.2-2.1-2.2c-1,0-1.8,0.3-2.6,1l-0.7-0.8c0.8-0.8,2-1.2,3.5-1.2
				c0.4,0,0.8,0.1,1.2,0.2c0.4,0.1,0.7,0.3,1,0.5c0.3,0.2,0.5,0.5,0.7,0.9c0.2,0.4,0.3,0.8,0.3,1.3v3.7c0,0.3,0,0.7,0,1
				c0,0.4,0.1,0.6,0.1,0.9h-1.1c0-0.2-0.1-0.4-0.1-0.6c0-0.2,0-0.5,0-0.7h0c-0.3,0.6-0.8,1-1.2,1.2c-0.5,0.2-1,0.4-1.7,0.4
				c-0.4,0-0.7,0-1.1-0.1c-0.3-0.1-0.7-0.3-0.9-0.5c-0.3-0.2-0.5-0.5-0.6-0.8c-0.2-0.3-0.2-0.7-0.2-1.1c0-0.7,0.2-1.2,0.5-1.6
				c0.4-0.4,0.8-0.7,1.3-0.9c0.5-0.2,1.1-0.3,1.7-0.4c0.6,0,1.1-0.1,1.6-0.1H366.3z M365.7,225.4c-0.3,0-0.7,0-1.1,0
				c-0.4,0-0.9,0.1-1.3,0.2c-0.4,0.1-0.8,0.3-1.1,0.5c-0.3,0.2-0.4,0.6-0.4,1c0,0.3,0.1,0.5,0.2,0.7c0.1,0.2,0.3,0.3,0.5,0.5
				c0.2,0.1,0.4,0.2,0.6,0.3c0.2,0.1,0.5,0.1,0.7,0.1c0.4,0,0.8-0.1,1.1-0.2c0.3-0.1,0.6-0.3,0.8-0.6c0.2-0.3,0.4-0.5,0.5-0.9
				c0.1-0.3,0.2-0.7,0.2-1v-0.6H365.7z"/>
			<path class="st1" d="M371.3,221.2c0,0.2,0,0.5,0,0.7c0,0.2,0,0.5,0,0.7h0c0.1-0.2,0.3-0.4,0.5-0.6c0.2-0.2,0.4-0.4,0.7-0.5
				c0.2-0.1,0.5-0.2,0.8-0.3c0.3-0.1,0.6-0.1,0.8-0.1c1.1,0,1.9,0.3,2.4,0.9c0.5,0.6,0.8,1.4,0.8,2.4v5.3h-1.2v-4.6
				c0-0.9-0.2-1.6-0.5-2.1c-0.3-0.5-0.9-0.7-1.8-0.7c-0.1,0-0.2,0-0.5,0.1c-0.3,0.1-0.6,0.2-0.9,0.4c-0.3,0.2-0.6,0.5-0.8,1
				c-0.2,0.4-0.4,1-0.4,1.8v4.3h-1.2V223c0-0.2,0-0.5,0-0.8c0-0.3,0-0.7-0.1-1H371.3z"/>
			<path class="st1" d="M388.5,229.5h-1.2v-1.4h0c-0.2,0.3-0.4,0.5-0.7,0.7c-0.3,0.2-0.5,0.4-0.8,0.5c-0.3,0.1-0.6,0.2-0.9,0.3
				c-0.3,0.1-0.6,0.1-0.9,0.1c-0.7,0-1.3-0.1-1.8-0.3c-0.5-0.2-1-0.5-1.4-0.9c-0.4-0.4-0.7-0.8-0.9-1.4c-0.2-0.5-0.3-1.1-0.3-1.8
				c0-0.6,0.1-1.2,0.3-1.7c0.2-0.5,0.5-1,0.9-1.4c0.4-0.4,0.9-0.7,1.4-0.9c0.5-0.2,1.1-0.3,1.8-0.3c0.3,0,0.6,0,0.9,0.1
				c0.3,0.1,0.6,0.2,0.9,0.3c0.3,0.1,0.6,0.3,0.8,0.5c0.3,0.2,0.5,0.4,0.7,0.7h0v-6.5h1.2V229.5z M380.9,225.4
				c0,0.5,0.1,0.9,0.2,1.3c0.1,0.4,0.4,0.8,0.6,1.1c0.3,0.3,0.6,0.5,1,0.7c0.4,0.2,0.8,0.3,1.3,0.3c0.5,0,0.9-0.1,1.3-0.3
				c0.4-0.2,0.8-0.4,1.1-0.7c0.3-0.3,0.5-0.7,0.7-1.1c0.2-0.4,0.3-0.8,0.3-1.3c0-0.5-0.1-0.9-0.3-1.3c-0.2-0.4-0.4-0.8-0.7-1
				c-0.3-0.3-0.7-0.5-1.1-0.7c-0.4-0.2-0.9-0.3-1.3-0.3c-0.5,0-0.9,0.1-1.3,0.3c-0.4,0.2-0.7,0.4-1,0.7c-0.3,0.3-0.5,0.6-0.6,1
				C380.9,224.5,380.9,224.9,380.9,225.4z"/>
			<path class="st1" d="M395.5,223.2c-0.2-0.3-0.4-0.6-0.7-0.8c-0.3-0.2-0.7-0.3-1.1-0.3c-0.2,0-0.4,0-0.6,0.1
				c-0.2,0.1-0.4,0.1-0.6,0.2c-0.2,0.1-0.3,0.2-0.4,0.4c-0.1,0.2-0.1,0.3-0.1,0.6c0,0.4,0.1,0.7,0.4,0.9c0.3,0.2,0.7,0.3,1.2,0.5
				l1.2,0.3c0.6,0.1,1.1,0.4,1.4,0.8c0.4,0.4,0.6,0.9,0.6,1.5c0,0.5-0.1,0.8-0.3,1.2c-0.2,0.3-0.4,0.6-0.7,0.8
				c-0.3,0.2-0.6,0.4-1,0.5c-0.4,0.1-0.8,0.1-1.2,0.1c-0.6,0-1.2-0.1-1.8-0.4c-0.6-0.2-1-0.7-1.4-1.3l1-0.7c0.2,0.4,0.5,0.7,0.9,0.9
				c0.4,0.2,0.8,0.3,1.3,0.3c0.2,0,0.5,0,0.7-0.1c0.2-0.1,0.5-0.1,0.6-0.3c0.2-0.1,0.3-0.3,0.5-0.4c0.1-0.2,0.2-0.4,0.2-0.6
				c0-0.4-0.2-0.7-0.5-0.9c-0.3-0.2-0.7-0.3-1.1-0.4l-1.1-0.3c-0.1,0-0.3-0.1-0.6-0.2c-0.2-0.1-0.5-0.2-0.7-0.4
				c-0.2-0.2-0.4-0.4-0.6-0.7c-0.2-0.3-0.3-0.6-0.3-1c0-0.4,0.1-0.8,0.3-1.1c0.2-0.3,0.4-0.6,0.7-0.8c0.3-0.2,0.6-0.4,1-0.5
				c0.4-0.1,0.8-0.2,1.1-0.2c0.6,0,1.1,0.1,1.6,0.3c0.5,0.2,0.9,0.6,1.2,1.2L395.5,223.2z"/>
		</g>
		<g>
			<path class="st2" d="M198.9,223.8c0.4-0.4,0.9-0.8,1.3-1.3c0.8-0.7,1.6-1.4,2.6-1.8c0.4-0.2,0.9-0.3,1.3-0.4
				c0.9-0.1,1.7,0.1,2.5,0.7c0.7,0.5,1.2,1.2,1.4,2.1c0.2,0.9,0.1,1.7-0.3,2.4c-0.5,1-1.4,1.6-2.5,1.8c-1.1,0.2-2-0.1-2.9-0.6
				c-0.9-0.5-1.7-1.2-2.4-1.9c-0.3-0.3-0.6-0.6-0.9-0.9c-0.1,0-0.1,0.1-0.2,0.2c-0.6,0.5-1.1,1.1-1.7,1.6c-0.7,0.6-1.4,1.2-2.3,1.5
				c-0.9,0.3-1.8,0.4-2.7,0c-1.1-0.5-1.8-1.3-2.1-2.4c-0.3-1.3,0-2.4,0.9-3.3c0.6-0.6,1.3-0.9,2-1.1c0.8-0.1,1.5,0,2.2,0.3
				c0.9,0.4,1.6,0.9,2.3,1.6C197.8,222.8,198.3,223.3,198.9,223.8z M198.8,223.9c-0.5-0.5-0.9-0.9-1.4-1.3c-0.5-0.4-1-0.8-1.5-1.2
				c-0.9-0.6-1.9-1.1-3.1-0.9c-1,0.1-1.8,0.6-2.4,1.4c-0.5,0.8-0.7,1.6-0.6,2.5c0.1,1,0.6,1.8,1.4,2.3c0.7,0.5,1.6,0.7,2.5,0.6
				c0.7-0.1,1.3-0.4,1.9-0.7C196.8,225.9,197.8,224.9,198.8,223.9z M198.9,223.9c0.5,0.5,0.9,0.9,1.4,1.4c0.5,0.4,1,0.9,1.5,1.2
				c0.9,0.6,1.9,1.1,3.1,0.9c1-0.1,1.8-0.6,2.4-1.4c0.5-0.8,0.7-1.6,0.6-2.5c-0.1-0.7-0.4-1.4-0.9-1.9c-0.8-0.8-1.8-1.2-3-1.1
				c-0.7,0.1-1.3,0.3-1.9,0.7C200.9,221.9,199.9,222.9,198.9,223.9z"/>
			<path class="st3" d="M193.3,227.9c-0.5,0-1-0.1-1.5-0.3c-1.2-0.5-2.1-1.5-2.4-2.7c-0.4-1.4,0-2.7,1-3.8c0.6-0.6,1.4-1.1,2.3-1.2
				c0.8-0.1,1.6,0,2.4,0.4c0.8,0.4,1.6,0.9,2.4,1.7l1.3,1.2l0.1-0.1c0.3-0.3,0.6-0.6,0.9-0.8c0.7-0.7,1.6-1.4,2.7-1.9
				c0.5-0.2,0.9-0.3,1.5-0.4c1-0.1,2,0.1,2.8,0.8c0.8,0.6,1.3,1.4,1.6,2.4c0.2,1,0.1,1.9-0.4,2.7c-0.6,1.1-1.6,1.8-2.8,2.1
				c-1.1,0.2-2.1,0-3.3-0.7c-1-0.6-1.9-1.4-2.5-2c-0.2-0.2-0.4-0.4-0.6-0.6l-0.4,0.4c-0.4,0.4-0.8,0.7-1.2,1.1
				c-0.7,0.6-1.5,1.2-2.5,1.6C194.3,227.8,193.8,227.9,193.3,227.9z M199.6,223.9l0.1,0.1c0.3,0.3,0.6,0.6,1,0.9
				c0.5,0.4,1,0.8,1.5,1.2c0.8,0.6,1.5,0.8,2.3,0.8l0,0c0.2,0,0.3,0,0.5,0c0.9-0.1,1.5-0.5,2-1.3c0.5-0.7,0.6-1.4,0.5-2.2
				c-0.1-0.6-0.4-1.2-0.8-1.6c-0.7-0.8-1.6-1.1-2.6-0.9c-0.6,0.1-1.1,0.3-1.7,0.6C201.3,222.2,200.5,223,199.6,223.9z M193.3,220.9
				c-0.2,0-0.3,0-0.5,0c-0.9,0.1-1.5,0.5-2,1.2c-0.5,0.7-0.6,1.4-0.5,2.2c0.1,0.9,0.5,1.5,1.2,2c0.7,0.5,1.4,0.6,2.1,0.5
				c0.6-0.1,1.1-0.3,1.7-0.6c1-0.6,1.9-1.5,2.8-2.4l-0.1-0.1c-0.3-0.3-0.6-0.6-1-0.9c-0.5-0.4-1-0.8-1.4-1.2
				C194.8,221.1,194.1,220.9,193.3,220.9z"/>
		</g>
	</g>
</g>
</svg>
