<?xml version="1.0" encoding="utf-8"?>
<!-- Generator: Adobe Illustrator 19.0.1, SVG Export Plug-In . SVG Version: 6.00 Build 0)  -->
<svg version="1.1" id="Layer_1" xmlns="http://www.w3.org/2000/svg" xmlns:xlink="http://www.w3.org/1999/xlink" x="0px" y="0px"
	 viewBox="0 0 300 50" style="enable-background:new 0 0 300 50;" xml:space="preserve">
<style type="text/css">
	.st0{fill:none;}
	.st1{fill:#D8DD27;}
	.st2{fill:#D8DD29;}
	.st3{fill:#F9B719;}
	.st4{fill:#FFC812;}
	.st5{fill:#038DBB;}
	.st6{fill:#97C93E;}
	.st7{fill:#E82629;}
	.st8{fill:#EA2427;}
	.st9{fill:#2BA6DE;}
	.st10{fill:#EC207A;}
	.st11{fill:#F05E24;}
	.st12{fill:#E9292B;}
	.st13{fill:#F05C28;}
	.st14{fill:#EC237A;}
	.st15{fill:#58595B;}
</style>
<g>
	<g>
		<path class="st0" d="M32.1,13.8C32.1,13.8,32.2,13.8,32.1,13.8c0.1,0.1,0.1,0.1,0.1,0.1c0,0,0,0,0,0c0,0,0,0,0,0c0,0,0,0.1,0,0.1
			c0,0,0,0.1,0,0.1c0,0,0,0.1,0,0.1c0,0,0,0-0.1,0.1c0,0-0.1,0-0.1,0c0,0-0.1,0-0.1,0c0,0-0.1,0-0.1-0.1c0,0,0-0.1-0.1-0.1
			c0,0,0,0,0,0c0,0,0,0,0,0c0,0,0,0,0,0c0,0,0,0,0,0c0,0,0,0,0,0c0,0,0,0,0,0c0,0,0,0,0,0.1c0,0,0,0,0,0c0,0,0.1,0,0.1,0.1
			c0,0,0.1,0,0.1,0c0,0,0.1,0,0.1,0c0,0,0,0,0.1-0.1c0,0,0-0.1,0-0.1c0,0,0-0.1,0-0.1c0,0,0-0.1,0-0.1c0,0,0-0.1,0-0.1
			C32.2,13.9,32.2,13.8,32.1,13.8C32.1,13.8,32.1,13.8,32.1,13.8c-0.1,0-0.1,0-0.1,0c0,0,0,0-0.1,0c0,0,0,0-0.1,0c0,0,0,0,0,0.1l0,0
			v0c0,0,0,0,0,0c0,0,0,0,0,0c0,0,0,0,0.1,0c0,0,0,0,0.1,0C32,13.8,32,13.8,32.1,13.8C32.1,13.8,32.1,13.8,32.1,13.8z"/>
	</g>
	<g>
		<path class="st1" d="M5.8,19.4l-0.4-0.7c0.9-0.6,2-0.6,3,0c1.2,0.8,1.6,2.5,0.7,3.7c-0.8,1.2-2.5,1.6-3.7,0.7
			c-0.9-0.6-1.3-1.7-1.1-2.7l0.8,0.1c-0.2,0.7,0.1,1.6,0.8,2c0.9,0.6,2,0.3,2.6-0.5c0.6-0.9,0.3-2-0.5-2.6C7.3,18.9,6.5,19,5.8,19.4
			z"/>
		<path class="st2" d="M7,23.7c-0.5,0-1.1-0.2-1.5-0.5c-0.9-0.6-1.4-1.7-1.2-2.8l0-0.1l1,0.1l0,0.1C5,21.2,5.3,22,6,22.4
			c0.3,0.2,0.6,0.3,1,0.3c0.6,0,1.2-0.3,1.5-0.8c0.3-0.4,0.4-0.9,0.3-1.3c-0.1-0.5-0.4-0.9-0.8-1.1c-0.3-0.2-0.6-0.3-1-0.3
			c-0.4,0-0.8,0.1-1.1,0.4l-0.1,0.1l-0.4-0.9l0.1,0c0.5-0.3,1-0.5,1.5-0.5c0.5,0,1.1,0.2,1.5,0.5c1.3,0.8,1.6,2.6,0.8,3.8
			C8.7,23.2,7.9,23.7,7,23.7z M4.4,20.5c-0.2,1,0.3,2,1.1,2.6c0.4,0.3,0.9,0.4,1.4,0.4c0.9,0,1.7-0.4,2.2-1.2
			c0.8-1.2,0.5-2.8-0.7-3.6C8,18.5,7.5,18.3,7,18.3c-0.5,0-1,0.1-1.4,0.4l0.3,0.6C6.2,19.1,6.6,19,7,19c0.4,0,0.8,0.1,1.1,0.3
			c0.4,0.3,0.7,0.7,0.8,1.2c0.1,0.5,0,1-0.3,1.5c-0.4,0.5-1,0.9-1.6,0.9l0,0c-0.4,0-0.8-0.1-1.1-0.3c-0.7-0.4-1-1.2-0.8-2L4.4,20.5z
			"/>
	</g>
	<g>
		<path class="st3" d="M7.4,17.6l0,0.2c-0.3,0.1-0.7-0.1-0.9-0.4c-0.3-0.4-0.1-1,0.3-1.2c0.4-0.3,1-0.1,1.2,0.3c0.2,0.3,0.2,0.7,0,1
			l-0.1-0.1c0.2-0.2,0.2-0.6,0-0.8c-0.2-0.3-0.7-0.4-1-0.2c-0.3,0.2-0.4,0.7-0.2,1C6.8,17.5,7.1,17.6,7.4,17.6z"/>
	</g>
	<g>
		<path class="st4" d="M5.6,17.5L5.6,17.5c0.1-0.1,0.2-0.2,0.3-0.1c0.2,0.1,0.3,0.3,0.2,0.4C6.1,18,5.9,18.1,5.7,18
			c-0.1-0.1-0.2-0.2-0.2-0.3l0.1,0c0,0.1,0.1,0.2,0.2,0.3C5.9,18,6,18,6.1,17.8c0.1-0.1,0-0.3-0.1-0.4C5.8,17.4,5.7,17.4,5.6,17.5z"
			/>
	</g>
	<g>
		<path class="st1" d="M8.5,17.5L8.5,17.5c0.1-0.1,0.2-0.2,0.3-0.1C9,17.5,9.1,17.7,9,17.8C8.9,18,8.7,18.1,8.6,18
			c-0.1-0.1-0.2-0.2-0.2-0.3l0.1,0c0,0.1,0.1,0.2,0.2,0.3c0.1,0.1,0.3,0,0.4-0.1c0.1-0.1,0-0.3-0.1-0.4C8.7,17.4,8.6,17.4,8.5,17.5z
			"/>
	</g>
	<g>
		<path class="st5" d="M9.3,13.4l-0.1-0.3c0.7-0.4,1.5-0.3,2.1,0.2c0.8,0.6,1,1.9,0.3,2.7c-0.6,0.8-1.9,1-2.7,0.3
			c-0.6-0.5-0.9-1.3-0.7-2l0.4,0c-0.2,0.6,0,1.3,0.5,1.7c0.7,0.5,1.7,0.4,2.2-0.3c0.5-0.7,0.4-1.7-0.3-2.2
			C10.5,13.1,9.8,13.1,9.3,13.4z"/>
	</g>
	<g>
		<path class="st6" d="M10.7,19l0,0.2c-0.3,0.1-0.7-0.1-0.9-0.4c-0.3-0.4-0.1-1,0.3-1.2c0.4-0.3,1-0.1,1.2,0.3c0.2,0.3,0.2,0.7,0,1
			l-0.1-0.1c0.2-0.2,0.2-0.6,0-0.8c-0.2-0.3-0.7-0.4-1-0.2c-0.3,0.2-0.4,0.7-0.2,1C10.2,18.9,10.5,19,10.7,19z"/>
	</g>
	<g>
		<path class="st7" d="M10.2,19.8L10.2,19.8c0.1-0.1,0.2-0.2,0.3-0.1c0.2,0.1,0.3,0.3,0.2,0.4c-0.1,0.2-0.3,0.3-0.4,0.2
			c-0.1-0.1-0.2-0.2-0.2-0.3l0.1,0c0,0.1,0.1,0.2,0.2,0.3c0.1,0.1,0.3,0,0.4-0.1c0.1-0.1,0-0.3-0.1-0.4
			C10.4,19.7,10.3,19.7,10.2,19.8z"/>
		<path class="st8" d="M10.4,20.4c0,0-0.1,0-0.1,0C10.1,20.3,10,20.1,10,20v0l0.1,0l0,0c0,0.1,0.1,0.2,0.1,0.2c0.1,0,0.3,0,0.3-0.1
			c0-0.1,0-0.1,0-0.2c0-0.1-0.1-0.1-0.1-0.1c-0.1,0-0.2,0-0.3,0.1l0,0l-0.1-0.1l0,0c0.1-0.1,0.3-0.1,0.4-0.1
			c0.2,0.1,0.3,0.3,0.2,0.5C10.7,20.3,10.5,20.4,10.4,20.4z"/>
	</g>
	<g>
		<path class="st3" d="M12.6,18.6l-0.4,0.2c-0.3-0.5-0.3-1.1,0.1-1.5c0.5-0.6,1.3-0.7,1.9-0.3c0.6,0.5,0.7,1.3,0.3,1.9
			c-0.3,0.5-0.9,0.6-1.5,0.5l0-0.4c0.4,0.1,0.8,0,1.1-0.3c0.3-0.4,0.2-1-0.2-1.4c-0.4-0.3-1-0.2-1.4,0.2
			C12.4,17.8,12.4,18.3,12.6,18.6z"/>
	</g>
	<g>
		<path class="st3" d="M12.3,15.8L12.3,15.8c0-0.2,0.2-0.3,0.4-0.3c0.2,0.1,0.4,0.3,0.3,0.5c-0.1,0.2-0.3,0.4-0.5,0.3
			c-0.2,0-0.3-0.2-0.3-0.4l0.1,0c0,0.1,0.1,0.2,0.2,0.3c0.2,0,0.3-0.1,0.4-0.2c0-0.2-0.1-0.3-0.2-0.4C12.5,15.7,12.4,15.7,12.3,15.8
			z"/>
	</g>
	<g>
		<path class="st8" d="M9.8,11.4L9.8,11.4c0-0.1,0.1-0.2,0.2-0.2c0.2,0,0.3,0.1,0.3,0.3c0,0.2-0.1,0.3-0.3,0.3
			c-0.1,0-0.2-0.1-0.3-0.2l0.1,0c0,0.1,0.1,0.1,0.2,0.1c0.1,0,0.2-0.1,0.2-0.2c0-0.1-0.1-0.2-0.2-0.2C9.9,11.2,9.9,11.3,9.8,11.4z"
			/>
	</g>
	<g>
		<path class="st9" d="M11.6,10.8l-0.1-0.1c0.2-0.3,0.5-0.5,0.9-0.4c0.5,0.1,0.8,0.5,0.8,1c-0.1,0.5-0.5,0.8-1,0.8
			c-0.4-0.1-0.6-0.3-0.7-0.7l0.2-0.1c0.1,0.3,0.3,0.5,0.6,0.6c0.4,0.1,0.8-0.2,0.8-0.6c0.1-0.4-0.2-0.8-0.6-0.8
			C12,10.4,11.7,10.5,11.6,10.8z"/>
	</g>
	<g>
		<path class="st10" d="M12.4,12.9L12.4,12.9c0-0.3,0.3-0.4,0.5-0.3c0.3,0,0.5,0.3,0.5,0.7c0,0.3-0.3,0.5-0.7,0.5
			c-0.2,0-0.4-0.2-0.5-0.4l0.1,0c0,0.2,0.2,0.3,0.4,0.4c0.3,0,0.5-0.1,0.5-0.4c0-0.3-0.1-0.5-0.4-0.5C12.6,12.7,12.4,12.8,12.4,12.9
			z"/>
	</g>
	<g>
		<path class="st10" d="M13.1,14.5l-0.1-0.1c0.1-0.2,0.2-0.3,0.4-0.3c0.3,0,0.5,0.2,0.5,0.5c0,0.3-0.2,0.5-0.5,0.5
			c-0.2,0-0.4-0.1-0.5-0.3l0.1-0.1c0.1,0.1,0.2,0.2,0.3,0.2c0.2,0,0.3-0.2,0.3-0.4c0-0.2-0.2-0.3-0.4-0.3
			C13.2,14.2,13.1,14.3,13.1,14.5z"/>
	</g>
	<g>
		<path class="st9" d="M14.2,15.6L14,15.5c0.1-0.3,0.3-0.4,0.6-0.4c0.4,0,0.7,0.3,0.7,0.7c0,0.4-0.3,0.7-0.7,0.7
			c-0.3,0-0.5-0.1-0.7-0.4l0.2-0.1c0.1,0.2,0.3,0.3,0.5,0.3c0.3,0,0.5-0.2,0.5-0.5c0-0.3-0.2-0.5-0.5-0.5
			C14.5,15.2,14.3,15.4,14.2,15.6z"/>
	</g>
	<g>
		<path class="st5" d="M15,16.9L15,16.9c0-0.2,0.1-0.3,0.2-0.3c0.2,0,0.3,0.1,0.3,0.3c0,0.2-0.1,0.3-0.3,0.3c-0.1,0-0.3-0.1-0.3-0.2
			L15,17c0,0.1,0.1,0.1,0.2,0.1c0.1,0,0.2-0.1,0.2-0.2c0-0.1-0.1-0.2-0.2-0.2C15.1,16.7,15,16.8,15,16.9z"/>
	</g>
	<g>
		<path class="st8" d="M12.8,20.3l-0.1-0.2c0.2-0.1,0.5-0.1,0.8,0c0.3,0.2,0.4,0.7,0.2,1c-0.2,0.3-0.7,0.4-1,0.2
			c-0.2-0.2-0.3-0.5-0.3-0.7l0.2,0c-0.1,0.2,0,0.4,0.2,0.5c0.2,0.2,0.5,0.1,0.7-0.1c0.2-0.2,0.1-0.5-0.1-0.7
			C13.2,20.2,13,20.2,12.8,20.3z"/>
	</g>
	<g>
		<path class="st9" d="M11.6,19.7l0-0.1c0.2-0.1,0.3,0,0.5,0.1c0.2,0.2,0.2,0.4,0,0.6c-0.2,0.2-0.5,0.2-0.6,0
			c-0.1-0.1-0.2-0.3-0.1-0.5l0.1,0c-0.1,0.1,0,0.3,0.1,0.4c0.1,0.1,0.3,0.1,0.4,0c0.1-0.1,0.1-0.3,0-0.4
			C11.8,19.7,11.7,19.7,11.6,19.7z"/>
	</g>
	<g>
		<path class="st10" d="M11.2,22.5l0,0.3c-0.4,0-0.8-0.2-1-0.5c-0.3-0.5-0.1-1.1,0.4-1.4c0.5-0.3,1.1-0.1,1.4,0.4
			c0.2,0.4,0.1,0.8-0.1,1.1l-0.3-0.2c0.2-0.2,0.3-0.5,0.1-0.8c-0.2-0.4-0.6-0.5-1-0.3c-0.4,0.2-0.5,0.6-0.3,1
			C10.6,22.4,10.9,22.6,11.2,22.5z"/>
	</g>
	<g>
		<path class="st4" d="M12.6,23.2L12.6,23.2c0-0.2,0.2-0.2,0.3-0.2c0.2,0.1,0.3,0.2,0.2,0.4c-0.1,0.2-0.2,0.3-0.4,0.2
			c-0.1,0-0.2-0.2-0.2-0.3l0.1,0c0,0.1,0.1,0.2,0.2,0.2c0.1,0,0.3,0,0.3-0.2c0-0.1,0-0.3-0.2-0.3C12.8,23,12.7,23.1,12.6,23.2z"/>
	</g>
	<g>
		<path class="st8" d="M4.4,23.6l-0.1-0.1c0.2-0.1,0.4-0.1,0.6,0c0.2,0.2,0.3,0.5,0.1,0.7c-0.2,0.2-0.5,0.3-0.7,0.1
			c-0.2-0.1-0.3-0.4-0.2-0.6l0.2,0c0,0.1,0,0.3,0.1,0.4c0.2,0.1,0.4,0.1,0.5-0.1C5,23.9,5,23.7,4.8,23.6C4.7,23.5,4.5,23.5,4.4,23.6
			z"/>
	</g>
	<g>
		<path class="st6" d="M4.4,25.1L4.4,25.1c0-0.2,0.1-0.3,0.3-0.3C4.8,24.8,5,25,5,25.2c0,0.2-0.2,0.4-0.4,0.3
			c-0.2,0-0.3-0.1-0.3-0.3l0.1,0c0,0.1,0.1,0.2,0.2,0.2c0.1,0,0.3-0.1,0.3-0.2c0-0.1-0.1-0.3-0.2-0.3C4.5,24.9,4.4,25,4.4,25.1z"/>
	</g>
	<g>
		<path class="st11" d="M6,24.7l-0.2-0.1c0.1-0.3,0.4-0.5,0.8-0.5c0.4,0,0.8,0.4,0.8,0.8c0,0.4-0.4,0.8-0.8,0.8
			c-0.3,0-0.6-0.2-0.7-0.5L6,25.1c0.1,0.2,0.3,0.4,0.5,0.4c0.3,0,0.6-0.3,0.6-0.6c0-0.3-0.3-0.6-0.6-0.6C6.3,24.3,6.1,24.5,6,24.7z"
			/>
	</g>
	<g>
		<path class="st8" d="M6.4,27.8L6.7,28c-0.3,0.4-0.8,0.7-1.3,0.6c-0.7-0.1-1.2-0.8-1.1-1.5c0.1-0.7,0.8-1.2,1.5-1.1
			c0.5,0.1,1,0.5,1.1,1l-0.4,0.1c-0.1-0.4-0.4-0.7-0.8-0.7c-0.5-0.1-1,0.3-1.1,0.8c-0.1,0.5,0.3,1,0.8,1.1
			C5.9,28.3,6.2,28.1,6.4,27.8z"/>
	</g>
	<g>
		<g>
			<path class="st12" d="M10.7,27.8l0,0.8c-1,0.1-2-0.5-2.5-1.4c-0.6-1.3-0.1-2.8,1.2-3.5c1.3-0.6,2.8-0.1,3.5,1.2
				c0.5,1,0.3,2.1-0.4,2.9l-0.7-0.4c0.5-0.5,0.7-1.4,0.3-2.1c-0.4-0.9-1.5-1.3-2.4-0.8c-0.9,0.4-1.3,1.5-0.8,2.4
				C9.2,27.5,9.9,27.8,10.7,27.8z"/>
			<path class="st7" d="M10.4,28.6c-1,0-1.9-0.6-2.4-1.5c-0.6-1.3-0.1-2.9,1.2-3.5c0.4-0.2,0.8-0.3,1.2-0.3c1,0,1.9,0.6,2.4,1.5
				c0.5,1,0.3,2.1-0.4,2.9l0,0l0,0l-0.7-0.4l0,0c0.5-0.5,0.7-1.4,0.3-2.1c-0.3-0.6-0.9-1-1.6-1c-0.3,0-0.5,0.1-0.8,0.2
				c-0.9,0.4-1.3,1.5-0.8,2.4c0.3,0.6,0.9,1,1.6,1l0,0c0.1,0,0.1,0,0.2,0l0,0l-0.1,0.8l0,0C10.6,28.6,10.5,28.6,10.4,28.6z
				 M10.4,23.4c-0.4,0-0.8,0.1-1.1,0.3c-1.3,0.6-1.8,2.2-1.2,3.5c0.4,0.9,1.3,1.4,2.3,1.4c0,0,0.1,0,0.1,0l0-0.7c-0.1,0-0.1,0-0.2,0
				c0,0,0,0,0,0c-0.7,0-1.3-0.4-1.7-1c-0.5-0.9-0.1-2,0.8-2.5c0.3-0.1,0.5-0.2,0.8-0.2c0.7,0,1.3,0.4,1.7,1c0.3,0.7,0.2,1.5-0.3,2.1
				l0.6,0.4c0.7-0.8,0.8-1.9,0.4-2.8C12.3,23.9,11.4,23.4,10.4,23.4z"/>
		</g>
		<g>
			<path class="st12" d="M10.4,28.6c-1,0-2-0.6-2.4-1.5c-0.7-1.3-0.1-3,1.2-3.6c0.4-0.2,0.8-0.3,1.2-0.3c1,0,2,0.6,2.4,1.5
				c0.5,1,0.3,2.2-0.4,3l-0.1,0.1l-0.8-0.6l0.1-0.1c0.5-0.5,0.6-1.3,0.3-2c-0.3-0.6-0.9-1-1.5-1c-0.3,0-0.5,0.1-0.8,0.2
				c-0.8,0.4-1.2,1.5-0.8,2.3c0.3,0.6,0.9,1,1.5,1l0,0c0.1,0,0.1,0,0.2,0l0.1,0l-0.1,1l-0.1,0C10.6,28.6,10.5,28.6,10.4,28.6z
				 M10.4,23.4c-0.4,0-0.8,0.1-1.1,0.3c-1.2,0.6-1.7,2.1-1.1,3.3c0.4,0.9,1.3,1.4,2.3,1.4l0-0.6c0,0-0.1,0-0.1,0l0,0
				c-0.7,0-1.4-0.4-1.7-1.1c-0.5-1-0.1-2.1,0.9-2.6c0.3-0.1,0.6-0.2,0.9-0.2c0.7,0,1.4,0.4,1.7,1.1c0.3,0.7,0.2,1.5-0.3,2.1l0.5,0.3
				c0.6-0.8,0.7-1.8,0.3-2.7C12.2,24,11.4,23.4,10.4,23.4z"/>
			<path class="st7" d="M10.4,28.7c-1,0-2-0.6-2.5-1.5c-0.7-1.4-0.1-3,1.2-3.7c0.4-0.2,0.8-0.3,1.2-0.3c1,0,2,0.6,2.5,1.5
				c0.5,1,0.3,2.2-0.4,3l-0.1,0.1l0,0l-0.9-0.6l0.1-0.1c0.5-0.5,0.6-1.3,0.3-1.9c-0.3-0.6-0.9-0.9-1.5-0.9c-0.3,0-0.5,0.1-0.8,0.2
				c-0.4,0.2-0.7,0.5-0.9,1c-0.1,0.4-0.1,0.9,0.1,1.3c0.3,0.6,0.9,0.9,1.5,0.9c0.1,0,0.1,0,0.2,0l0.2,0l-0.1,1.1l-0.1,0
				C10.6,28.7,10.5,28.7,10.4,28.7z M10.4,23.2c-0.4,0-0.8,0.1-1.2,0.3c-1.3,0.7-1.9,2.3-1.2,3.6c0.5,0.9,1.4,1.5,2.4,1.5
				c0.1,0,0.1,0,0.2,0l0.1,0l0.1-1l-0.1,0c-0.1,0-0.1,0-0.2,0c-0.7,0-1.3-0.4-1.6-1c-0.2-0.4-0.2-0.9-0.1-1.3c0.1-0.4,0.5-0.8,0.9-1
				c0.2-0.1,0.5-0.2,0.8-0.2c0.7,0,1.3,0.4,1.6,1c0.3,0.7,0.2,1.5-0.3,2l-0.1,0.1l0.8,0.5l0.1-0.1c0.7-0.8,0.9-2,0.4-3
				C12.4,23.8,11.5,23.2,10.4,23.2z M10.4,28.4c-1,0-1.8-0.5-2.2-1.4c-0.6-1.2-0.1-2.8,1.1-3.4c0.4-0.2,0.7-0.3,1.1-0.3
				c1,0,1.8,0.5,2.3,1.4c0.4,0.9,0.3,1.9-0.3,2.7l0,0l-0.5-0.3l0,0c0.5-0.6,0.6-1.4,0.3-2.1c-0.3-0.7-1-1.1-1.7-1.1
				c-0.3,0-0.6,0.1-0.8,0.2c-0.9,0.5-1.3,1.6-0.9,2.6c0.3,0.7,1,1.1,1.7,1.1c0,0,0.1,0,0.1,0l0,0l0,0.6L10.4,28.4
				C10.5,28.4,10.4,28.4,10.4,28.4z M10.4,23.5c-0.4,0-0.7,0.1-1.1,0.3c-1.2,0.6-1.7,2.1-1.1,3.3c0.4,0.8,1.3,1.4,2.2,1.4
				c0,0,0,0,0.1,0l0-0.5c0,0,0,0-0.1,0c-0.7,0-1.4-0.4-1.8-1.1c-0.5-1-0.1-2.1,0.9-2.6C9.8,24,10.1,24,10.4,24
				c0.8,0,1.4,0.4,1.8,1.1c0.3,0.7,0.2,1.5-0.2,2.1l0.4,0.3c0.6-0.7,0.7-1.8,0.3-2.6C12.2,24,11.4,23.5,10.4,23.5z"/>
		</g>
	</g>
	<g>
		<path class="st8" d="M22.8,44l-0.1-0.2c0.2-0.1,0.4-0.1,0.6,0c0.3,0.2,0.3,0.6,0.1,0.8c-0.2,0.3-0.6,0.3-0.8,0.1
			c-0.2-0.1-0.3-0.4-0.2-0.6l0.2,0c0,0.2,0,0.3,0.2,0.4c0.2,0.1,0.4,0.1,0.6-0.1c0.1-0.2,0.1-0.4-0.1-0.6
			C23.1,43.9,22.9,43.9,22.8,44z"/>
	</g>
	<g>
		<path class="st6" d="M12.8,8.7l-0.1-0.1c0-0.2,0.2-0.3,0.4-0.3c0.2,0,0.4,0.1,0.5,0.4c0,0.2-0.1,0.4-0.4,0.5
			c-0.2,0-0.3-0.1-0.4-0.2l0.1-0.1C12.9,9,13,9.1,13.1,9c0.2,0,0.3-0.2,0.3-0.3c0-0.2-0.2-0.3-0.3-0.3C12.9,8.5,12.8,8.6,12.8,8.7z"
			/>
	</g>
	<g>
		<path class="st9" d="M7.3,27.8L7.3,27.8c0-0.2,0.2-0.3,0.4-0.2C7.9,27.6,8,27.9,8,28.1c-0.1,0.2-0.3,0.3-0.5,0.3
			c-0.2,0-0.3-0.2-0.3-0.4l0.1,0c0,0.1,0.1,0.2,0.2,0.3c0.2,0,0.3,0,0.4-0.2c0-0.2,0-0.3-0.2-0.4C7.5,27.6,7.4,27.7,7.3,27.8z"/>
	</g>
	<g>
		<path class="st10" d="M6.9,29.1l-0.1,0c0-0.1,0.2-0.2,0.3-0.3c0.2,0,0.4,0.1,0.4,0.3c0,0.2-0.1,0.4-0.3,0.4
			c-0.2,0-0.3-0.1-0.4-0.2l0.1-0.1c0,0.1,0.2,0.2,0.3,0.2c0.1,0,0.3-0.1,0.2-0.3c0-0.1-0.1-0.3-0.3-0.2C7,29,6.9,29,6.9,29.1z"/>
	</g>
	<g>
		<path class="st9" d="M4.4,29L4.4,29c0-0.2,0.2-0.3,0.4-0.2c0.2,0.1,0.3,0.3,0.3,0.5c-0.1,0.2-0.3,0.3-0.5,0.3
			c-0.2,0-0.3-0.2-0.3-0.4l0.1,0c0,0.1,0.1,0.2,0.2,0.3c0.2,0,0.3,0,0.4-0.2c0-0.2,0-0.3-0.2-0.4C4.6,28.9,4.4,28.9,4.4,29z"/>
	</g>
	<g>
		<path class="st3" d="M5.3,29.8l-0.2-0.1c0.1-0.3,0.4-0.5,0.7-0.5c0.4,0,0.8,0.3,0.8,0.7c0,0.4-0.3,0.8-0.7,0.8
			c-0.3,0-0.6-0.2-0.7-0.4l0.2-0.1c0.1,0.2,0.3,0.3,0.5,0.3c0.3,0,0.5-0.3,0.5-0.5c0-0.3-0.3-0.5-0.5-0.5
			C5.6,29.4,5.4,29.6,5.3,29.8z"/>
	</g>
	<g>
		<path class="st3" d="M8,29.2l-0.2-0.1c0.1-0.3,0.4-0.5,0.7-0.5c0.4,0,0.8,0.3,0.8,0.7c0,0.4-0.3,0.8-0.7,0.8
			c-0.3,0-0.6-0.2-0.7-0.4L8,29.6c0.1,0.2,0.3,0.3,0.5,0.3c0.3,0,0.5-0.3,0.5-0.5c0-0.3-0.3-0.5-0.5-0.5C8.3,28.9,8.1,29,8,29.2z"/>
	</g>
	<g>
		<path class="st6" d="M7.1,32.5l-0.3,0.3c-0.4-0.3-0.6-0.8-0.5-1.3c0.2-0.7,0.8-1.2,1.5-1c0.7,0.2,1.2,0.8,1,1.5
			c-0.1,0.5-0.5,0.9-1,1l-0.1-0.4c0.4,0,0.7-0.3,0.8-0.7c0.1-0.5-0.2-1-0.7-1.1c-0.5-0.1-1,0.2-1.1,0.7C6.6,31.9,6.8,32.3,7.1,32.5z
			"/>
	</g>
	<g>
		<path class="st3" d="M9.2,30.6L9.2,30.6c0-0.2,0.1-0.3,0.2-0.3c0.2,0,0.3,0.1,0.3,0.3c0,0.2-0.1,0.3-0.3,0.3
			c-0.1,0-0.3-0.1-0.3-0.2l0.1-0.1c0,0.1,0.1,0.1,0.2,0.1c0.1,0,0.2-0.1,0.2-0.2c0-0.1-0.1-0.2-0.2-0.2C9.4,30.5,9.3,30.5,9.2,30.6z
			"/>
	</g>
	<g>
		<path class="st1" d="M11.2,30.6l0,0.3c-0.4,0.1-0.8-0.1-1-0.5c-0.3-0.5-0.2-1.1,0.3-1.4c0.5-0.3,1.1-0.2,1.4,0.3
			c0.2,0.4,0.2,0.8,0,1.1l-0.3-0.1c0.2-0.2,0.2-0.6,0-0.8c-0.2-0.3-0.7-0.4-1-0.2c-0.3,0.2-0.4,0.7-0.2,1
			C10.6,30.6,10.9,30.7,11.2,30.6z"/>
	</g>
	<g>
		<path class="st13" d="M12.2,31.1L12,31c0.1-0.3,0.5-0.5,0.8-0.5c0.5,0,0.8,0.4,0.8,0.9c0,0.5-0.4,0.8-0.9,0.8
			c-0.4,0-0.6-0.2-0.8-0.6l0.2-0.1c0.1,0.2,0.3,0.4,0.5,0.4c0.3,0,0.6-0.2,0.6-0.6c0-0.3-0.2-0.6-0.6-0.6
			C12.5,30.8,12.3,30.9,12.2,31.1z"/>
	</g>
	<g>
		<path class="st9" d="M12.5,28.4l-0.1-0.1c0.1-0.2,0.3-0.2,0.5-0.2c0.3,0.1,0.4,0.4,0.3,0.6c-0.1,0.3-0.4,0.4-0.6,0.3
			c-0.2-0.1-0.3-0.2-0.4-0.4l0.1,0c0,0.1,0.1,0.3,0.3,0.3c0.2,0.1,0.4-0.1,0.4-0.2c0.1-0.2-0.1-0.4-0.2-0.4
			C12.7,28.3,12.6,28.3,12.5,28.4z"/>
	</g>
	<g>
		<path class="st8" d="M13,29.7L13,29.7c0-0.2,0.1-0.3,0.3-0.3c0.2,0,0.4,0.2,0.4,0.4c0,0.2-0.2,0.4-0.4,0.4c-0.2,0-0.3-0.1-0.3-0.3
			l0.1-0.1c0,0.1,0.1,0.2,0.2,0.2c0.1,0,0.3-0.1,0.3-0.3c0-0.1-0.1-0.3-0.3-0.3C13.1,29.6,13,29.6,13,29.7z"/>
	</g>
	<g>
		<path class="st6" d="M14.3,31.1L14.2,31c0.1-0.1,0.3-0.1,0.4,0c0.2,0.1,0.3,0.3,0.1,0.5c-0.1,0.2-0.3,0.3-0.5,0.1
			c-0.1-0.1-0.2-0.2-0.2-0.4l0.1,0c0,0.1,0,0.2,0.1,0.3c0.1,0.1,0.3,0,0.4-0.1c0.1-0.1,0-0.3-0.1-0.4C14.5,31,14.4,31,14.3,31.1z"/>
	</g>
	<g>
		<path class="st1" d="M15,33.4l0.4-0.1c0.2,0.6,0.1,1.2-0.3,1.7c-0.6,0.6-1.6,0.6-2.2,0c-0.6-0.6-0.6-1.6,0-2.2
			c0.5-0.5,1.1-0.6,1.7-0.3l-0.1,0.4c-0.4-0.2-0.9-0.1-1.2,0.2c-0.4,0.4-0.4,1.1,0,1.5c0.4,0.4,1.1,0.4,1.5,0
			C15.1,34.3,15.2,33.8,15,33.4z"/>
	</g>
	<g>
		<path class="st13" d="M10.4,32.4l-0.1-0.1c0.1-0.2,0.3-0.3,0.5-0.3c0.3,0,0.5,0.2,0.5,0.5c0,0.3-0.2,0.5-0.5,0.5
			c-0.2,0-0.4-0.1-0.4-0.3l0.1-0.1c0,0.1,0.2,0.2,0.3,0.2c0.2,0,0.3-0.1,0.4-0.3c0-0.2-0.1-0.3-0.3-0.4
			C10.6,32.2,10.5,32.2,10.4,32.4z"/>
	</g>
	<g>
		<path class="st9" d="M7.4,34.3l-0.2-0.1c0.1-0.3,0.5-0.5,0.8-0.5c0.5,0,0.8,0.4,0.8,0.9c0,0.5-0.4,0.8-0.9,0.8
			c-0.4,0-0.7-0.2-0.8-0.6l0.2-0.1c0.1,0.2,0.3,0.4,0.5,0.4c0.3,0,0.6-0.2,0.6-0.6c0-0.3-0.2-0.6-0.6-0.6
			C7.7,33.9,7.5,34.1,7.4,34.3z"/>
	</g>
	<g>
		<path class="st10" d="M11,37.8l0,0.6c-0.7,0.1-1.5-0.3-1.9-1c-0.5-0.9-0.1-2.1,0.8-2.6c0.9-0.5,2.1-0.1,2.6,0.8
			c0.4,0.7,0.3,1.5-0.2,2.1l-0.5-0.3c0.4-0.4,0.5-1,0.2-1.5c-0.3-0.7-1.2-0.9-1.8-0.6c-0.7,0.3-0.9,1.2-0.6,1.8
			C9.9,37.6,10.4,37.9,11,37.8z"/>
	</g>
	<g>
		<path class="st10" d="M12.6,40.1l0,0.3c-0.4,0-0.8-0.2-1-0.5c-0.3-0.5-0.1-1.1,0.4-1.4c0.5-0.3,1.1-0.1,1.4,0.4
			c0.2,0.4,0.1,0.8-0.1,1.1L13,39.8c0.2-0.2,0.3-0.5,0.1-0.8c-0.2-0.3-0.6-0.5-0.9-0.3c-0.3,0.2-0.5,0.6-0.3,0.9
			C12,40,12.3,40.1,12.6,40.1z"/>
	</g>
	<g>
		<path class="st1" d="M12.4,41.1l-0.1-0.1c0.1-0.1,0.2-0.2,0.4-0.2c0.2,0,0.4,0.2,0.4,0.4c0,0.2-0.2,0.4-0.4,0.4
			c-0.2,0-0.3-0.1-0.4-0.3l0.1-0.1c0,0.1,0.1,0.2,0.3,0.2c0.2,0,0.3-0.1,0.3-0.3c0-0.2-0.1-0.3-0.3-0.3C12.6,40.9,12.5,41,12.4,41.1
			z"/>
	</g>
	<g>
		<path class="st13" d="M18.8,37.1l0.1,0.3c-0.4,0.1-0.8,0.1-1.1-0.3c-0.4-0.4-0.4-1.1,0-1.5c0.4-0.4,1.1-0.4,1.5,0
			c0.3,0.3,0.4,0.8,0.2,1.1l-0.3-0.1c0.1-0.3,0.1-0.6-0.1-0.8c-0.3-0.3-0.7-0.3-1,0c-0.3,0.3-0.3,0.7,0,1
			C18.2,37.2,18.6,37.3,18.8,37.1z"/>
	</g>
	<g>
		<path class="st9" d="M16.1,34.6l-0.2-0.1c0.1-0.3,0.5-0.5,0.8-0.5c0.5,0,0.8,0.4,0.8,0.9c0,0.5-0.4,0.8-0.9,0.8
			c-0.4,0-0.6-0.2-0.8-0.6l0.2-0.1c0.1,0.2,0.3,0.4,0.5,0.4c0.3,0,0.6-0.2,0.6-0.6c0-0.3-0.2-0.6-0.6-0.6
			C16.4,34.2,16.2,34.3,16.1,34.6z"/>
	</g>
	<g>
		<path class="st3" d="M14,38.1l-0.4,0.2c-0.4-0.4-0.4-1-0.2-1.5c0.3-0.7,1.2-1,1.9-0.6c0.7,0.3,1,1.2,0.6,1.9
			c-0.3,0.5-0.8,0.8-1.3,0.8l0-0.4c0.4,0.1,0.8-0.1,1-0.5c0.2-0.5,0.1-1.1-0.4-1.3c-0.5-0.2-1.1-0.1-1.3,0.4
			C13.7,37.4,13.8,37.8,14,38.1z"/>
	</g>
	<g>
		<path class="st13" d="M16.7,38.5l-0.2-0.1c0.2-0.3,0.5-0.4,0.8-0.4c0.4,0.1,0.7,0.5,0.6,0.9c-0.1,0.4-0.4,0.7-0.9,0.6
			c-0.3,0-0.6-0.3-0.6-0.6l0.2-0.1c0,0.2,0.2,0.4,0.4,0.4c0.3,0,0.6-0.2,0.6-0.5c0-0.3-0.2-0.6-0.5-0.6
			C17.1,38.2,16.8,38.3,16.7,38.5z"/>
	</g>
	<g>
		<path class="st9" d="M19.8,38.2l-0.3-0.7c0.8-0.5,1.9-0.6,2.7,0c1.1,0.7,1.5,2.3,0.7,3.4c-0.7,1.1-2.3,1.5-3.4,0.7
			c-0.9-0.6-1.3-1.6-1.1-2.5l0.7,0c-0.2,0.7,0.1,1.5,0.8,1.9c0.8,0.5,1.9,0.3,2.4-0.5c0.5-0.8,0.3-1.9-0.5-2.4
			C21.2,37.7,20.4,37.8,19.8,38.2z"/>
	</g>
	<g>
		<path class="st10" d="M16.7,43.2l-0.3-0.1c0.1-0.4,0.4-0.6,0.7-0.7c0.5-0.1,1,0.3,1.1,0.8c0.1,0.5-0.3,1-0.8,1.1
			c-0.4,0.1-0.7-0.1-0.9-0.4l0.2-0.2c0.1,0.2,0.4,0.4,0.7,0.3c0.4-0.1,0.6-0.4,0.5-0.7c-0.1-0.4-0.4-0.6-0.7-0.5
			C16.9,42.7,16.7,42.9,16.7,43.2z"/>
	</g>
	<g>
		<path class="st13" d="M15.7,42.1l0.1,0.4c-0.5,0.2-1.1,0.1-1.4-0.3c-0.5-0.5-0.5-1.4,0.1-1.9c0.5-0.5,1.4-0.5,1.9,0
			c0.4,0.4,0.5,1,0.3,1.5l-0.4-0.1c0.2-0.3,0.1-0.8-0.2-1.1c-0.4-0.4-0.9-0.4-1.3,0c-0.4,0.4-0.4,0.9,0,1.3
			C15,42.2,15.4,42.2,15.7,42.1z"/>
	</g>
	<g>
		<path class="st6" d="M17.6,41.1L17.6,41c0.1-0.1,0.3-0.1,0.4,0c0.2,0.1,0.3,0.3,0.1,0.5c-0.1,0.2-0.3,0.3-0.5,0.1
			c-0.1-0.1-0.2-0.2-0.2-0.4l0.1,0c0,0.1,0,0.2,0.1,0.3c0.1,0.1,0.3,0,0.4-0.1c0.1-0.1,0-0.3-0.1-0.4C17.9,41,17.7,41,17.6,41.1z"/>
	</g>
	<g>
		<path class="st6" d="M18.8,43.9l-0.2-0.1c0.1-0.2,0.4-0.4,0.6-0.4c0.4,0,0.7,0.3,0.6,0.7c0,0.4-0.3,0.7-0.7,0.6
			c-0.3,0-0.5-0.2-0.6-0.5l0.2-0.1c0.1,0.2,0.2,0.3,0.4,0.3c0.3,0,0.5-0.2,0.5-0.4c0-0.3-0.2-0.5-0.4-0.5
			C19.1,43.6,18.9,43.7,18.8,43.9z"/>
	</g>
	<g>
		<path class="st10" d="M18.8,42.4l-0.1,0c0-0.2,0.2-0.3,0.3-0.3c0.2,0,0.4,0.1,0.5,0.3c0,0.2-0.1,0.4-0.3,0.5
			c-0.2,0-0.3-0.1-0.4-0.2l0.1-0.1c0.1,0.1,0.2,0.2,0.3,0.1c0.2,0,0.3-0.2,0.2-0.3c0-0.2-0.2-0.3-0.3-0.2
			C18.9,42.2,18.8,42.3,18.8,42.4z"/>
	</g>
	<g>
		<path class="st13" d="M20.7,44.4L20.7,44.4c0-0.2,0.1-0.3,0.3-0.2c0.2,0,0.3,0.2,0.3,0.4c0,0.2-0.2,0.3-0.4,0.3
			c-0.2,0-0.3-0.1-0.3-0.3l0.1,0c0,0.1,0.1,0.2,0.2,0.2c0.1,0,0.3-0.1,0.3-0.2c0-0.1-0.1-0.3-0.2-0.3C20.9,44.3,20.8,44.3,20.7,44.4
			z"/>
	</g>
	<g>
		<path class="st4" d="M20.5,43L20.4,43c0.1-0.2,0.3-0.2,0.5-0.2c0.2,0,0.4,0.3,0.4,0.5c0,0.2-0.3,0.4-0.5,0.4
			c-0.2,0-0.3-0.2-0.4-0.3l0.1-0.1c0,0.1,0.1,0.2,0.3,0.3c0.2,0,0.3-0.1,0.4-0.3c0-0.2-0.1-0.3-0.3-0.4C20.7,42.9,20.5,42.9,20.5,43
			z"/>
	</g>
	<g>
		<path class="st4" d="M23.7,41.2L23.6,41c0.2-0.1,0.4-0.1,0.6,0c0.2,0.2,0.3,0.5,0.1,0.7c-0.2,0.2-0.5,0.3-0.7,0.1
			c-0.2-0.1-0.2-0.3-0.2-0.5l0.2,0c0,0.1,0,0.3,0.1,0.4c0.2,0.1,0.4,0.1,0.5-0.1c0.1-0.2,0.1-0.4-0.1-0.5
			C24,41.1,23.8,41.1,23.7,41.2z"/>
	</g>
	<g>
		<path class="st4" d="M23.7,42.7L23.7,42.7c0-0.2,0.1-0.3,0.2-0.3c0.2,0,0.3,0.1,0.3,0.3c0,0.2-0.1,0.3-0.3,0.3
			c-0.1,0-0.3-0.1-0.3-0.2l0.1-0.1c0,0.1,0.1,0.2,0.2,0.1c0.1,0,0.2-0.1,0.2-0.2c0-0.1-0.1-0.2-0.2-0.2
			C23.8,42.5,23.7,42.6,23.7,42.7z"/>
	</g>
	<g>
		<path class="st6" d="M15.1,10.6l-0.2-0.4c0.7-0.5,1.6-0.5,2.4,0c1,0.7,1.2,2,0.6,3c-0.7,1-2,1.2-3,0.6c-0.7-0.5-1.1-1.4-0.9-2.2
			l0.4,0c-0.2,0.7,0.1,1.4,0.7,1.8c0.8,0.5,1.9,0.3,2.4-0.5c0.5-0.8,0.3-1.9-0.5-2.4C16.5,10.1,15.7,10.2,15.1,10.6z"/>
		<path class="st6" d="M16.1,14.3c-0.5,0-0.9-0.1-1.3-0.4c-0.8-0.5-1.2-1.5-1-2.4l0-0.1l0.7,0.1l0,0.2c-0.1,0.6,0.1,1.3,0.7,1.7
			c0.3,0.2,0.6,0.3,0.9,0.3c0.5,0,1-0.3,1.3-0.7c0.5-0.7,0.3-1.7-0.4-2.2c-0.5-0.4-1.3-0.4-1.8,0l-0.2,0.1l-0.3-0.6l0.1-0.1
			c0.8-0.5,1.8-0.5,2.5,0c1.1,0.7,1.3,2.1,0.6,3.2C17.6,13.9,16.9,14.3,16.1,14.3z M14.2,11.7c-0.1,0.7,0.2,1.5,0.9,1.9
			c0.3,0.2,0.7,0.3,1.1,0.3c0.7,0,1.3-0.3,1.6-0.9c0.6-0.9,0.4-2.1-0.5-2.8c-0.6-0.4-1.4-0.4-2.1-0.1l0,0.1c0.6-0.3,1.4-0.3,2,0.1
			c0.9,0.6,1.1,1.8,0.5,2.6c-0.4,0.5-0.9,0.8-1.6,0.8l0,0c-0.4,0-0.7-0.1-1.1-0.3C14.5,13.2,14.1,12.5,14.2,11.7L14.2,11.7z"/>
	</g>
	<g>
		<path class="st1" d="M15,7.8l-0.1-0.1c0.2-0.3,0.6-0.4,0.9-0.3c0.5,0.1,0.7,0.6,0.6,1.1c-0.1,0.5-0.6,0.7-1.1,0.6
			c-0.3-0.1-0.6-0.4-0.6-0.7l0.2,0c0,0.3,0.2,0.5,0.5,0.6c0.4,0.1,0.7-0.1,0.8-0.5c0.1-0.4-0.1-0.7-0.5-0.8
			C15.5,7.5,15.2,7.6,15,7.8z"/>
	</g>
	<g>
		<path class="st9" d="M17.3,6.9l-0.2-0.2c0.3-0.3,0.7-0.4,1.1-0.3c0.5,0.2,0.8,0.7,0.7,1.3c-0.2,0.5-0.7,0.8-1.3,0.7
			c-0.4-0.1-0.7-0.5-0.7-0.9l0.2-0.1c0,0.3,0.2,0.6,0.6,0.7c0.4,0.1,0.9-0.1,1-0.5c0.1-0.4-0.1-0.9-0.5-1
			C17.8,6.5,17.5,6.7,17.3,6.9z"/>
	</g>
	<g>
		<path class="st9" d="M20,8.4l-0.2-0.1c0.1-0.3,0.3-0.4,0.6-0.4c0.4,0,0.7,0.3,0.7,0.7c0,0.4-0.3,0.7-0.7,0.7
			c-0.3,0-0.5-0.1-0.7-0.4L20,8.7C20,8.9,20.2,9.1,20.4,9c0.3,0,0.5-0.2,0.5-0.5c0-0.3-0.2-0.5-0.5-0.5C20.2,8.1,20,8.2,20,8.4z"/>
	</g>
	<g>
		<path class="st8" d="M18.5,9.2l-0.1-0.1c0.1-0.2,0.2-0.3,0.4-0.3c0.3,0,0.5,0.2,0.5,0.5c0,0.3-0.2,0.5-0.5,0.5
			c-0.2,0-0.4-0.1-0.5-0.3l0.1-0.1c0.1,0.1,0.2,0.2,0.3,0.2c0.2,0,0.3-0.2,0.3-0.4c0-0.2-0.2-0.3-0.4-0.3C18.7,8.9,18.6,9,18.5,9.2z
			"/>
	</g>
	<g>
		<path class="st8" d="M19.8,6.4l-0.1-0.1c0.2-0.2,0.5-0.3,0.7-0.2C20.8,6.2,21,6.6,20.9,7c-0.1,0.4-0.5,0.6-0.9,0.5
			c-0.3-0.1-0.5-0.3-0.5-0.6l0.1,0c0,0.2,0.2,0.4,0.4,0.5c0.3,0.1,0.6-0.1,0.7-0.4c0.1-0.3-0.1-0.6-0.4-0.7
			C20.2,6.2,20,6.3,19.8,6.4z"/>
	</g>
	<g>
		<path class="st1" d="M24.2,6.6l0.3,0c0,0.5-0.3,1.1-0.8,1.3c-0.7,0.3-1.5,0-1.8-0.7c-0.3-0.7,0-1.5,0.7-1.8
			c0.5-0.2,1.1-0.1,1.5,0.3l-0.2,0.3c-0.3-0.3-0.8-0.4-1.2-0.2c-0.5,0.2-0.8,0.9-0.6,1.4c0.2,0.5,0.9,0.8,1.4,0.6
			C24,7.5,24.2,7,24.2,6.6z"/>
	</g>
	<g>
		<path class="st6" d="M25.2,6.2L25.2,6.2C25.3,6,25.4,6,25.6,6.1c0.2,0.1,0.2,0.3,0.1,0.5c-0.1,0.2-0.3,0.2-0.5,0.1
			C25.1,6.6,25,6.4,25,6.3l0.1,0c0,0.1,0,0.2,0.1,0.3c0.1,0.1,0.3,0.1,0.4-0.1c0.1-0.1,0.1-0.3-0.1-0.4C25.4,6.1,25.3,6.1,25.2,6.2z
			"/>
	</g>
	<g>
		<path class="st9" d="M28.4,8.4L28.3,9c-0.8,0-1.5-0.5-1.9-1.3c-0.4-1.1,0.1-2.2,1.2-2.7c1.1-0.4,2.2,0.1,2.7,1.2
			c0.3,0.8,0.1,1.7-0.5,2.2l-0.5-0.4c0.5-0.4,0.6-1,0.4-1.6c-0.3-0.7-1.1-1.1-1.9-0.8c-0.7,0.3-1.1,1.1-0.8,1.9
			C27.3,8.1,27.8,8.4,28.4,8.4z"/>
	</g>
	<g>
		<path class="st3" d="M21.6,9.8l-0.2-0.6C22.2,8.9,23,9,23.6,9.6c0.8,0.8,0.8,2,0.1,2.8c-0.8,0.8-2,0.8-2.8,0.1
			c-0.6-0.6-0.8-1.4-0.5-2.2l0.6,0.1c-0.2,0.5-0.1,1.2,0.3,1.6c0.6,0.5,1.4,0.5,2,0c0.5-0.6,0.5-1.5,0-2C22.8,9.6,22.1,9.5,21.6,9.8
			z"/>
	</g>
	<g>
		<path class="st9" d="M19.2,12.9l-0.1-0.1c0.1-0.2,0.4-0.4,0.7-0.3c0.4,0.1,0.6,0.4,0.6,0.8c-0.1,0.4-0.4,0.6-0.8,0.6
			c-0.3,0-0.5-0.3-0.6-0.5l0.1,0c0.1,0.2,0.2,0.4,0.5,0.4c0.3,0,0.6-0.2,0.6-0.5c0-0.3-0.2-0.6-0.5-0.6
			C19.5,12.6,19.3,12.7,19.2,12.9z"/>
	</g>
	<g>
		<path class="st10" d="M19,10.7l-0.1-0.1c0.1-0.2,0.2-0.3,0.4-0.3c0.3,0,0.5,0.2,0.5,0.5c0,0.3-0.2,0.5-0.5,0.5
			c-0.2,0-0.4-0.1-0.5-0.3l0.1-0.1c0.1,0.1,0.2,0.2,0.3,0.2c0.2,0,0.3-0.2,0.3-0.4c0-0.2-0.2-0.3-0.4-0.3
			C19.2,10.5,19.1,10.6,19,10.7z"/>
	</g>
	<g>
		<path class="st8" d="M17.2,15.1L17.1,15c0.1-0.2,0.2-0.3,0.4-0.3c0.3,0,0.5,0.2,0.5,0.5c0,0.3-0.2,0.5-0.5,0.5
			c-0.2,0-0.4-0.1-0.5-0.3l0.1-0.1c0.1,0.1,0.2,0.2,0.3,0.2c0.2,0,0.3-0.2,0.3-0.4c0-0.2-0.2-0.3-0.4-0.3
			C17.4,14.9,17.2,15,17.2,15.1z"/>
	</g>
	<g>
		<path class="st10" d="M24.3,40.2l-0.2,0.1c-0.4-0.4-0.5-1-0.2-1.6c0.4-0.7,1.2-1,1.9-0.6c0.7,0.4,1,1.2,0.6,1.9
			c-0.3,0.5-0.8,0.8-1.4,0.8l0-0.3c0.5,0,0.9-0.2,1.2-0.6c0.3-0.6,0.1-1.3-0.5-1.6c-0.6-0.3-1.3-0.1-1.6,0.5
			C23.9,39.4,24,39.9,24.3,40.2z"/>
	</g>
	<g>
		<path class="st4" d="M28,39.5l0,0.2c-0.4,0.1-0.8-0.1-1-0.4c-0.3-0.4-0.2-1,0.3-1.3c0.4-0.3,1-0.2,1.3,0.3c0.2,0.3,0.2,0.7,0,1.1
			l-0.2-0.1c0.2-0.3,0.2-0.6,0-0.9c-0.2-0.4-0.7-0.5-1.1-0.2c-0.4,0.2-0.5,0.7-0.2,1.1C27.4,39.4,27.7,39.6,28,39.5z"/>
	</g>
	<g>
		<path class="st9" d="M30.5,38.6l0.1,0.3c-0.4,0.2-0.9,0.1-1.2-0.2c-0.4-0.4-0.4-1.1,0-1.6c0.4-0.4,1.1-0.4,1.6,0
			c0.3,0.3,0.4,0.8,0.3,1.2l-0.3-0.1c0.1-0.3,0.1-0.7-0.2-0.9c-0.3-0.3-0.8-0.3-1.1,0c-0.3,0.3-0.3,0.8,0,1.1
			C29.9,38.7,30.2,38.7,30.5,38.6z"/>
	</g>
	<g>
		<g>
			<path class="st8" d="M31.7,39.8l-0.3-0.7c0.8-0.5,1.9-0.6,2.7,0c1.1,0.8,1.4,2.3,0.7,3.4c-0.8,1.1-2.3,1.4-3.4,0.7
				c-0.9-0.6-1.2-1.6-1.1-2.5l0.7,0c-0.2,0.7,0.1,1.5,0.7,1.9c0.8,0.5,1.9,0.3,2.4-0.5c0.5-0.8,0.3-1.9-0.5-2.4
				C33.1,39.3,32.3,39.3,31.7,39.8z"/>
		</g>
		<g>
			<path class="st8" d="M32.7,43.7c-0.5,0-1-0.1-1.4-0.4c-0.9-0.6-1.3-1.6-1.1-2.7l0-0.1l1,0.1l0,0.1c-0.2,0.7,0.1,1.4,0.7,1.8
				c0.3,0.2,0.6,0.3,0.9,0.3c0.5,0,1.1-0.3,1.4-0.7c0.5-0.7,0.3-1.8-0.5-2.3c-0.6-0.4-1.3-0.3-1.9,0.1l-0.1,0.1l-0.4-0.9l0.1-0.1
				c0.8-0.6,2-0.6,2.9,0c0.6,0.4,1,1,1.1,1.6c0.1,0.7,0,1.4-0.4,1.9C34.4,43.3,33.6,43.7,32.7,43.7z M30.4,40.8
				c-0.1,0.9,0.3,1.8,1,2.3c0.4,0.3,0.8,0.4,1.3,0.4c0.8,0,1.5-0.4,2-1.1c0.3-0.5,0.5-1.2,0.3-1.8c-0.1-0.6-0.5-1.2-1-1.5
				c-0.8-0.5-1.8-0.5-2.5-0.1l0.2,0.5c0.6-0.4,1.4-0.4,2,0c0.8,0.6,1.1,1.7,0.5,2.6c-0.3,0.5-0.9,0.8-1.5,0.8l0,0
				c-0.4,0-0.7-0.1-1-0.3c-0.6-0.4-0.9-1.1-0.8-1.9L30.4,40.8z"/>
		</g>
	</g>
	<g>
		<path class="st8" d="M30.4,43.9l-0.1-0.1c0.1-0.1,0.4-0.2,0.6-0.1c0.3,0.1,0.4,0.4,0.3,0.7c-0.1,0.3-0.4,0.4-0.7,0.3
			c-0.2-0.1-0.3-0.3-0.3-0.5l0.2,0c0,0.2,0.1,0.3,0.2,0.4c0.2,0.1,0.4,0,0.5-0.2c0.1-0.2,0-0.4-0.2-0.5
			C30.7,43.8,30.5,43.8,30.4,43.9z"/>
	</g>
	<g>
		<path class="st1" d="M28.3,44.5l0,0.4c-0.6,0.1-1.1-0.2-1.5-0.7c-0.4-0.7-0.2-1.6,0.5-2c0.7-0.4,1.6-0.2,2,0.5
			c0.3,0.5,0.3,1.2-0.1,1.6l-0.4-0.2c0.3-0.3,0.3-0.8,0.1-1.2c-0.3-0.5-0.9-0.6-1.4-0.3c-0.5,0.3-0.6,0.9-0.4,1.4
			C27.5,44.4,27.9,44.6,28.3,44.5z"/>
	</g>
	<g>
		<path class="st8" d="M27.9,40.8l-0.1-0.1c0.1-0.1,0.4-0.2,0.6-0.1c0.3,0.1,0.4,0.4,0.3,0.7c-0.1,0.3-0.4,0.4-0.7,0.3
			c-0.2-0.1-0.3-0.3-0.3-0.5l0.2,0c0,0.2,0.1,0.3,0.2,0.4c0.2,0.1,0.4,0,0.5-0.2c0.1-0.2,0-0.4-0.2-0.5C28.1,40.7,28,40.7,27.9,40.8
			z"/>
	</g>
	<g>
		<path class="st6" d="M29.1,39.8l-0.1-0.1c0.1-0.2,0.3-0.3,0.5-0.3c0.3,0,0.5,0.3,0.5,0.6c0,0.3-0.3,0.5-0.6,0.5
			c-0.2,0-0.4-0.2-0.5-0.4l0.1-0.1c0,0.2,0.2,0.3,0.3,0.3c0.2,0,0.4-0.1,0.4-0.4c0-0.2-0.1-0.4-0.4-0.4
			C29.3,39.6,29.1,39.7,29.1,39.8z"/>
	</g>
	<g>
		<path class="st4" d="M26.8,40.3L26.8,40.3c0-0.2,0.2-0.3,0.3-0.3c0.2,0,0.4,0.2,0.4,0.4c0,0.2-0.2,0.4-0.4,0.4
			c-0.2,0-0.3-0.1-0.3-0.3l0.1,0c0,0.1,0.1,0.2,0.3,0.2c0.2,0,0.3-0.1,0.3-0.3c0-0.2-0.1-0.3-0.3-0.3C27,40.1,26.8,40.2,26.8,40.3z"
			/>
	</g>
	<g>
		<path class="st8" d="M25.1,41.9L25,41.8c0.1-0.3,0.4-0.5,0.8-0.4c0.4,0,0.8,0.4,0.7,0.9c0,0.4-0.4,0.8-0.8,0.7
			c-0.3,0-0.6-0.3-0.7-0.5l0.1-0.1c0.1,0.2,0.3,0.4,0.6,0.5c0.4,0,0.7-0.2,0.7-0.6c0-0.4-0.2-0.7-0.6-0.7
			C25.5,41.5,25.2,41.6,25.1,41.9z"/>
	</g>
	<g>
		<path class="st4" d="M25.2,44.9l0,0.2c-0.4,0-0.7-0.2-0.9-0.6c-0.2-0.5,0-1,0.5-1.2c0.5-0.2,1,0,1.2,0.5c0.2,0.4,0.1,0.8-0.2,1
			l-0.1-0.1c0.2-0.2,0.3-0.5,0.2-0.8c-0.2-0.4-0.6-0.6-1-0.4c-0.4,0.2-0.6,0.6-0.4,1C24.6,44.8,24.9,44.9,25.2,44.9z"/>
	</g>
	<g>
		<path class="st1" d="M22.8,42.2L22.8,42.2c0-0.2,0.1-0.3,0.2-0.2c0.2,0,0.3,0.2,0.3,0.4c0,0.2-0.2,0.3-0.4,0.3
			c-0.1,0-0.3-0.1-0.3-0.2l0.1,0c0,0.1,0.1,0.2,0.2,0.2c0.1,0,0.2-0.1,0.2-0.2c0-0.1-0.1-0.2-0.2-0.2C22.9,42.1,22.8,42.1,22.8,42.2
			z"/>
	</g>
	<g>
		<path class="st10" d="M32.2,37.4L32,37.3c0.1-0.2,0.3-0.3,0.6-0.3c0.3,0,0.5,0.3,0.5,0.6c0,0.3-0.3,0.5-0.6,0.5
			c-0.2,0-0.4-0.2-0.5-0.4l0.2-0.1c0,0.2,0.2,0.3,0.3,0.3c0.2,0,0.4-0.1,0.4-0.3c0-0.2-0.1-0.4-0.3-0.4
			C32.4,37.1,32.2,37.2,32.2,37.4z"/>
	</g>
	<g>
		<path class="st10" d="M32.2,36L32.2,36c0-0.1,0.1-0.2,0.2-0.2c0.1,0,0.2,0.1,0.2,0.3c0,0.1-0.1,0.2-0.3,0.2
			c-0.1,0-0.2-0.1-0.2-0.2l0.1,0c0,0.1,0.1,0.1,0.2,0.1c0.1,0,0.2-0.1,0.2-0.2c0-0.1-0.1-0.2-0.2-0.2C32.3,35.9,32.2,35.9,32.2,36z"
			/>
	</g>
	<g>
		<path class="st1" d="M31.4,36.4L31.4,36.4c0.1-0.1,0.2-0.1,0.2-0.1c0.1,0.1,0.1,0.2,0,0.4c-0.1,0.1-0.2,0.1-0.4,0
			c-0.1-0.1-0.1-0.2-0.1-0.3L31.4,36.4c-0.1,0.2-0.1,0.2,0,0.3c0.1,0.1,0.2,0,0.2,0c0.1-0.1,0-0.2,0-0.2
			C31.5,36.4,31.4,36.4,31.4,36.4z"/>
	</g>
	<g>
		<path class="st6" d="M35.5,37.5l0.1,0.4c-0.6,0.1-1.2,0-1.5-0.5c-0.5-0.6-0.4-1.6,0.3-2.1c0.6-0.5,1.6-0.4,2.1,0.3
			c0.4,0.5,0.4,1.1,0.1,1.6l-0.4-0.2c0.2-0.4,0.2-0.8-0.1-1.2c-0.3-0.4-1-0.5-1.4-0.2c-0.4,0.3-0.5,1-0.2,1.4
			C34.7,37.5,35.1,37.7,35.5,37.5z"/>
		<path class="st6" d="M35.2,38.1c-0.5,0-0.9-0.2-1.2-0.6c-0.5-0.7-0.4-1.7,0.3-2.2c0.3-0.2,0.6-0.3,1-0.3c0.5,0,0.9,0.2,1.2,0.6
			c0.4,0.5,0.4,1.2,0.1,1.7l0,0.1l-0.6-0.3L36,37c0.2-0.3,0.2-0.8,0-1.1c-0.2-0.2-0.4-0.4-0.7-0.4c-0.2,0-0.4,0.1-0.6,0.2
			c-0.4,0.3-0.5,0.9-0.2,1.3c0.2,0.2,0.4,0.4,0.7,0.4l0,0c0.1,0,0.2,0,0.3,0l0.1,0l0.1,0.7l-0.1,0C35.5,38.1,35.4,38.1,35.2,38.1z
			 M35.2,35.2c-0.3,0-0.6,0.1-0.8,0.3c-0.6,0.5-0.7,1.3-0.2,1.9c0.3,0.4,0.8,0.6,1.3,0.5l0-0.2c-0.1,0-0.2,0-0.2,0l0,0
			c-0.4,0-0.7-0.2-0.9-0.4c-0.4-0.5-0.3-1.2,0.2-1.6c0.2-0.2,0.4-0.2,0.7-0.2c0.4,0,0.7,0.2,0.9,0.4c0.3,0.3,0.3,0.8,0.1,1.2
			l0.2,0.1c0.2-0.5,0.2-1-0.2-1.4C36,35.4,35.6,35.2,35.2,35.2z"/>
	</g>
	<g>
		<path class="st1" d="M38.2,38.1l0,0.3c-0.4,0.1-0.8-0.1-1-0.4c-0.3-0.5-0.2-1.1,0.3-1.4c0.5-0.3,1.1-0.2,1.4,0.3
			c0.2,0.3,0.2,0.8,0,1.1l-0.3-0.1c0.2-0.2,0.2-0.5,0-0.8c-0.2-0.3-0.6-0.4-1-0.2c-0.3,0.2-0.4,0.6-0.2,1
			C37.6,38.1,37.9,38.2,38.2,38.1z"/>
	</g>
	<g>
		<path class="st8" d="M35.7,38.8l-0.2-0.1c0.1-0.3,0.3-0.4,0.6-0.5c0.4,0,0.7,0.3,0.7,0.6c0,0.4-0.3,0.7-0.7,0.7
			c-0.3,0-0.5-0.1-0.7-0.4l0.2-0.1c0.1,0.2,0.3,0.3,0.5,0.3c0.3,0,0.5-0.2,0.5-0.5c0-0.3-0.2-0.5-0.5-0.5
			C36,38.5,35.8,38.7,35.7,38.8z"/>
	</g>
	<g>
		<path class="st6" d="M36,40.3L36,40.3c0-0.2,0.1-0.2,0.2-0.2c0.2,0,0.3,0.2,0.3,0.3c0,0.2-0.2,0.3-0.3,0.3c-0.1,0-0.2-0.1-0.3-0.2
			l0.1,0c0,0.1,0.1,0.2,0.2,0.2c0.1,0,0.2-0.1,0.2-0.2c0-0.1-0.1-0.2-0.2-0.2C36.1,40.1,36,40.2,36,40.3z"/>
	</g>
	<g>
		<path class="st4" d="M36,41.5L36,41.5c0.1-0.3,0.3-0.4,0.6-0.3c0.3,0.1,0.6,0.4,0.5,0.8c-0.1,0.3-0.4,0.6-0.8,0.5
			c-0.3-0.1-0.5-0.3-0.5-0.5l0.1,0c0,0.2,0.2,0.4,0.4,0.4c0.3,0.1,0.6-0.1,0.6-0.4c0.1-0.3-0.1-0.6-0.4-0.6
			C36.3,41.2,36.1,41.3,36,41.5z"/>
	</g>
	<g>
		<path class="st4" d="M39.3,35.8L39.3,35.8c0.1-0.3,0.3-0.4,0.6-0.3c0.3,0.1,0.6,0.4,0.5,0.8c-0.1,0.3-0.4,0.6-0.8,0.5
			c-0.3-0.1-0.5-0.3-0.5-0.5l0.1,0c0,0.2,0.2,0.4,0.4,0.4c0.3,0.1,0.6-0.1,0.6-0.4c0.1-0.3-0.1-0.6-0.4-0.6
			C39.7,35.5,39.4,35.6,39.3,35.8z"/>
	</g>
	<g>
		<path class="st6" d="M40.5,38.3l-0.1-0.1c0.1-0.2,0.3-0.3,0.5-0.3c0.3,0,0.5,0.3,0.5,0.6c0,0.3-0.3,0.5-0.6,0.5
			c-0.2,0-0.4-0.2-0.5-0.4l0.1-0.1c0,0.1,0.2,0.3,0.3,0.3c0.2,0,0.4-0.1,0.4-0.4c0-0.2-0.1-0.4-0.4-0.4
			C40.7,38.1,40.5,38.2,40.5,38.3z"/>
	</g>
	<g>
		<path class="st8" d="M35.7,33.7l-0.2-0.1c0.1-0.3,0.3-0.4,0.6-0.5c0.4,0,0.7,0.3,0.7,0.6c0,0.4-0.3,0.7-0.7,0.7
			c-0.3,0-0.5-0.1-0.7-0.4l0.2-0.1c0.1,0.2,0.3,0.3,0.5,0.3c0.3,0,0.5-0.2,0.5-0.5c0-0.3-0.2-0.5-0.5-0.5
			C36,33.3,35.8,33.5,35.7,33.7z"/>
	</g>
	<g>
		<path class="st8" d="M34.3,34L34.3,34c0-0.2,0.1-0.3,0.2-0.3c0.2,0,0.3,0.1,0.4,0.3c0,0.2-0.1,0.3-0.3,0.4c-0.1,0-0.3-0.1-0.3-0.2
			l0.1-0.1c0,0.1,0.1,0.1,0.2,0.1c0.1,0,0.2-0.1,0.2-0.2c0-0.1-0.1-0.2-0.2-0.2C34.4,33.8,34.4,33.9,34.3,34z"/>
	</g>
	<g>
		<path class="st10" d="M37.8,31.9l0,0.2c-0.3,0-0.6-0.1-0.7-0.4c-0.2-0.4-0.1-0.8,0.3-1c0.4-0.2,0.8-0.1,1,0.3
			c0.1,0.3,0.1,0.6-0.1,0.8l-0.2-0.1c0.1-0.2,0.2-0.4,0.1-0.6c-0.1-0.3-0.5-0.4-0.7-0.2c-0.3,0.1-0.4,0.5-0.2,0.7
			C37.4,31.8,37.6,31.9,37.8,31.9z"/>
	</g>
	<g>
		<path class="st9" d="M38.5,35.2l0.1,0.3c-0.4,0.2-0.9,0.1-1.2-0.2c-0.4-0.4-0.4-1.1,0-1.6c0.4-0.4,1.1-0.4,1.6,0
			c0.3,0.3,0.4,0.8,0.3,1.2l-0.3-0.1c0.1-0.3,0.1-0.7-0.2-0.9c-0.3-0.3-0.8-0.3-1.1,0c-0.3,0.3-0.3,0.8,0,1.1
			C37.9,35.3,38.3,35.4,38.5,35.2z"/>
	</g>
	<g>
		<path class="st9" d="M38.5,40.7l0.1,0.3c-0.4,0.2-0.9,0.1-1.2-0.2c-0.4-0.4-0.4-1.1,0-1.6c0.4-0.4,1.1-0.4,1.6,0
			c0.3,0.3,0.4,0.8,0.3,1.2l-0.3-0.1c0.1-0.3,0.1-0.7-0.2-0.9c-0.3-0.3-0.8-0.3-1.1,0c-0.3,0.3-0.3,0.8,0,1.1
			C37.9,40.8,38.3,40.9,38.5,40.7z"/>
	</g>
	<g>
		<path class="st8" d="M24.3,8.8L24,8.6c0.1-0.4,0.5-0.7,1-0.7c0.6,0,1.1,0.4,1.2,1c0,0.6-0.4,1.1-1,1.2c-0.5,0-0.9-0.2-1.1-0.6
			l0.3-0.2c0.1,0.3,0.4,0.5,0.8,0.5c0.4,0,0.7-0.4,0.7-0.8c0-0.4-0.4-0.7-0.8-0.7C24.7,8.2,24.4,8.5,24.3,8.8z"/>
	</g>
	<g>
		<path class="st6" d="M26.7,9.3L26.7,9.3c0.1-0.2,0.3-0.2,0.5-0.1c0.2,0.2,0.3,0.5,0.1,0.7c-0.2,0.2-0.5,0.3-0.7,0.1
			c-0.2-0.1-0.3-0.3-0.2-0.5l0.1,0c0,0.2,0,0.3,0.2,0.4c0.2,0.1,0.4,0.1,0.6-0.1c0.1-0.2,0.1-0.4-0.1-0.6C27,9.2,26.8,9.2,26.7,9.3z
			"/>
	</g>
	<g>
		<path class="st8" d="M30.3,9.2L30,9c0.1-0.4,0.5-0.7,1-0.7c0.6,0,1.1,0.4,1.2,1c0,0.6-0.4,1.1-1,1.2c-0.5,0-0.9-0.2-1.1-0.6
			l0.3-0.2c0.1,0.3,0.4,0.5,0.8,0.5c0.4,0,0.7-0.4,0.7-0.8c0-0.4-0.4-0.7-0.8-0.7C30.7,8.7,30.4,8.9,30.3,9.2z"/>
	</g>
	<g>
		<path class="st1" d="M28.9,12.6l0,0.4c-0.6,0.1-1.1-0.2-1.5-0.7c-0.4-0.7-0.2-1.6,0.5-2c0.7-0.4,1.6-0.2,2,0.5
			c0.3,0.5,0.3,1.2-0.1,1.6l-0.4-0.2c0.3-0.3,0.3-0.8,0.1-1.2c-0.3-0.5-0.9-0.6-1.4-0.3c-0.5,0.3-0.6,0.9-0.3,1.4
			C28,12.5,28.5,12.6,28.9,12.6z"/>
		<path class="st1" d="M28.7,13.1c-0.5,0-1.1-0.3-1.3-0.8c-0.4-0.7-0.2-1.7,0.5-2.2c0.2-0.1,0.5-0.2,0.8-0.2c0.5,0,1.1,0.3,1.3,0.8
			c0.3,0.5,0.3,1.2-0.1,1.7l-0.1,0.1l-0.6-0.3l0.1-0.1c0.2-0.3,0.3-0.7,0.1-1.1c-0.2-0.3-0.5-0.4-0.8-0.4c-0.2,0-0.3,0-0.5,0.1
			c-0.4,0.3-0.6,0.8-0.3,1.3c0.2,0.3,0.5,0.4,0.8,0.4l0,0c0.1,0,0.1,0,0.2,0l0.1,0l0,0.7l-0.1,0C28.8,13.1,28.8,13.1,28.7,13.1z
			 M28.7,10.2c-0.2,0-0.5,0.1-0.7,0.2c-0.6,0.4-0.8,1.2-0.5,1.8c0.3,0.4,0.7,0.7,1.3,0.7l0-0.2c0,0-0.1,0-0.1,0l0,0
			c-0.4,0-0.8-0.2-1-0.6c-0.3-0.5-0.1-1.2,0.4-1.6c0.2-0.1,0.4-0.2,0.6-0.2c0.4,0,0.8,0.2,1,0.6c0.2,0.4,0.2,0.8,0,1.2l0.2,0.1
			c0.3-0.4,0.3-1,0-1.4C29.6,10.4,29.2,10.2,28.7,10.2z"/>
	</g>
	<g>
		<path class="st4" d="M31.5,13.6l0,0.2c-0.4,0.1-0.8-0.1-1-0.4c-0.3-0.4-0.2-1,0.3-1.3c0.4-0.3,1-0.2,1.3,0.3
			c0.2,0.3,0.2,0.7,0,1.1L32,13.3c0.2-0.3,0.2-0.6,0-0.9c-0.2-0.4-0.7-0.5-1.1-0.2c-0.4,0.2-0.5,0.7-0.2,1.1
			C30.9,13.5,31.2,13.7,31.5,13.6z"/>
	</g>
	<g>
		<path class="st4" d="M39.2,7.9l0,0.2c-0.4,0-0.7-0.3-0.8-0.7c-0.1-0.5,0.1-1,0.6-1.2c0.5-0.1,1,0.1,1.2,0.6c0.1,0.4,0,0.8-0.3,1
			l-0.1-0.1c0.3-0.2,0.4-0.5,0.3-0.8c-0.1-0.4-0.6-0.7-1-0.5c-0.4,0.1-0.7,0.6-0.5,1C38.7,7.7,38.9,7.9,39.2,7.9z"/>
		<path class="st4" d="M39.3,8.2L39.3,8.2c-0.5-0.1-0.9-0.4-1-0.8c-0.2-0.6,0.2-1.2,0.7-1.3c0.1,0,0.2,0,0.3,0c0.5,0,0.9,0.3,1,0.8
			c0.1,0.4,0,0.9-0.4,1.1L39.9,8l-0.3-0.3l0.1-0.1C39.9,7.5,40,7.2,40,6.9c-0.1-0.3-0.5-0.6-0.8-0.5c-0.2,0.1-0.3,0.2-0.4,0.3
			c-0.1,0.2-0.1,0.3-0.1,0.5c0.1,0.3,0.3,0.5,0.6,0.5l0.1,0L39.3,8.2z"/>
	</g>
	<g>
		<path class="st1" d="M32.4,10.7l-0.1-0.1c0.2-0.3,0.6-0.4,0.9-0.3c0.5,0.1,0.7,0.6,0.6,1.1c-0.1,0.5-0.6,0.7-1.1,0.6
			c-0.3-0.1-0.6-0.4-0.6-0.7l0.2,0c0,0.3,0.2,0.5,0.5,0.6c0.4,0.1,0.7-0.1,0.8-0.5c0.1-0.4-0.1-0.7-0.5-0.8
			C32.8,10.4,32.5,10.5,32.4,10.7z"/>
	</g>
	<g>
		<g>
			<path class="st8" d="M33.8,7.9l-0.3-0.2c0.3-0.6,0.9-1,1.6-0.9c0.9,0.1,1.6,0.9,1.5,1.8c-0.1,0.9-0.9,1.6-1.8,1.5
				c-0.7-0.1-1.3-0.5-1.5-1.2l0.3-0.1c0.2,0.5,0.6,0.9,1.2,1c0.8,0.1,1.4-0.5,1.5-1.3c0.1-0.8-0.5-1.4-1.3-1.5
				C34.5,7.1,34,7.4,33.8,7.9z"/>
		</g>
		<g>
			<path class="st8" d="M35,10.3c-0.1,0-0.1,0-0.2,0c-0.7-0.1-1.4-0.6-1.6-1.3l0-0.1l0.6-0.3l0.1,0.2c0.1,0.5,0.6,0.8,1.1,0.9
				c0.7,0.1,1.3-0.5,1.3-1.1c0.1-0.7-0.4-1.3-1.1-1.3c-0.5,0-1,0.2-1.2,0.7l-0.1,0.2l-0.5-0.4l0.1-0.1c0.3-0.7,1-1,1.8-1
				c0.5,0,0.9,0.3,1.2,0.6c0.3,0.4,0.5,0.9,0.4,1.3C36.8,9.6,36,10.3,35,10.3z"/>
		</g>
	</g>
	<g>
		<path class="st9" d="M33.2,13.1L33,13c0.1-0.3,0.3-0.4,0.6-0.5c0.4,0,0.7,0.3,0.7,0.7c0,0.4-0.3,0.7-0.7,0.7
			c-0.3,0-0.5-0.1-0.7-0.4l0.2-0.1c0.1,0.2,0.3,0.3,0.5,0.3c0.3,0,0.5-0.2,0.5-0.5c0-0.3-0.2-0.5-0.5-0.5
			C33.5,12.7,33.3,12.9,33.2,13.1z"/>
	</g>
	<g>
		<path class="st9" d="M33,14.6L33,14.6c0-0.1,0.1-0.2,0.2-0.2c0.2,0,0.3,0.1,0.3,0.3c0,0.2-0.1,0.3-0.3,0.3c-0.1,0-0.2-0.1-0.3-0.2
			l0.1,0c0,0.1,0.1,0.1,0.2,0.1c0.1,0,0.2-0.1,0.2-0.2c0-0.1-0.1-0.2-0.2-0.2C33.1,14.5,33.1,14.5,33,14.6z"/>
	</g>
	<g>
		<path class="st9" d="M34,15.1L34,15.1c0-0.2,0.1-0.2,0.2-0.2c0.2,0,0.3,0.1,0.3,0.3c0,0.2-0.1,0.3-0.3,0.3c-0.1,0-0.2-0.1-0.3-0.2
			l0.1-0.1c0,0.1,0.1,0.1,0.2,0.1c0.1,0,0.2-0.1,0.2-0.2c0-0.1-0.1-0.2-0.2-0.2C34.1,15,34,15.1,34,15.1z"/>
	</g>
	<g>
		<path class="st8" d="M36.6,13.7l-0.1-0.1c0.1-0.2,0.2-0.3,0.4-0.3c0.3,0,0.5,0.2,0.5,0.5c0,0.3-0.2,0.5-0.5,0.5
			c-0.2,0-0.4-0.1-0.5-0.3l0.1-0.1c0.1,0.1,0.2,0.2,0.4,0.2c0.2,0,0.3-0.2,0.3-0.4c0-0.2-0.2-0.3-0.4-0.3
			C36.8,13.4,36.7,13.5,36.6,13.7z"/>
	</g>
	<g>
		<path class="st8" d="M30.8,5.2L30.8,5.2C30.7,5,30.8,4.9,31,4.9c0.2,0,0.4,0.1,0.4,0.3c0,0.2-0.1,0.4-0.3,0.4
			c-0.1,0-0.3-0.1-0.3-0.2l0.1-0.1c0,0.1,0.1,0.2,0.2,0.2c0.1,0,0.2-0.1,0.2-0.3C31.3,5.1,31.1,5,31,5C30.9,5,30.8,5.1,30.8,5.2z"/>
	</g>
	<g>
		<path class="st9" d="M35.3,14.8l0,0.2c-0.3,0-0.5-0.2-0.6-0.4c-0.1-0.3,0-0.7,0.4-0.9c0.3-0.1,0.7,0,0.9,0.4
			c0.1,0.3,0,0.5-0.2,0.7l-0.2-0.1c0.1-0.1,0.2-0.3,0.1-0.5c-0.1-0.2-0.4-0.4-0.6-0.3c-0.2,0.1-0.4,0.4-0.3,0.6
			C35,14.7,35.1,14.8,35.3,14.8z"/>
	</g>
	<g>
		<path class="st6" d="M35.3,11.5l-0.1-0.2c0.4-0.2,0.8-0.2,1.2,0c0.5,0.3,0.6,1,0.3,1.5c-0.3,0.5-1,0.6-1.5,0.3
			c-0.4-0.3-0.5-0.7-0.5-1.1l0.2,0c-0.1,0.3,0.1,0.7,0.4,0.9c0.4,0.3,0.9,0.2,1.2-0.2c0.3-0.4,0.2-0.9-0.2-1.2
			C36,11.3,35.6,11.3,35.3,11.5z"/>
	</g>
	<g>
		<path class="st10" d="M39.9,9.1l-0.1-0.2c0.2-0.2,0.4-0.2,0.7-0.1c0.3,0.2,0.4,0.5,0.3,0.8c-0.2,0.3-0.5,0.4-0.8,0.3
			c-0.2-0.1-0.4-0.4-0.3-0.6l0.2,0c0,0.2,0.1,0.4,0.2,0.4c0.2,0.1,0.5,0,0.6-0.2c0.1-0.2,0-0.5-0.2-0.6C40.3,8.9,40.1,9,39.9,9.1z"
			/>
		<path class="st14" d="M40.2,10c-0.1,0-0.2,0-0.3-0.1c-0.2-0.1-0.4-0.4-0.4-0.6l0,0l0.3,0l0,0c0,0.2,0.1,0.3,0.2,0.4
			c0.1,0,0.1,0,0.2,0c0.1,0,0.3-0.1,0.4-0.2c0.1-0.2,0-0.4-0.2-0.5C40.3,9,40.1,9,40,9.1l0,0l-0.1-0.2l0,0c0.2-0.2,0.5-0.2,0.7-0.1
			c0.2,0.1,0.3,0.2,0.3,0.4c0.1,0.2,0,0.3,0,0.5C40.7,9.9,40.5,10,40.2,10z M39.7,9.4c0,0.2,0.1,0.4,0.3,0.5c0.1,0,0.2,0.1,0.3,0.1
			c0.2,0,0.4-0.1,0.5-0.3c0.1-0.1,0.1-0.3,0-0.4c0-0.1-0.1-0.3-0.3-0.3c-0.2-0.1-0.4-0.1-0.6,0.1L39.9,9c0.1-0.1,0.3-0.1,0.5,0
			c0.2,0.1,0.3,0.4,0.2,0.6c-0.1,0.2-0.2,0.3-0.4,0.3l0,0c-0.1,0-0.1,0-0.2-0.1c-0.2-0.1-0.3-0.3-0.3-0.4L39.7,9.4z"/>
	</g>
	<g>
		<path class="st14" d="M38.3,9.4l-0.1,0c-0.1-0.2-0.1-0.3,0.1-0.5c0.2-0.2,0.4-0.2,0.6,0C39,9,39,9.3,38.9,9.5
			c-0.1,0.1-0.3,0.2-0.5,0.1l0-0.1c0.1,0,0.3,0,0.3-0.1c0.1-0.1,0.1-0.3,0-0.4c-0.1-0.1-0.3-0.1-0.4,0C38.2,9.1,38.2,9.3,38.3,9.4z"
			/>
		<path class="st10" d="M38.5,9.7c-0.1,0-0.1,0-0.1,0l0,0l0-0.2l0,0c0.1,0,0.2,0,0.3-0.1c0-0.1,0.1-0.1,0.1-0.2c0-0.1,0-0.1-0.1-0.2
			c-0.1-0.1-0.3-0.1-0.4,0c-0.1,0.1-0.1,0.2,0,0.3l0,0l-0.2,0.1l0,0c-0.1-0.2-0.1-0.4,0.1-0.5c0.1-0.1,0.2-0.2,0.4-0.2
			c0.1,0,0.2,0,0.3,0.1C38.9,8.9,39,9.1,39,9.2c0,0.1,0,0.2-0.1,0.3C38.8,9.6,38.7,9.7,38.5,9.7z M38.5,9.6c0.1,0,0.3,0,0.4-0.1
			c0.1-0.1,0.1-0.2,0.1-0.3c0-0.1-0.1-0.2-0.1-0.3c-0.1-0.1-0.2-0.1-0.3-0.1c-0.1,0-0.2,0.1-0.3,0.1c-0.1,0.1-0.1,0.3-0.1,0.4l0,0
			c0-0.1,0-0.3,0.1-0.4c0.1-0.1,0.3-0.2,0.5,0c0.1,0.1,0.1,0.1,0.1,0.2c0,0.1,0,0.2-0.1,0.3C38.7,9.5,38.6,9.6,38.5,9.6L38.5,9.6z"
			/>
	</g>
	<g>
		<path class="st10" d="M32.1,7.4l0,0.2c-0.2,0-0.5-0.1-0.6-0.3c-0.2-0.3,0-0.7,0.3-0.8c0.3-0.2,0.7,0,0.8,0.3
			c0.1,0.2,0.1,0.5-0.1,0.7l-0.2-0.1c0.1-0.1,0.2-0.3,0.1-0.5c-0.1-0.2-0.4-0.3-0.6-0.2c-0.2,0.1-0.3,0.4-0.2,0.6
			C31.8,7.4,31.9,7.4,32.1,7.4z"/>
	</g>
	<g>
		<path class="st9" d="M25.1,11.2l-0.2-0.2c0.3-0.3,0.7-0.4,1.1-0.3c0.5,0.2,0.8,0.7,0.7,1.3c-0.2,0.5-0.7,0.8-1.3,0.7
			c-0.4-0.1-0.7-0.5-0.7-0.9l0.2-0.1c0,0.3,0.2,0.6,0.6,0.7c0.4,0.1,0.9-0.1,1-0.5c0.1-0.4-0.1-0.9-0.5-1
			C25.6,10.9,25.3,11,25.1,11.2z"/>
	</g>
	<g>
		<path class="st13" d="M41,37.1l0,0.1c-0.2,0-0.3-0.1-0.4-0.2c-0.1-0.2,0-0.4,0.2-0.5c0.2-0.1,0.4,0,0.5,0.2c0.1,0.1,0,0.3-0.1,0.4
			L41.2,37c0.1-0.1,0.1-0.2,0-0.3c-0.1-0.1-0.2-0.2-0.4-0.1c-0.1,0.1-0.2,0.2-0.1,0.4C40.8,37,40.9,37.1,41,37.1z"/>
	</g>
	<g>
		<path class="st9" d="M4.5,32.8l0.1-0.2c0.3,0.1,0.5,0.4,0.5,0.8c0,0.5-0.4,0.8-0.9,0.8c-0.5,0-0.8-0.4-0.8-0.9
			c0-0.4,0.2-0.7,0.5-0.8l0.1,0.2c-0.2,0.1-0.4,0.3-0.4,0.6c0,0.3,0.3,0.6,0.6,0.6c0.3,0,0.6-0.3,0.6-0.6
			C4.9,33.1,4.7,32.9,4.5,32.8z"/>
	</g>
	<g>
		<path class="st8" d="M14.4,26.4l-0.1-0.1c0.2-0.2,0.5-0.3,0.7-0.2c0.4,0.1,0.6,0.5,0.5,0.9c-0.1,0.4-0.5,0.6-0.9,0.5
			c-0.3-0.1-0.5-0.3-0.5-0.6l0.1,0c0,0.2,0.2,0.4,0.4,0.5c0.3,0.1,0.6-0.1,0.7-0.4c0.1-0.3-0.1-0.6-0.4-0.7
			C14.8,26.1,14.6,26.2,14.4,26.4z"/>
		<path class="st8" d="M14.9,27.4c-0.1,0-0.1,0-0.2,0c-0.3-0.1-0.5-0.3-0.5-0.6l0,0l0.2-0.1l0,0c0,0.2,0.2,0.4,0.4,0.4
			c0,0,0.1,0,0.1,0c0.2,0,0.4-0.1,0.5-0.4c0.1-0.3-0.1-0.5-0.3-0.6c-0.2-0.1-0.4,0-0.5,0.2l0,0l-0.2-0.2l0,0
			c0.1-0.2,0.3-0.3,0.6-0.3c0.1,0,0.1,0,0.2,0c0.2,0.1,0.3,0.2,0.4,0.4c0.1,0.2,0.1,0.4,0.1,0.6C15.5,27.2,15.2,27.4,14.9,27.4z
			 M14.2,26.8c0,0.2,0.2,0.4,0.5,0.5c0.1,0,0.1,0,0.2,0c0.3,0,0.5-0.2,0.6-0.5c0.1-0.2,0-0.3,0-0.5c-0.1-0.2-0.2-0.3-0.4-0.3
			c-0.2-0.1-0.5,0-0.7,0.2l0.1,0.1c0.1-0.2,0.4-0.2,0.6-0.2c0.3,0.1,0.5,0.4,0.4,0.7c-0.1,0.2-0.3,0.4-0.5,0.4l0,0
			c-0.1,0-0.1,0-0.2,0C14.5,27.2,14.3,27,14.2,26.8L14.2,26.8z"/>
	</g>
	<g>
		<path class="st6" d="M14.6,21.6L14.6,21.6c0-0.1,0.1-0.2,0.2-0.2c0.2,0,0.3,0.1,0.3,0.3c0,0.2-0.1,0.3-0.3,0.3
			c-0.1,0-0.2-0.1-0.3-0.2l0.1,0c0,0.1,0.1,0.1,0.2,0.1c0.1,0,0.2-0.1,0.2-0.2c0-0.1-0.1-0.2-0.2-0.2C14.7,21.5,14.6,21.6,14.6,21.6
			z"/>
		<path class="st6" d="M14.8,22L14.8,22c-0.1,0-0.2-0.1-0.3-0.2l0,0l0.1-0.1l0,0c0,0.1,0.1,0.1,0.2,0.1l0,0c0.1,0,0.2-0.1,0.2-0.2
			c0-0.1-0.1-0.2-0.2-0.2l0,0c-0.1,0-0.1,0-0.2,0.1l0,0l-0.1-0.1l0,0c0.1-0.1,0.2-0.2,0.3-0.2h0c0.2,0,0.3,0.1,0.3,0.3
			C15.1,21.9,15,22,14.8,22z M14.5,21.8c0,0.1,0.1,0.1,0.2,0.2l0,0v0c0.1,0,0.3-0.1,0.3-0.3c0-0.1-0.1-0.3-0.3-0.3l0,0
			c-0.1,0-0.2,0.1-0.2,0.1l0,0c0-0.1,0.1-0.1,0.2-0.1c0.1,0,0.2,0.1,0.2,0.2c0,0.1-0.1,0.2-0.2,0.2l0,0
			C14.7,21.9,14.6,21.9,14.5,21.8L14.5,21.8z"/>
	</g>
	<g>
		<path class="st8" d="M35.9,16.1L35.7,16c0.1-0.2,0.2-0.3,0.4-0.3c0.3,0,0.5,0.2,0.5,0.5c0,0.3-0.2,0.5-0.5,0.5
			c-0.2,0-0.4-0.1-0.5-0.3l0.1-0.1c0.1,0.1,0.2,0.2,0.4,0.2c0.2,0,0.3-0.2,0.3-0.4c0-0.2-0.2-0.3-0.4-0.3
			C36,15.8,35.9,15.9,35.9,16.1z"/>
	</g>
</g>
<g>
	<path class="st15" d="M53.3,33.9c-1.1-0.1-2-0.4-2.9-0.9c-0.9-0.5-1.7-1.2-2.4-1.9c-0.4-0.4-0.7-0.9-1-1.4c-0.3-0.5-0.5-1-0.7-1.6
		c-0.4-1-0.5-2-0.5-3c0-1,0.2-2,0.5-3c0.3-0.9,0.8-1.8,1.4-2.6c0.6-0.8,1.3-1.5,2.1-2c0.8-0.5,1.7-0.9,2.7-1.2c1-0.2,2-0.3,3.1-0.1
		c1.3,0.2,2.5,0.7,3.5,1.5c1.1,0.8,1.9,1.8,2.5,3c0,0.1,0.1,0.2,0.2,0.3c0.1,0.2,0.1,0.3,0.2,0.4c0,0,0,0.1,0,0.1
		c0,0.1,0.1,0.1,0.1,0.2c-0.1,0-0.2,0.1-0.3,0.2C61.6,22,61.5,22,61.4,22c-0.3-0.6-0.6-1.2-0.9-1.7c-0.3-0.5-0.8-1-1.3-1.5
		c-0.9-0.9-2-1.5-3.3-1.7c-1.2-0.3-2.5-0.3-3.7,0c-1,0.3-1.9,0.7-2.8,1.4c-0.8,0.7-1.5,1.5-2,2.4c-0.5,0.9-0.9,1.9-1,2.9
		c-0.2,1-0.2,2,0,2.9c0.2,1,0.5,1.9,1,2.7c0.5,0.8,1.1,1.6,1.8,2.2c0.7,0.6,1.5,1.1,2.5,1.4c0.9,0.3,2,0.5,3.1,0.4
		c0.8,0,1.5-0.2,2.2-0.5c0.7-0.3,1.3-0.7,1.9-1.2c0.6-0.5,1.1-1.1,1.5-1.7c0.4-0.6,0.8-1.3,1-2l0.6,0.2v0.1
		c-0.1,0.4-0.3,0.8-0.5,1.2c-0.2,0.4-0.4,0.7-0.6,1.1c-0.4,0.6-0.9,1.2-1.5,1.6c-0.6,0.5-1.2,0.8-1.8,1.1c-0.7,0.3-1.4,0.5-2.1,0.6
		C54.7,34,54,34,53.3,33.9z"/>
	<path class="st15" d="M72.1,29.2L72.1,29.2c-0.3,0.1-0.7,0.1-1,0.2c-0.3,0.1-0.6,0.1-0.9,0.1v-0.6c1.1-0.1,2-0.3,2.9-0.8
		c0.9-0.5,1.6-1.1,2.1-1.8c0.5-0.8,0.9-1.6,1-2.6c0.1-1,0-2-0.3-3c-0.3-0.9-0.9-1.7-1.6-2.3c-0.7-0.7-1.5-1.1-2.4-1.4
		c0,0-0.2,0-0.3-0.1c-0.2-0.1-0.3-0.1-0.3-0.1c0,0-0.1,0-0.2,0c-0.1,0-0.1,0-0.2,0h-5.4v17.1h-0.7V16.1h5.7c0.7,0,1.3,0.1,1.9,0.4
		c0.6,0.2,1.2,0.6,1.7,0.9c0.7,0.5,1.4,1.2,1.8,2c0.4,0.8,0.7,1.6,0.8,2.5c0.1,0.9,0,1.8-0.2,2.6c-0.2,0.9-0.7,1.7-1.3,2.4
		c-0.4,0.4-0.7,0.8-1.2,1.1c-0.4,0.3-0.9,0.6-1.4,0.8v0l3.6,4.8h-0.8L72.1,29.2z"/>
	<path class="st15" d="M90.9,16v0.6H80.4v6.9h4.3v0.7h-4.3v9.1h10.2v0.6H79.8V16H90.9z"/>
	<path class="st15" d="M92.4,33.9h-0.8L108,16h0.6v17.9H108V17L92.4,33.9z"/>
	<path class="st15" d="M110.8,16.6V16h10.1v0.6h-4.8v17.2h-0.6V16.6H110.8z"/>
	<path class="st15" d="M123.8,16v17.9h-0.6V16H123.8z"/>
	<path class="st15" d="M126.3,16h0.7l5.9,16.9l5.7-16.9h0.6l-6,17.9h-0.7L126.3,16z"/>
	<path class="st15" d="M152.9,16v0.6h-10.5v6.9h4.3v0.7h-4.3v9.1h10.2v0.6h-10.8V16H152.9z"/>
	<path class="st15" d="M172.1,33.9c-1.1-0.1-2-0.4-2.9-0.9c-0.9-0.5-1.7-1.2-2.4-1.9c-0.4-0.4-0.7-0.9-1-1.4c-0.3-0.5-0.5-1-0.7-1.6
		c-0.4-1-0.5-2-0.5-3c0-1,0.2-2,0.5-3c0.3-0.9,0.8-1.8,1.4-2.6c0.6-0.8,1.3-1.5,2.1-2c0.8-0.5,1.7-0.9,2.7-1.2c1-0.2,2-0.3,3.1-0.1
		c1.3,0.2,2.5,0.7,3.5,1.5c1.1,0.8,1.9,1.8,2.5,3c0,0.1,0.1,0.2,0.2,0.3c0.1,0.2,0.1,0.3,0.2,0.4c0,0,0,0.1,0.1,0.1
		c0,0.1,0.1,0.1,0.1,0.2c-0.1,0-0.2,0.1-0.3,0.2c-0.1,0.1-0.2,0.1-0.3,0.1c-0.3-0.6-0.6-1.2-0.9-1.7c-0.3-0.5-0.8-1-1.3-1.5
		c-0.9-0.9-2-1.5-3.2-1.7c-1.2-0.3-2.5-0.3-3.7,0c-1,0.3-1.9,0.7-2.8,1.4c-0.8,0.7-1.5,1.5-2,2.4c-0.5,0.9-0.9,1.9-1,2.9
		c-0.2,1-0.1,2,0,2.9c0.2,1,0.5,1.9,1,2.7c0.5,0.8,1.1,1.6,1.8,2.2c0.7,0.6,1.6,1.1,2.5,1.4c0.9,0.3,2,0.5,3.1,0.4
		c0.8,0,1.5-0.2,2.2-0.5c0.7-0.3,1.4-0.7,1.9-1.2c0.6-0.5,1.1-1.1,1.5-1.7c0.4-0.6,0.8-1.3,1-2l0.6,0.2v0.1
		c-0.1,0.4-0.3,0.8-0.5,1.2c-0.2,0.4-0.4,0.7-0.6,1.1c-0.4,0.6-0.9,1.2-1.5,1.6c-0.6,0.5-1.2,0.8-1.8,1.1c-0.7,0.3-1.4,0.5-2.1,0.6
		C173.5,34,172.8,34,172.1,33.9z"/>
	<path class="st15" d="M190.5,33.9c-0.7-0.1-1.3-0.3-2-0.6c-0.6-0.3-1.2-0.7-1.8-1.1c-0.5-0.4-1-0.9-1.5-1.5
		c-0.4-0.6-0.8-1.1-1.1-1.8c-0.5-1.2-0.8-2.4-0.9-3.5c0-1.1,0.1-2.2,0.4-3.2c0.3-1,0.8-1.9,1.5-2.7c0.6-0.8,1.4-1.5,2.3-2.1
		c0.9-0.6,1.8-1,2.8-1.2c1-0.3,2-0.3,3.1-0.2c1,0.1,2,0.4,3.1,0.9c1,0.5,2,1.2,2.8,2.2c0.6,0.6,1,1.3,1.4,2.1
		c0.3,0.8,0.6,1.6,0.7,2.4c0.2,1.1,0.2,2.1,0,3.1c-0.2,1-0.5,1.9-1,2.7c-0.5,0.8-1,1.6-1.7,2.2c-0.7,0.7-1.5,1.2-2.4,1.6
		c-0.9,0.4-1.8,0.7-2.8,0.8C192.5,34.1,191.5,34.1,190.5,33.9z M190.9,33.3c0.8,0.1,1.6,0.2,2.4,0.1c0.8-0.1,1.6-0.3,2.3-0.6
		c0.7-0.3,1.4-0.7,2-1.2c0.6-0.5,1.2-1.1,1.6-1.7c0.6-0.9,1-1.8,1.3-2.8c0.2-1,0.3-1.9,0.3-2.9c-0.1-0.9-0.3-1.9-0.7-2.7
		c-0.4-0.9-0.9-1.7-1.6-2.3c-0.6-0.7-1.4-1.3-2.3-1.7c-0.9-0.5-1.9-0.8-2.9-0.9c-0.9-0.1-1.7-0.1-2.6,0.1c-0.9,0.2-1.7,0.5-2.4,0.9
		c-0.5,0.3-1.1,0.7-1.6,1.2c-0.5,0.5-0.9,1-1.3,1.6c-0.4,0.6-0.7,1.2-0.9,1.8c-0.2,0.6-0.4,1.3-0.4,2c-0.1,1,0,2,0.3,3
		c0.2,1,0.7,1.9,1.3,2.7c0.6,0.9,1.4,1.6,2.3,2.2C188.8,32.7,189.8,33.1,190.9,33.3z"/>
	<path class="st15" d="M205,16v17.2h7.6v0.6h-8.2V16H205z"/>
	<path class="st15" d="M214.9,16v17.2h7.6v0.6h-8.2V16H214.9z"/>
	<path class="st15" d="M235.3,16v0.6h-10.5v6.9h4.3v0.7h-4.3v9.1H235v0.6h-10.8V16H235.3z"/>
	<path class="st15" d="M244.3,33.9c-1.1-0.1-2-0.4-2.9-0.9c-0.9-0.5-1.7-1.2-2.4-1.9c-0.4-0.4-0.7-0.9-1-1.4c-0.3-0.5-0.5-1-0.7-1.6
		c-0.4-1-0.5-2-0.5-3c0-1,0.2-2,0.5-3c0.3-0.9,0.8-1.8,1.4-2.6c0.6-0.8,1.3-1.5,2.1-2c0.8-0.5,1.7-0.9,2.7-1.2c1-0.2,2-0.3,3.1-0.1
		c1.3,0.2,2.5,0.7,3.5,1.5c1.1,0.8,1.9,1.8,2.5,3c0,0.1,0.1,0.2,0.2,0.3c0.1,0.2,0.1,0.3,0.2,0.4c0,0,0,0.1,0,0.1
		c0,0.1,0.1,0.1,0.1,0.2c-0.1,0-0.2,0.1-0.3,0.2c-0.1,0.1-0.2,0.1-0.3,0.1c-0.3-0.6-0.6-1.2-0.9-1.7c-0.3-0.5-0.8-1-1.3-1.5
		c-0.9-0.9-2-1.5-3.3-1.7c-1.2-0.3-2.5-0.3-3.7,0c-1,0.3-1.9,0.7-2.8,1.4c-0.8,0.7-1.5,1.5-2,2.4c-0.5,0.9-0.9,1.9-1,2.9
		c-0.2,1-0.1,2,0,2.9c0.2,1,0.5,1.9,1,2.7c0.5,0.8,1.1,1.6,1.8,2.2c0.7,0.6,1.5,1.1,2.5,1.4c0.9,0.3,2,0.5,3.1,0.4
		c0.8,0,1.5-0.2,2.2-0.5c0.7-0.3,1.4-0.7,1.9-1.2c0.6-0.5,1.1-1.1,1.5-1.7c0.4-0.6,0.8-1.3,1-2l0.6,0.2v0.1
		c-0.1,0.4-0.3,0.8-0.5,1.2c-0.2,0.4-0.4,0.7-0.6,1.1c-0.4,0.6-0.9,1.2-1.5,1.6c-0.6,0.5-1.2,0.8-1.8,1.1c-0.7,0.3-1.4,0.5-2.1,0.6
		C245.8,34,245.1,34,244.3,33.9z"/>
	<path class="st15" d="M254.9,16.6V16H265v0.6h-4.8v17.2h-0.6V16.6H254.9z"/>
	<path class="st15" d="M267.8,16v17.9h-0.6V16H267.8z"/>
	<path class="st15" d="M270.4,16h0.7l5.8,16.9l5.7-16.9h0.7l-6,17.9h-0.7L270.4,16z"/>
	<path class="st15" d="M296.9,16v0.6h-10.5v6.9h4.3v0.7h-4.3v9.1h10.2v0.6h-10.8V16H296.9z"/>
</g>
</svg>
